<svg width="122" height="122" viewBox="0 0 122 122" fill="none" xmlns="http://www.w3.org/2000/svg">
<g id="Icono">
<circle id="Ellipse 10" cx="61" cy="61" r="61" fill="#1F222B"/>
<path id="Union" fill-rule="evenodd" clip-rule="evenodd" d="M72.7816 44.9623C72.7469 53.0085 66.1472 59.5386 58.099 59.4937C50.0589 59.4467 43.6023 52.8491 43.6636 44.7416C43.7249 36.7403 50.2264 30.3021 58.2277 30.3164C66.2882 30.3307 72.8163 36.9017 72.7816 44.9623ZM69.6963 58.4859C73.701 60.803 76.8659 63.8739 79.6611 67.989C78.9293 67.989 78.2368 67.988 77.57 67.9871C76.3081 67.9853 75.1384 67.9836 73.9686 67.989C69.9374 68.0135 67.1422 70.5941 67.1136 74.3087C67.085 77.9885 69.8761 80.5977 73.936 80.659C75.2027 80.6782 76.4694 80.6735 77.8525 80.6683H77.8528C78.5288 80.6657 79.2326 80.6631 79.9778 80.6631V90.0864H30.5563C28.7848 79.4555 37.0885 63.3774 46.7958 58.5411C54.3905 63.9454 61.981 63.97 69.6942 58.4819L69.6963 58.4859ZM91.9766 71.0738C91.1051 71.0845 90.2216 71.0954 89.3221 71.0954C89.3221 70.1178 89.3254 69.1602 89.3287 68.2167C89.3363 66.0087 89.3436 63.8777 89.3078 61.7476C89.2751 59.8066 87.8939 58.4478 86.1061 58.4397C84.3857 58.4315 83.0556 59.6717 82.8941 61.5556C82.8254 62.3557 82.8343 63.1624 82.8432 63.9692C82.8465 64.2647 82.8497 64.5602 82.8492 64.8554C82.8465 66.2135 82.8474 67.5726 82.8483 68.9588C82.8487 69.6622 82.8492 70.3726 82.8492 71.0934C82.1028 71.0934 81.3792 71.0931 80.6727 71.0928C78.6195 71.0921 76.7102 71.0914 74.8009 71.0974C74.7022 71.0978 74.6031 71.0975 74.504 71.0973C73.9898 71.0959 73.4721 71.0946 72.9702 71.1751C71.2478 71.453 70.1077 72.8567 70.2057 74.5096C70.3058 76.23 71.6196 77.5111 73.4953 77.5438C75.6232 77.5809 77.751 77.5732 79.9521 77.5651C80.9002 77.5616 81.8619 77.5581 82.8431 77.5581V79.6953C82.8437 80.413 82.8386 81.1308 82.8334 81.8487C82.8215 83.5159 82.8096 85.1833 82.8696 86.8486C82.9575 89.278 84.9885 90.7798 87.1134 90.0361C88.6969 89.4824 89.3426 88.2585 89.3303 86.6137C89.3159 84.5161 89.3188 82.4186 89.3217 80.2715C89.3229 79.3755 89.3242 78.4709 89.3242 77.554C90.3384 77.554 91.3286 77.5602 92.3021 77.5662C94.4996 77.5799 96.6118 77.5931 98.723 77.5336C101.41 77.46 103.008 74.5995 101.387 72.6156C100.725 71.8044 99.3605 71.2364 98.2735 71.1628C96.2071 71.0218 94.1283 71.0473 91.9766 71.0738Z" fill="#111318"/>
</g>
</svg>
