<svg width="68" height="68" viewBox="0 0 68 68" fill="none" xmlns="http://www.w3.org/2000/svg">
<g clip-path="url(#clip0_60_879)">
<path d="M53.1207 0H14.8793C6.66171 0 0 6.66171 0 14.8793V53.1207C0 61.3383 6.66171 68 14.8793 68H53.1207C61.3383 68 68 61.3383 68 53.1207V14.8793C68 6.66171 61.3383 0 53.1207 0Z" fill="#2E8E9E"/>
<path d="M29.346 37.8823C29.4276 38.2468 29.4755 38.6016 29.6242 38.9325C29.7536 39.2298 30.0126 39.3353 30.3099 39.3449C30.7702 39.364 31.2305 39.3736 31.6909 39.3736C34.918 39.3736 38.1403 39.3688 41.3675 39.3688C42.0724 39.3688 42.7293 39.5271 43.3143 39.9395C44.6953 40.9225 45.0502 42.8165 44.1103 44.2167C43.4486 45.2045 42.5039 45.6792 41.3195 45.6265C39.8714 45.5594 38.6726 44.4709 38.4137 43.0419C38.337 42.6247 38.3705 42.2076 38.3993 41.7856C38.4041 41.6945 38.4137 41.6034 38.4185 41.4979C38.3705 41.4979 38.337 41.4931 38.2986 41.4931C36.3134 41.4931 34.3282 41.4931 32.3478 41.4931C32.2663 41.4931 32.2375 41.5123 32.2327 41.5986C32.2135 42.0253 32.1944 42.4569 32.156 42.8837C32.0217 44.3462 30.823 45.5066 29.3508 45.5977C28.4541 45.6553 27.6534 45.4059 26.982 44.8065C25.8744 43.8235 25.6154 42.1165 26.3778 40.8841C26.5553 40.5964 26.7758 40.3518 27.0444 40.1456C27.5239 39.7764 27.6054 39.4887 27.3896 38.9277C26.5553 36.7555 25.7113 34.5833 24.877 32.4063C23.9611 30.0183 23.0548 27.6207 22.1437 25.2327C22.1102 25.1416 22.067 25.0505 22.0239 24.9594C21.8512 24.595 21.5491 24.4607 21.1607 24.4703C20.5949 24.4847 20.0291 24.4895 19.4585 24.4895C19.2475 24.4895 19.0365 24.4847 18.8351 24.4415C18.3987 24.3552 18.135 24.0387 18.0631 23.5976C17.9432 22.8927 18.4323 22.4132 19.094 22.3844C19.5544 22.3652 20.0147 22.37 20.475 22.37C21.1272 22.37 21.7793 22.37 22.4362 22.3652C23.0308 22.3652 23.4192 22.6098 23.635 23.1612C23.9371 23.9428 24.2296 24.7292 24.5125 25.5156C24.6948 26.0191 24.9489 26.2205 25.486 26.2205C26.8526 26.2205 28.2144 26.2157 29.581 26.2157C34.8173 26.2157 40.0488 26.2157 45.2851 26.2109C45.5201 26.2109 45.7598 26.2109 45.9948 26.2253C46.2633 26.2445 46.5175 26.3164 46.7285 26.4987C47.0401 26.7672 47.1169 27.122 47.021 27.5008C46.8963 27.9804 46.7428 28.4503 46.599 28.925C46.1291 30.4499 45.6543 31.9699 45.1796 33.49C44.82 34.6456 44.4556 35.806 44.0959 36.9617C43.9281 37.5035 43.5397 37.7768 42.9882 37.8344C42.8444 37.8488 42.7005 37.8536 42.5567 37.8536C39.622 37.8584 36.6826 37.868 33.748 37.8727C32.3334 37.8727 30.9189 37.8727 29.5091 37.8775C29.4659 37.8775 29.4228 37.8775 29.3556 37.8775L29.346 37.8823ZM25.6346 28.4263C25.6538 28.4743 25.6682 28.5126 25.6826 28.551C26.0086 29.4141 26.3347 30.2724 26.656 31.1356C26.8046 31.5336 27.0108 31.6966 27.4424 31.6966C28.8905 31.6966 30.3386 31.6966 31.7868 31.6966C31.8251 31.6966 31.8587 31.6966 31.9067 31.6918C31.8108 30.5985 31.7196 29.5148 31.6285 28.4263H25.6442H25.6346ZM44.4987 28.4263H38.9172C38.8404 29.5004 38.7637 30.5697 38.687 31.6391C38.7349 31.6391 38.7685 31.6438 38.7973 31.6438C40.1927 31.6391 41.5881 31.6343 42.9834 31.6247C43.276 31.6247 43.5541 31.4281 43.6452 31.1547C43.8418 30.5601 44.0384 29.9607 44.2254 29.3614C44.3213 29.0545 44.4076 28.7428 44.4987 28.4263ZM32.717 28.4263C32.717 28.4263 32.717 28.4647 32.717 28.4838C32.7362 28.7572 32.7506 29.0257 32.7746 29.299C32.8225 29.8984 32.8705 30.4978 32.928 31.0972C32.9568 31.3753 33.2541 31.6295 33.5322 31.6343C33.9158 31.6438 34.2946 31.6486 34.6783 31.6534C35.479 31.6534 36.2798 31.6582 37.0806 31.6582C37.469 31.6582 37.6465 31.4856 37.6656 31.0972C37.6656 31.0924 37.6656 31.0828 37.6656 31.078C37.7184 30.33 37.7711 29.5819 37.8239 28.8339C37.8335 28.6996 37.8431 28.5654 37.8526 28.4263H32.717ZM33.2829 35.6526C33.326 35.6526 33.3644 35.6526 33.4027 35.6526C34.6591 35.6526 35.9106 35.6526 37.1669 35.6526C37.258 35.6526 37.2868 35.6334 37.2964 35.5375C37.3444 34.8758 37.4019 34.214 37.4546 33.5523C37.4786 33.279 37.4978 33.0057 37.517 32.7276H33.0431C33.1246 33.7058 33.2013 34.6744 33.2829 35.6526ZM43.1369 32.718C43.0794 32.718 43.0362 32.718 42.993 32.718C41.5641 32.718 40.1351 32.718 38.7014 32.718C38.6055 32.718 38.5911 32.7563 38.5863 32.8378C38.524 33.6482 38.452 34.4538 38.3849 35.2642C38.3753 35.3889 38.3657 35.5135 38.3561 35.6478C38.3993 35.6478 38.4281 35.6526 38.4616 35.6526C39.4878 35.6526 40.5187 35.6526 41.5449 35.6526C41.66 35.6526 41.7751 35.6574 41.8854 35.6382C42.1059 35.6046 42.2786 35.5231 42.3553 35.2738C42.595 34.4682 42.8444 33.6722 43.0937 32.8714C43.1081 32.8282 43.1225 32.7803 43.1369 32.7228V32.718ZM32.204 35.6286C32.1992 35.5423 32.1944 35.4704 32.1896 35.3984C32.1176 34.5401 32.0409 33.6818 31.969 32.8187C31.9642 32.7323 31.9306 32.7132 31.8491 32.7132C30.3722 32.7132 28.8905 32.7132 27.4136 32.7132C27.38 32.7132 27.3465 32.7132 27.3081 32.7132C27.3177 32.7515 27.3225 32.7803 27.3321 32.8043C27.6534 33.6386 27.9746 34.473 28.3007 35.3025C28.387 35.5183 28.5644 35.6286 28.7946 35.6286C29.8208 35.6286 30.8421 35.6286 31.8683 35.6286C31.9738 35.6286 32.0793 35.6286 32.204 35.6286ZM41.5113 41.5027C40.9551 41.5219 40.5092 41.8383 40.49 42.5336C40.4756 43.0083 40.9503 43.4879 41.4442 43.4927C42.0532 43.5022 42.4848 43.0707 42.4943 42.4521C42.4991 41.9534 42.0484 41.5123 41.5161 41.5027H41.5113ZM29.0583 41.5027C28.5405 41.5027 28.0849 41.9294 28.0801 42.4233C28.0753 43.0515 28.4925 43.4879 29.1015 43.4927C29.6002 43.4927 30.1085 42.9988 30.0797 42.4857C30.0509 41.9534 29.7297 41.5171 29.0583 41.5027Z" fill="white"/>
<path d="M19.8237 32.1094C20.73 32.1094 21.6362 32.1094 22.5473 32.1094C22.9693 32.1094 23.3002 32.3971 23.3673 32.8191C23.4296 33.1979 23.1947 33.5767 22.8206 33.7062C22.7391 33.7349 22.6528 33.7493 22.5665 33.7493C20.7396 33.7493 18.9174 33.7493 17.0904 33.7493C16.4911 33.7493 16.0979 33.1307 16.352 32.5889C16.4958 32.2868 16.7452 32.119 17.0809 32.1142C17.9967 32.1094 18.9078 32.1142 19.8237 32.1142V32.1094Z" fill="white"/>
<path d="M17.5882 30.1039C16.6819 30.1039 15.7708 30.1039 14.8646 30.1039C14.4426 30.1039 14.1117 29.8114 14.0494 29.3894C13.9918 29.0106 14.2364 28.627 14.62 28.5071C14.7063 28.4783 14.8022 28.4735 14.8933 28.4688C16.6963 28.4688 18.4993 28.4688 20.2975 28.4688C20.7722 28.4688 21.1414 28.8284 21.1366 29.2887C21.1366 29.7491 20.7722 30.1039 20.2927 30.1087C19.3864 30.1087 18.4849 30.1087 17.5786 30.1087L17.5882 30.1039Z" fill="white"/>
<path d="M22.0616 35.7539C22.9631 35.7539 23.8646 35.7539 24.7613 35.7539C25.1833 35.7539 25.5046 36.0081 25.5909 36.4108C25.6916 36.8712 25.3463 37.3411 24.8764 37.3843C24.8045 37.3891 24.7325 37.3891 24.6606 37.3891C22.896 37.3891 21.1266 37.3891 19.362 37.3891C18.9544 37.3891 18.6331 37.1493 18.5372 36.7849C18.4029 36.2622 18.777 35.7635 19.3188 35.7539C19.3476 35.7539 19.3716 35.7539 19.4003 35.7539C20.2874 35.7539 21.1745 35.7539 22.0616 35.7539Z" fill="white"/>
<path d="M33.9982 61.1818C49.0113 61.1818 61.1818 49.0113 61.1818 33.9982C61.1818 18.985 49.0113 6.81445 33.9982 6.81445C18.985 6.81445 6.81445 18.985 6.81445 33.9982C6.81445 49.0113 18.985 61.1818 33.9982 61.1818Z" stroke="white" stroke-width="4" stroke-miterlimit="10"/>
</g>
<defs>
<clipPath id="clip0_60_879">
<rect width="68" height="68" fill="white"/>
</clipPath>
</defs>
</svg>
