<svg width="164" height="164" viewBox="0 0 164 164" fill="none" xmlns="http://www.w3.org/2000/svg">
<path d="M128.679 0H35.3213C15.8139 0 0 15.8139 0 35.3213V128.679C0 148.186 15.8139 164 35.3213 164H128.679C148.186 164 164 148.186 164 128.679V35.3213C164 15.8139 148.186 0 128.679 0Z" fill="#2E8E9E"/>
<path d="M142.93 2.77505H26.2497C13.2343 2.77505 2.58984 13.4251 2.58984 26.435V143.115L3.0154 141.789C13.6101 108.849 97.8153 144.646 121.608 120.87C145.693 96.7957 109.51 13.2869 142.93 2.77505Z" fill="url(#paint0_linear_1_2)"/>
<g clip-path="url(#clip0_1_2)" filter="url(#filter0_d_1_2)">
<path d="M151 79.1436C150.946 79.0852 150.944 79.0126 150.945 78.9389C150.97 77.6468 150.89 76.358 150.819 75.0704C150.64 71.7918 149.985 68.5858 149.17 65.4162C147.807 60.1235 145.85 55.0565 143.285 50.2184C140.046 44.1091 135.922 38.658 131.068 33.7517C129.871 32.5422 128.603 31.3954 127.309 30.2805C123.142 26.6937 118.606 23.6584 113.705 21.17C109.683 19.1284 105.494 17.4908 101.141 16.2923C96.7642 15.0871 92.3424 14.1549 87.7718 14.09C86.973 14.079 86.1633 14.1428 85.3667 13.9987H79.1898C79.0011 14.1109 78.7948 14.0515 78.5995 14.0504C76.9833 14.0372 75.3671 14.112 73.7619 14.2529C71.1108 14.4851 68.4973 15.0013 65.9135 15.6407C58.8164 17.3972 52.1375 20.1497 45.9241 24.0127C42.2327 26.3074 38.7697 28.907 35.6023 31.873C33.4345 33.9025 31.3416 36.0156 29.4275 38.2992C26.2083 42.1413 23.437 46.2718 21.1423 50.7236C19.1355 54.6152 17.5138 58.6598 16.3245 62.8717C15.0999 67.2123 14.15 71.5992 14.0927 76.139C14.0838 76.8434 14.1379 77.5599 14 78.2631V84.6453C14.1368 85.4774 14.0651 86.3193 14.096 87.1546C14.1754 89.347 14.3652 91.5206 14.7524 93.6821C15.977 100.514 18.1603 107.03 21.2427 113.244C22.9891 116.764 25.0047 120.132 27.3005 123.327C30.4866 127.761 33.9751 131.929 38.0923 135.55C42.0187 139.002 46.3489 141.849 51.0199 144.176C54.1134 145.717 57.3227 146.983 60.629 148.015C66.7851 149.939 73.0624 151.035 79.5251 150.945C79.524 150.929 79.5207 150.913 79.5163 150.897C81.3598 150.897 83.2022 150.897 85.0457 150.897C85.0413 150.914 85.038 150.93 85.0369 150.947C85.9978 150.977 86.9565 150.918 87.9141 150.883C89.4233 150.827 90.9358 150.795 92.4329 150.575C95.4149 150.136 98.3683 149.564 101.279 148.762C106.587 147.302 111.615 145.177 116.388 142.451C120.565 140.066 124.411 137.225 128.003 134.031C130.862 131.489 133.534 128.773 135.951 125.813C139.507 121.459 142.489 116.745 144.854 111.641C146.663 107.736 148.116 103.708 149.168 99.5371C150.133 95.7049 150.869 91.8419 150.911 87.8689C150.918 87.0908 150.852 86.3006 151.001 85.5247V79.1425L151 79.1436ZM81.1921 143.021C48.8267 142.468 21.6741 116.331 21.6586 82.508C21.6421 48.715 48.979 21.9866 82.3273 21.9404C116.038 21.9404 143.163 49.043 143.008 82.8602C142.855 116.628 115.197 143.601 81.1921 143.021Z" fill="white" fill-opacity="0.1"/>
<path d="M79.6818 150.945C79.6288 150.945 79.5759 150.945 79.524 150.947C79.5251 150.965 79.524 150.983 79.5218 151H85.0369C85.0347 150.983 85.0336 150.966 85.0347 150.949C84.985 150.948 84.9365 150.947 84.8868 150.945H79.6818Z" fill="white" fill-opacity="0.1"/>
<path d="M79.5152 150.9C79.5196 150.915 79.5229 150.931 79.524 150.948C79.577 150.948 79.6299 150.948 79.6818 150.945H84.8868C84.9365 150.948 84.9861 150.948 85.0347 150.95C85.0358 150.933 85.0391 150.916 85.0435 150.9C83.2 150.9 81.3576 150.9 79.5141 150.9H79.5152Z" fill="white" fill-opacity="0.1"/>
<path d="M73.9119 82.7152C73.5909 82.4939 73.6471 82.3696 73.9362 82.1748C75.2556 81.2833 76.2739 80.1277 76.9778 78.6948C77.8284 76.9625 77.9508 75.1014 77.9541 73.2261C77.9663 67.5229 77.9586 61.8208 77.9586 56.1177C77.9586 49.7553 77.9586 43.3918 77.9586 37.0294C77.9586 36.314 77.8791 36.2425 77.172 36.2469C75.1144 36.2612 73.0558 36.27 70.9983 36.2832C70.0605 36.2887 70.1278 36.1985 70.1278 37.1362C70.1267 45.7547 70.1278 54.3722 70.1278 62.9908C70.1278 63.6434 70.1234 63.6522 69.5001 63.4992C68.1917 63.179 66.8601 63.0007 65.5186 62.9941C60.4823 62.9676 55.4472 62.972 50.4109 62.9709C49.6243 62.9709 49.5019 63.1173 49.5019 63.9813C49.5019 76.2856 49.5019 88.5889 49.5019 100.893C49.5019 101.875 49.5725 101.941 50.5819 101.941C55.4527 101.941 60.3235 101.938 65.1953 101.943C66.6174 101.945 68.0152 101.77 69.3953 101.439C69.8844 101.322 70.1289 101.521 70.1289 102.036C70.1289 110.691 70.1334 119.345 70.119 128C70.119 128.478 70.2338 128.625 70.7258 128.619C72.9499 128.592 75.174 128.6 77.3981 128.614C77.8041 128.617 77.9729 128.536 77.9718 128.074C77.9586 115.733 77.963 103.393 77.9597 91.052C77.9597 87.6237 76.8366 84.7303 73.9141 82.7141L73.9119 82.7152ZM57.8114 69.6998C60.4194 69.7427 63.0319 69.5678 65.6344 69.7934C68.0483 70.0025 69.7241 71.8922 69.7219 74.2969C69.7196 76.8062 68.1277 78.6067 65.6322 78.8301C63.0109 79.0657 60.3808 78.9006 57.754 78.9446C57.3436 78.9512 57.3304 78.7036 57.3304 78.4053C57.3348 77.0483 57.3326 75.6924 57.3326 74.3354C57.3326 72.9784 57.3381 71.6225 57.3293 70.2655C57.3271 69.9199 57.412 69.6932 57.8125 69.7009L57.8114 69.6998ZM65.7999 95.1032C64.273 95.3398 62.7197 95.1615 61.1785 95.1879C60.1138 95.2055 59.0481 95.1703 57.9835 95.2C57.4683 95.2143 57.3138 95.0217 57.3227 94.5254C57.348 93.1882 57.3315 91.851 57.3315 90.5138C57.3315 89.1766 57.3458 87.8757 57.3238 86.5573C57.3161 86.1082 57.4617 85.9387 57.9206 85.9431C60.2341 85.964 62.5487 85.9178 64.861 85.9828C66.5435 86.0301 68.0593 86.5914 69.0235 88.0672C70.4886 90.308 69.8719 94.4736 65.7999 95.1054V95.1032Z" fill="white" fill-opacity="0.1"/>
<path d="M114.48 88.9114C112.443 88.8277 110.408 88.7133 108.37 88.6296C107.453 88.5922 107.379 88.6802 107.334 89.6069C107.275 90.8374 106.998 92.0106 106.272 93.0231C104.872 94.9766 102.903 95.7569 100.545 95.7052C96.5645 95.6182 94.0591 93.088 94.0646 89.1326C94.0701 84.6764 94.0911 80.2213 94.0977 75.7651C94.0999 74.1714 94.3591 72.6824 95.458 71.4156C97.8586 68.6466 102.306 68.7665 104.509 70.2094C106.339 71.4079 107.236 73.127 107.332 75.2808C107.379 76.3429 107.409 76.3792 108.494 76.3109C109.355 76.257 110.218 76.2229 111.08 76.1712C112.198 76.104 113.316 76.0336 114.433 75.9544C114.846 75.9246 115.179 75.8234 115.172 75.2819C115.102 70.479 113.18 66.6975 108.86 64.4094C104.35 62.0201 99.605 61.987 94.796 63.4464C94.0569 63.6709 94.0624 63.694 94.0624 62.9456C94.0624 54.3271 94.0624 45.7074 94.0624 37.0888C94.0624 36.2942 93.9675 36.2381 93.1721 36.2491C91.1697 36.2755 89.1662 36.2876 87.1628 36.2722C86.2306 36.2645 86.2306 36.2293 86.2306 37.1296C86.2306 52.2217 86.2306 67.3138 86.2306 82.4059C86.2306 97.498 86.2306 112.517 86.2306 127.572C86.2306 127.756 86.2416 127.94 86.2295 128.122C86.2052 128.497 86.3685 128.65 86.7469 128.647C89.0261 128.64 91.3054 128.64 93.5847 128.647C93.9168 128.649 94.0569 128.508 94.0602 128.194C94.0613 128.01 94.0635 127.828 94.0635 127.644C94.0635 119.043 94.0646 110.443 94.0602 101.842C94.0602 101.461 94.005 101.16 94.5919 101.369C98.4764 102.755 102.401 102.769 106.331 101.587C111.742 99.9589 115.238 95.2154 115.176 89.6653C115.17 89.1568 114.997 88.9334 114.479 88.9114H114.48Z" fill="white" fill-opacity="0.1"/>
</g>
<circle cx="82.5" cy="82.5" r="71" stroke="white" stroke-width="3"/>
<defs>
<filter id="filter0_d_1_2" x="10" y="14" width="145" height="145" filterUnits="userSpaceOnUse" color-interpolation-filters="sRGB">
<feFlood flood-opacity="0" result="BackgroundImageFix"/>
<feColorMatrix in="SourceAlpha" type="matrix" values="0 0 0 0 0 0 0 0 0 0 0 0 0 0 0 0 0 0 127 0" result="hardAlpha"/>
<feOffset dy="4"/>
<feGaussianBlur stdDeviation="2"/>
<feComposite in2="hardAlpha" operator="out"/>
<feColorMatrix type="matrix" values="0 0 0 0 0 0 0 0 0 0 0 0 0 0 0 0 0 0 0.25 0"/>
<feBlend mode="normal" in2="BackgroundImageFix" result="effect1_dropShadow_1_2"/>
<feBlend mode="normal" in="SourceGraphic" in2="effect1_dropShadow_1_2" result="shape"/>
</filter>
<linearGradient id="paint0_linear_1_2" x1="207.88" y1="208.071" x2="32.6939" y2="32.8847" gradientUnits="userSpaceOnUse">
<stop offset="0.61" stop-color="#2E8E9E"/>
<stop offset="0.89" stop-color="#006F87"/>
</linearGradient>
<clipPath id="clip0_1_2">
<rect width="137" height="137" fill="white" transform="translate(14 14)"/>
</clipPath>
</defs>
</svg>
