<svg width="295" height="571" viewBox="0 0 295 571" fill="none" xmlns="http://www.w3.org/2000/svg">
<path fill-rule="evenodd" clip-rule="evenodd" d="M20.9572 463.222L183.82 463.222L183.82 409.468L239.41 449.873L295 490.279L239.41 530.594L183.82 571L183.82 512.376L20.9572 512.376C9.41297 512.376 -5.50743e-05 502.815 -5.40493e-05 491.091L-5.34737e-05 484.507C-5.24487e-05 472.782 9.41297 463.222 20.9572 463.222ZM129.917 1.08116L129.917 47.6198C129.917 48.0708 129.562 48.6119 129.029 48.6119C100.524 51.949 78.5899 61.1485 63.2271 76.1202C47.6868 91.2723 39.8722 111.205 39.8722 135.917C39.8722 157.292 46.8876 175.601 60.8295 190.753C74.6826 205.815 97.5047 219.163 129.296 230.888C129.74 231.069 130.006 231.88 130.006 231.88L130.006 314.676C130.006 315.307 129.473 315.758 128.852 315.758C104.254 312.872 82.0531 305.476 62.2503 293.571C61.6287 293.21 60.7407 293.661 60.7407 294.473L60.7407 352.376C60.7407 352.827 60.9183 353.187 61.2735 353.368C76.3698 361.755 98.9255 366.716 129.029 368.249C129.562 368.339 130.006 368.79 130.006 369.331L130.006 407.933C130.006 408.565 130.539 409.016 131.072 409.016L161.087 409.016C161.708 409.016 162.152 408.474 162.152 407.933L162.152 368.339C162.152 367.888 162.508 367.347 163.04 367.347C180.89 365.453 196.341 360.493 209.484 352.466C243.495 331.722 259.213 288.791 247.047 250.369C243.939 240.539 239.055 231.61 232.395 223.583C219.963 208.611 196.696 194.631 162.774 181.734C162.33 181.554 162.064 180.742 162.064 180.742L162.064 101.283C162.064 100.652 162.597 100.201 163.218 100.201C176.183 101.193 190.836 104.621 207.264 110.393C223.071 115.985 235.236 122.027 243.673 128.521C244.294 129.062 245.271 128.611 245.271 127.709L245.271 68.5442C245.271 68.0932 245.094 67.7324 244.738 67.5521C219.519 54.2939 192.345 47.5297 163.129 47.259C162.508 47.1688 162.064 46.7179 162.064 46.1767L162.064 1.08117C162.064 0.449817 161.531 -0.0011103 160.998 -0.00111035L130.983 -0.00111297C130.361 -0.00111303 129.917 0.540025 129.917 1.08116ZM162.064 313.774L162.064 245.95C162.064 245.229 162.952 244.687 163.662 245.048C183.021 255.15 192.7 267.686 192.7 282.658C192.7 300.155 182.932 310.888 163.396 314.856C162.685 314.946 162.064 314.405 162.064 313.774ZM129.917 102.095L129.917 166.852C129.917 167.664 129.118 168.205 128.408 167.845C108.427 158.735 98.4815 147.01 98.4815 132.76C98.4815 115.083 108.516 104.53 128.674 101.013C129.296 100.923 129.917 101.464 129.917 102.095Z" fill="white"/>
</svg>
