<svg width="64" height="64" viewBox="0 0 64 64" fill="none" xmlns="http://www.w3.org/2000/svg">
<g id="icono reinvertir" filter="url(#filter0_d_752_7118)">
<path id="Vector" d="M32 55C46.9117 55 59 42.9117 59 28C59 13.0883 46.9117 1 32 1C17.0883 1 5 13.0883 5 28C5 42.9117 17.0883 55 32 55Z" stroke="white" stroke-width="2" stroke-miterlimit="10"/>
<path id="Vector_2" d="M31.5409 12.1436L31.5409 9.07145C31.5409 9.03572 31.5683 9 31.6065 9L33.4535 9C33.4863 9 33.5191 9.02977 33.5191 9.07145L33.5191 12.0483C33.5191 12.084 33.5464 12.1138 33.5846 12.1197C35.3824 12.1376 37.0546 12.5841 38.6065 13.4593C38.6283 13.4712 38.6392 13.495 38.6392 13.5248L38.6392 17.4304C38.6392 17.49 38.5791 17.5197 38.5409 17.484C38.0218 17.0553 37.2731 16.6565 36.3005 16.2873C35.2895 15.9063 34.3879 15.68 33.5901 15.6146C33.5519 15.6146 33.5191 15.6443 33.5191 15.686L33.5191 20.9312C33.5191 20.9312 33.5355 20.9848 33.5628 20.9967C35.6502 21.8481 37.0819 22.7709 37.8469 23.7592C38.2567 24.2891 38.5573 24.8785 38.7485 25.5275C39.4972 28.0637 38.5299 30.8977 36.4371 32.267C35.6283 32.7969 34.6775 33.1244 33.5792 33.2494C33.5464 33.2494 33.5245 33.2851 33.5245 33.3149L33.5245 35.9286C33.5245 35.9643 33.4972 36 33.459 36L31.612 36C31.5792 36 31.5464 35.9702 31.5464 35.9286L31.5464 33.3804C31.5464 33.3447 31.5191 33.3149 31.4863 33.3089C29.6338 33.2077 28.2459 32.8803 27.3169 32.3266C27.2951 32.3147 27.2841 32.2908 27.2841 32.2611L27.2841 28.4388C27.2841 28.3852 27.3388 28.3555 27.377 28.3793C28.5956 29.1652 29.9617 29.6534 31.4754 29.8439C31.5136 29.8439 31.5464 29.8141 31.5464 29.7724L31.5464 24.3069C31.5464 24.3069 31.53 24.2534 31.5027 24.2415C29.5464 23.4675 28.1421 22.5863 27.2896 21.5921C26.4317 20.5918 26 19.3832 26 17.9722C26 16.3409 26.4809 15.0251 27.4371 14.0249C28.3825 13.0366 29.7322 12.4293 31.4863 12.209C31.5191 12.209 31.5409 12.1733 31.5409 12.1436ZM33.5191 25.2357L33.5191 29.7129C33.5191 29.7546 33.5573 29.7903 33.601 29.7843C34.8032 29.5224 35.4043 28.8139 35.4043 27.6589C35.4043 26.6706 34.8087 25.843 33.6174 25.1762C33.5737 25.1524 33.5191 25.1881 33.5191 25.2357ZM31.5409 20.0203L31.5409 15.7396C31.5409 15.6979 31.5027 15.6622 31.4644 15.6681C30.224 15.9003 29.6065 16.5969 29.6065 17.7638C29.6065 18.7045 30.2185 19.4785 31.448 20.0798C31.4918 20.1036 31.5409 20.0679 31.5409 20.0143L31.5409 20.0203Z" fill="#F4F4F4"/>
<path id="Vector_3" d="M34.8393 39.6605L24.3498 39.6605C23.6063 39.6605 23 40.3116 23 41.11L23 41.5583C23 42.3568 23.6063 43.0078 24.3498 43.0078L34.8393 43.0078L34.8393 47L38.4196 44.2485L42 41.5031L38.4196 38.7515L34.8393 36L34.8393 39.6605Z" fill="#F4F4F4"/>
</g>
<defs>
<filter id="filter0_d_752_7118" x="0" y="0" width="64" height="64" filterUnits="userSpaceOnUse" color-interpolation-filters="sRGB">
<feFlood flood-opacity="0" result="BackgroundImageFix"/>
<feColorMatrix in="SourceAlpha" type="matrix" values="0 0 0 0 0 0 0 0 0 0 0 0 0 0 0 0 0 0 127 0" result="hardAlpha"/>
<feOffset dy="4"/>
<feGaussianBlur stdDeviation="2"/>
<feComposite in2="hardAlpha" operator="out"/>
<feColorMatrix type="matrix" values="0 0 0 0 0 0 0 0 0 0 0 0 0 0 0 0 0 0 0.25 0"/>
<feBlend mode="normal" in2="BackgroundImageFix" result="effect1_dropShadow_752_7118"/>
<feBlend mode="normal" in="SourceGraphic" in2="effect1_dropShadow_752_7118" result="shape"/>
</filter>
</defs>
</svg>
