<svg width="15" height="16" viewBox="0 0 15 16" fill="none" xmlns="http://www.w3.org/2000/svg">
<path id="Union" fill-rule="evenodd" clip-rule="evenodd" d="M0 6.97244C0.0121112 6.88975 0.02312 6.80693 0.0341239 6.72415C0.0576646 6.54705 0.0811822 6.37013 0.11542 6.1951C0.577099 3.80328 1.87795 2.01893 4.01661 0.859715C5.17623 0.231863 6.43091 -0.0344981 7.74942 0.00355353C7.81482 0.00547859 7.88021 0.0108124 7.95189 0.0166577C7.98141 0.0190652 8.01199 0.0215596 8.04408 0.0239383C8.02099 0.335146 7.99927 0.6382 7.97754 0.948049C6.12403 0.854279 4.4973 1.39108 3.11769 2.61688C2.06533 3.55323 1.38775 4.72195 1.08902 6.09861C0.4739 8.94704 1.76253 11.7996 4.30448 13.2333C6.86136 14.6752 10.324 14.258 12.4653 11.7928C12.6013 11.9096 12.7373 12.027 12.8799 12.15L12.8805 12.1506L13.1904 12.4179C13.0821 12.5184 12.9767 12.62 12.8721 12.7207C12.6531 12.9318 12.4376 13.1394 12.206 13.3271C11.0029 14.3042 9.62193 14.8532 8.07531 14.9782C8.04869 14.9801 8.02208 14.9867 7.99546 14.9933C7.98406 14.9961 7.97265 14.9989 7.96125 15.0013H6.99579C6.98285 14.9986 6.97006 14.9951 6.95733 14.9918C6.93265 14.9852 6.90817 14.9787 6.88309 14.9769C6.1444 14.9198 5.42608 14.7635 4.74307 14.4768C2.26087 13.4344 0.726465 11.5943 0.146651 8.96335C0.0995162 8.75198 0.0717441 8.53637 0.0439466 8.32056C0.0301024 8.21308 0.0162519 8.10555 0 7.99847V6.97244ZM6.55704 5.86342V3.3006C6.55704 3.04105 6.73083 2.84266 6.97251 2.81548C7.20333 2.78966 7.41921 2.93914 7.47624 3.17015C7.49137 3.23072 7.49128 3.29599 7.49119 3.35941L7.49118 3.37398L7.49135 4.53793C7.4916 5.70222 7.49185 6.8669 7.48982 8.03081C7.48982 8.13137 7.52105 8.18572 7.60794 8.23464C8.14524 8.53974 8.68211 8.84655 9.21904 9.15339L9.21938 9.15359C9.63889 9.39333 10.0584 9.6331 10.4782 9.87208C10.6656 9.97807 10.7729 10.1289 10.7566 10.3463C10.7308 10.6928 10.3628 10.8804 10.0492 10.7064C9.72919 10.5276 9.41131 10.3453 9.09351 10.163L9.09349 10.1629L9.09347 10.1629L9.09345 10.1629L9.09343 10.1629L9.09341 10.1629L9.09339 10.1629L9.09337 10.1629L9.09223 10.1622C8.97088 10.0926 8.84954 10.023 8.72809 9.95361L8.32316 9.72133L8.32283 9.72114C7.83229 9.43963 7.34188 9.1582 6.84896 8.8801C6.64393 8.7646 6.55161 8.60425 6.55296 8.36917C6.55677 7.78515 6.55591 7.20047 6.55505 6.61605V6.61602V6.61598V6.61595V6.61592V6.61588V6.61585V6.61582C6.55469 6.3654 6.55432 6.11503 6.55432 5.86478L6.55704 5.86342ZM11.1345 2.04786L11.1355 2.04855C11.268 2.13736 11.4004 2.22618 11.5366 2.31771V2.31635C11.6249 2.20331 11.7124 2.09085 11.8009 1.97706L11.8011 1.97679L11.8017 1.97594C11.9034 1.84526 12.0064 1.71284 12.1136 1.57577L12.113 1.57539L12.1108 1.57391L12.1105 1.57371L12.1101 1.57345C11.7978 1.36504 11.5015 1.16735 11.1944 0.962922L11.0726 1.17847L11.0722 1.17908L11.0713 1.18068L11.0711 1.18104C10.9546 1.38717 10.8437 1.58346 10.7328 1.77824C10.8691 1.86989 11.0017 1.95882 11.1343 2.04775L11.1345 2.04786ZM12.6639 2.57513L12.664 2.57506L12.9309 2.32039C13.049 2.46443 13.1651 2.60575 13.2812 2.74707C13.3972 2.88839 13.5133 3.02972 13.6315 3.17376C13.3656 3.36109 13.116 3.53757 12.8665 3.71404L12.8657 3.71459L12.7699 3.59774C12.598 3.38823 12.4286 3.18159 12.2533 2.96721C12.3879 2.83838 12.5235 2.70903 12.6633 2.57568L12.6639 2.57513ZM14.8834 8.72809L14.9454 8.41698H14.9468C14.6101 8.37757 14.3086 8.34224 14.014 8.30691L13.9469 8.64603L13.9467 8.64711C13.9063 8.85145 13.8671 9.05036 13.8266 9.25268C14.1199 9.33422 14.4132 9.41575 14.7295 9.50272C14.781 9.2412 14.8318 8.98664 14.8834 8.72809ZM10.1962 0.488497L10.1957 0.489713C9.92317 0.407261 9.66353 0.329383 9.402 0.250935L9.13853 0.171881C9.09789 0.352621 9.05976 0.52418 9.02275 0.690721L9.02268 0.691019L9.02211 0.693604C8.99255 0.826561 8.96371 0.956332 8.93486 1.08504L9.29039 1.19357L9.29069 1.19366L9.29325 1.19444C9.48162 1.25197 9.66715 1.30863 9.85678 1.36632L9.92027 1.20188C10.0084 0.973635 10.0985 0.740021 10.1957 0.489713L10.1962 0.489855V0.488497ZM13.073 10.9613L13.0434 11.0164V11.0178C13.2296 11.1348 13.4144 11.2519 13.6063 11.3735L13.607 11.3739L13.8363 11.5192C13.9626 11.281 14.0854 11.0507 14.2098 10.8174L14.2099 10.8172L14.2102 10.8167L14.355 10.5449C14.1378 10.4475 13.9327 10.3565 13.7304 10.2668L13.7304 10.2668L13.7299 10.2666L13.4996 10.1644C13.3573 10.4315 13.2197 10.6879 13.0735 10.9604L13.073 10.9613ZM14.1995 4.12318C14.3327 4.44368 14.4623 4.75693 14.5974 5.08346L14.6218 5.14233C14.3241 5.24163 14.0432 5.33448 13.7552 5.42968L13.7324 5.43721C13.6459 5.22833 13.5614 5.02531 13.4761 4.82049L13.3618 4.54579C13.632 4.40854 13.9049 4.2713 14.1995 4.12318ZM13.9835 6.55831C14.0095 6.81768 14.0347 7.06813 14.059 7.31768H14.9999C14.9786 7.11298 14.958 6.91427 14.9377 6.717C14.9204 6.55022 14.9033 6.38446 14.8859 6.217C14.6368 6.26008 14.4079 6.30007 14.1833 6.33929C14.1103 6.35203 14.0379 6.36469 13.9653 6.37735C13.9714 6.43821 13.9775 6.4985 13.9835 6.55831Z" fill="white"/>
</svg>
