<svg width="52" height="52" viewBox="0 0 52 52" fill="none" xmlns="http://www.w3.org/2000/svg">
<path id="Union" fill-rule="evenodd" clip-rule="evenodd" d="M50 26C50 39.2548 39.2548 50 26 50C12.7452 50 2 39.2548 2 26C2 12.7452 12.7452 2 26 2C39.2548 2 50 12.7452 50 26ZM52 26C52 40.3594 40.3594 52 26 52C11.6406 52 0 40.3594 0 26C0 11.6406 11.6406 0 26 0C40.3594 0 52 11.6406 52 26ZM26.0159 34.6834L25.908 34.5736C25.3992 34.0557 24.9218 33.5699 24.4402 33.0883C23.946 32.5965 23.4515 32.1047 22.9569 31.6129C21.4706 30.1348 19.9837 28.6561 18.5022 27.1745C17.5684 26.2408 17.9283 24.6846 19.1733 24.2858C19.8736 24.0621 20.4961 24.2323 21.0165 24.7526C22.0134 25.7447 23.0104 26.7369 24.0025 27.7338C24.0407 27.772 24.0743 27.8132 24.1075 27.8541C24.1336 27.8861 24.1595 27.9179 24.1873 27.9478C24.1995 27.9454 24.2104 27.9417 24.2214 27.9381L24.2214 27.9381C24.2324 27.9344 24.2433 27.9308 24.2554 27.9284V27.6901V13.7762C24.2554 12.8571 24.8828 12.147 25.8117 12.0157C26.6238 11.899 27.4409 12.4437 27.6792 13.2704C27.7278 13.4358 27.7472 13.6157 27.7472 13.786V26.0365V27.9721C27.8348 27.8895 27.8883 27.8408 27.9418 27.7922C28.2843 27.4513 28.6268 27.1099 28.9695 26.7683L28.9696 26.7681C29.6536 26.0863 30.3383 25.4038 31.0251 24.7235C31.5211 24.2323 32.1193 24.0815 32.7759 24.2712C33.4276 24.4608 33.8458 24.9131 33.9868 25.5843C34.123 26.2359 33.909 26.7855 33.4373 27.2475C31.9783 28.687 30.529 30.1314 29.0798 31.5807C28.4528 32.2077 27.8314 32.8383 27.2018 33.4773L27.1993 33.4798C26.8091 33.8759 26.4157 34.2751 26.0159 34.6786V34.6834ZM36.5158 36.4974V36.2202V30.7928C36.5158 29.9223 37.1529 29.1977 38.0185 29.0712C38.8696 28.9448 39.7012 29.4797 39.9347 30.3113C39.9833 30.4767 40.0076 30.6566 40.0076 30.8269V38.2239C40.0076 39.2111 39.2587 39.9698 38.2763 39.999H38.145H13.8821C12.9775 39.999 12.3015 39.5321 12.0729 38.7394C12.0292 38.5789 12.0049 38.4087 12 38.2434V30.8317C12 29.8347 12.7635 29.0615 13.7508 29.0615C14.7234 29.0615 15.4967 29.8445 15.4967 30.8414V36.2251V36.4974H36.5158Z" fill="#6C6C6C"/>
</svg>
