<svg width="14" height="13" viewBox="0 0 14 13" fill="none" xmlns="http://www.w3.org/2000/svg">
<path id="Union" fill-rule="evenodd" clip-rule="evenodd" d="M11.4893 2.00068C11.4883 1.89065 11.4874 1.78062 11.4874 1.67059H11.4865C11.4865 1.56404 11.4876 1.45742 11.4888 1.35079C11.4913 1.10704 11.4939 0.863256 11.4831 0.620285C11.4668 0.244096 11.2143 0.00340158 10.8666 3.5226e-05C10.5162 -0.00333112 10.2406 0.234838 10.232 0.603453C10.2157 1.31796 10.2174 2.03247 10.232 2.74614C10.2398 3.11812 10.5068 3.36554 10.8494 3.37059C11.2066 3.37564 11.4719 3.11391 11.4857 2.72089C11.4933 2.48082 11.4913 2.24075 11.4893 2.00068ZM3.49946 2.01241V2.01241V2.01243C3.50131 2.24356 3.50315 2.47484 3.49607 2.70572C3.48319 3.10211 3.22731 3.36553 2.87182 3.37058C2.51462 3.37563 2.24758 3.11558 2.24071 2.7175C2.22869 2.03161 2.22955 1.34488 2.23985 0.658982C2.24672 0.250812 2.49487 0.00254377 2.8598 1.90117e-05C3.22559 -0.00250575 3.48061 0.246604 3.49521 0.6472C3.50413 0.889577 3.50193 1.13195 3.49974 1.37433C3.49876 1.48205 3.49778 1.58978 3.49778 1.6975C3.49778 1.8024 3.49862 1.90738 3.49946 2.01239V2.01239V2.0124V2.0124V2.0124V2.0124V2.01241ZM1.75189 2.11576L1.75196 2.11649C0.840527 1.99646 0.277513 2.35585 0.0714942 3.18541C0.0208333 3.38655 0.00537749 3.60032 0.00537749 3.80903L0.00445739 4.24893C-0.000486898 6.5977 -0.00543276 8.94722 0.0139641 11.2975C0.0165401 11.6484 0.113568 12.0212 0.261258 12.3427C0.454456 12.7618 0.830548 13 1.32514 13H12.3984C12.8363 13 13.1935 12.8123 13.3953 12.4488C13.555 12.1618 13.7027 11.8235 13.7053 11.507C13.7302 8.87118 13.7267 6.23448 13.7096 3.59863C13.7079 3.3167 13.6091 3.01373 13.4786 2.75873C13.1772 2.17214 12.6362 1.971 11.9691 2.14016C11.8592 3.38992 11.6144 3.81913 10.9198 3.8065C9.76146 3.78546 9.74514 2.92957 9.75974 2.10481H3.98183C3.85474 3.41685 3.57654 3.83007 2.84582 3.8166C2.13327 3.80314 1.8722 3.4027 1.75196 2.11649L1.75275 2.1166L1.75189 2.11576ZM1.19977 11.8605H12.51V5.09077H1.19977V11.8605ZM4.6757 5.94405V8.11451H2.50415V5.94405H4.6757ZM5.77214 8.11873H7.93681V5.9407H5.77214V8.11873ZM11.2066 8.12049H9.04365V5.94247H11.2066V8.12049ZM4.67558 11.1072V8.94685H2.51261V11.1072H4.67558ZM7.9414 11.1089H5.77672V8.93926H7.9414V11.1089ZM9.04788 8.93856V11.1014H11.2126V8.93856H9.04788Z" fill="white" fill-opacity="0.4"/>
</svg>
