<svg width="62" height="62" viewBox="0 0 62 62" fill="none" xmlns="http://www.w3.org/2000/svg">
<g id="icono reinvertir" filter="url(#filter0_d_612_4434)">
<circle id="Ellipse 6" cx="31" cy="27" r="26" stroke="white" stroke-width="2"/>
<g id="Group 44">
<path id="Vector" d="M52.9997 32.9183C52.4784 33.6558 51.9571 33.6675 51.4089 32.9487C50.5616 31.838 49.7181 30.7248 48.8725 29.6129C48.786 29.4994 48.6936 29.3908 48.5693 29.2365C48.3995 30.0256 48.2676 30.771 48.0765 31.5019C47.0272 35.519 44.8101 38.7736 41.4991 41.304C38.7884 43.376 35.7063 44.5299 32.3189 44.9085C31.7526 44.9717 31.1792 44.9854 30.6083 44.9971C30.0883 45.0079 29.7254 44.6863 29.7077 44.2387C29.6901 43.7949 30.019 43.4567 30.5567 43.4372C32.4844 43.3673 34.368 43.0827 36.1843 42.4109C39.2559 41.2749 41.7826 39.4117 43.7515 36.8243C45.5317 34.4849 46.6025 31.8501 46.9482 28.9345C46.9549 28.8787 46.9574 28.8226 46.9667 28.7015C46.8218 28.7934 46.7155 28.8517 46.6193 28.9232C45.32 29.8896 44.0258 30.8634 42.7189 31.8197C42.5278 31.9595 42.2577 32.1217 42.0565 32.0872C41.8074 32.0443 41.5301 31.8517 41.3777 31.6429C41.1849 31.3796 41.2647 31.0551 41.4978 30.8072C41.6066 30.6916 41.736 30.593 41.8637 30.4977C43.641 29.1712 45.4192 27.8463 47.1977 26.5218C47.8262 26.0538 48.1983 26.1066 48.6739 26.7319C49.9954 28.469 51.3161 30.2065 52.6343 31.9457C52.7649 32.118 52.8783 32.3035 52.9997 32.4823V32.9175V32.9183Z" fill="white"/>
<path id="Vector_2" d="M14.0386 25.3188C15.4022 24.3021 16.6863 23.3437 17.9722 22.3874C18.1591 22.2484 18.3439 22.1003 18.5485 21.9918C18.9102 21.7996 19.2966 21.8878 19.5348 22.1873C19.7743 22.4885 19.7495 22.9215 19.4621 23.2181C19.3517 23.3321 19.2193 23.4269 19.0908 23.5226C17.3357 24.8312 15.5799 26.1387 13.8244 27.4461C13.1414 27.9544 12.8036 27.9082 12.2874 27.231C10.9822 25.5172 9.67872 23.8021 8.37482 22.0875C8.33072 22.0296 8.28703 21.9714 8.2446 21.9123C7.89426 21.4231 7.92157 20.9714 8.31811 20.6852C8.68987 20.4173 9.15447 20.5151 9.50019 20.9572C9.97529 21.565 10.4361 22.184 10.9032 22.7979C11.3934 23.4423 11.8841 24.0866 12.4214 24.7926C12.5596 24.1074 12.6646 23.5014 12.8049 22.9036C13.7425 18.904 15.8533 15.6161 19.0488 13.0283C21.7158 10.8681 24.7811 9.57106 28.2105 9.15841C28.907 9.0748 29.6102 9.03903 30.3113 9.00201C30.8691 8.97247 31.2443 9.27156 31.277 9.73454C31.3094 10.193 30.9729 10.5407 30.41 10.5607C28.4957 10.6289 26.6273 10.918 24.8248 11.5856C21.7381 12.7283 19.2038 14.6057 17.2253 17.2059C15.5286 19.436 14.4789 21.9431 14.0785 24.7114C14.0617 24.8263 14.05 24.9419 14.0395 25.0571C14.0344 25.1129 14.0386 25.1694 14.0386 25.3188Z" fill="white"/>
<path id="Vector_3" d="M31.5391 36.0308V38.6856C31.5391 38.7189 31.5118 38.7459 31.4782 38.7459H29.7194C29.6857 38.7459 29.6584 38.7189 29.6584 38.6856V36.1127C29.6584 36.0799 29.6316 36.0537 29.5988 36.0533C27.8908 36.037 26.2991 35.6514 24.823 34.8977C24.8024 34.8873 24.7894 34.8661 24.7894 34.8428V31.4688C24.7894 31.4188 24.8449 31.391 24.8852 31.4209C25.3809 31.7924 26.0921 32.1377 27.0179 32.4567C27.9777 32.7874 28.8364 32.9813 29.5933 33.0391C29.629 33.042 29.6589 33.0133 29.6589 32.9775V28.4417C29.6589 28.4167 29.6425 28.3943 29.619 28.3855C27.6312 27.6505 26.2727 26.8535 25.5434 25.9957C25.1553 25.5394 24.8696 25.0302 24.6865 24.4678C23.9736 22.2781 24.8965 19.828 26.8872 18.6416C27.6556 18.1836 28.5612 17.9008 29.6047 17.7922C29.6353 17.7889 29.6589 17.7639 29.6589 17.7331V15.4744C29.6589 15.4411 29.6862 15.4141 29.7198 15.4141H31.4786C31.5122 15.4141 31.5395 15.4411 31.5395 15.4744V17.6791C31.5395 17.7111 31.5656 17.7373 31.5979 17.739C33.3588 17.8267 34.6816 18.1088 35.5655 18.5859C35.5856 18.5967 35.5974 18.6175 35.5974 18.64V21.9428C35.5974 21.9894 35.5474 22.0173 35.5067 21.9936C34.3452 21.3139 33.0463 20.8917 31.6088 20.7286C31.5723 20.7244 31.5395 20.7531 31.5395 20.7898V25.514C31.5395 25.5394 31.5559 25.5619 31.5798 25.5706C33.4395 26.2387 34.7741 27.0016 35.5839 27.8589C36.4001 28.7221 36.808 29.7657 36.808 30.99C36.808 32.4018 36.3531 33.5395 35.4428 34.4022C34.5422 35.2562 33.2589 35.7796 31.5937 35.9717C31.5635 35.9751 31.5399 36.0004 31.5399 36.0308H31.5391ZM29.6584 24.7162V20.8472C29.6584 20.8089 29.6211 20.7794 29.5828 20.7868C28.4394 21.0115 27.8681 21.6234 27.8681 22.6221C27.8681 23.4757 28.4344 24.1916 29.5673 24.7703C29.608 24.7911 29.6584 24.7615 29.6584 24.7162ZM31.5391 29.2221V32.9205C31.5391 32.958 31.5752 32.9875 31.6126 32.9808C32.7917 32.7816 33.3811 32.1772 33.3811 31.1688C33.3811 30.3556 32.7968 29.6884 31.6277 29.1667C31.5874 29.1488 31.5391 29.178 31.5391 29.2221Z" fill="white"/>
</g>
</g>
<defs>
<filter id="filter0_d_612_4434" x="0" y="0" width="62" height="62" filterUnits="userSpaceOnUse" color-interpolation-filters="sRGB">
<feFlood flood-opacity="0" result="BackgroundImageFix"/>
<feColorMatrix in="SourceAlpha" type="matrix" values="0 0 0 0 0 0 0 0 0 0 0 0 0 0 0 0 0 0 127 0" result="hardAlpha"/>
<feOffset dy="4"/>
<feGaussianBlur stdDeviation="2"/>
<feComposite in2="hardAlpha" operator="out"/>
<feColorMatrix type="matrix" values="0 0 0 0 0 0 0 0 0 0 0 0 0 0 0 0 0 0 0.25 0"/>
<feBlend mode="normal" in2="BackgroundImageFix" result="effect1_dropShadow_612_4434"/>
<feBlend mode="normal" in="SourceGraphic" in2="effect1_dropShadow_612_4434" result="shape"/>
</filter>
</defs>
</svg>
