<svg width="36" height="36" viewBox="0 0 36 36" fill="none" xmlns="http://www.w3.org/2000/svg">
<g id="icono busqueda" filter="url(#filter0_d_1811_22791)">
<path id="Ellipse 6" d="M31.0407 13.9309C31.0407 21.0995 25.2285 26.9109 18.0585 26.9109C10.8885 26.9109 5.07617 21.0995 5.07617 13.9309C5.07617 6.76235 10.8885 0.950928 18.0585 0.950928C25.2285 0.950928 31.0407 6.76235 31.0407 13.9309Z" stroke="white"/>
<path id="Union" fill-rule="evenodd" clip-rule="evenodd" d="M15.6471 16.5424C12.8089 16.549 10.5807 14.3525 10.5674 11.5255C10.5542 8.69185 12.7624 6.45547 15.5874 6.4422C18.419 6.42893 20.6538 8.63212 20.6671 11.4591C20.6803 14.2994 18.4787 16.5225 15.6537 16.5358L15.6471 16.5424ZM19.7121 11.5122C19.7254 9.25592 17.8752 7.3978 15.6338 7.39117C13.3792 7.39117 11.529 9.22274 11.5157 11.479C11.4958 13.722 13.3526 15.5868 15.6007 15.5934C17.8686 15.5934 19.7055 13.7751 19.7121 11.5122ZM18.8184 16.1232L18.8213 16.1202C19.0801 16.4342 19.3394 16.7495 19.5994 17.0657L19.6004 17.0669C20.6251 18.313 21.6609 19.5724 22.7176 20.815C23.3609 21.5715 24.4153 21.6047 25.0718 20.961C25.715 20.3305 25.7349 19.2754 25.0253 18.6649C23.9126 17.7051 22.7771 16.7683 21.6553 15.8428L21.6552 15.8427C21.1792 15.45 20.7057 15.0594 20.2375 14.6699C19.9892 14.9252 19.7531 15.1665 19.5149 15.41L19.5145 15.4104C19.2894 15.6405 19.0623 15.8726 18.8213 16.1202L18.8184 16.1166V16.1232ZM18.015 8.68578C16.8479 7.697 15.1038 7.50455 14.0362 8.25443V8.26107C16.9407 7.63064 19.2816 9.54848 19.0163 12.7073C19.6397 11.4331 19.202 9.69448 18.015 8.68578Z" fill="white"/>
</g>
<defs>
<filter id="filter0_d_1811_22791" x="0.576172" y="0.450928" width="34.9644" height="34.96" filterUnits="userSpaceOnUse" color-interpolation-filters="sRGB">
<feFlood flood-opacity="0" result="BackgroundImageFix"/>
<feColorMatrix in="SourceAlpha" type="matrix" values="0 0 0 0 0 0 0 0 0 0 0 0 0 0 0 0 0 0 127 0" result="hardAlpha"/>
<feOffset dy="4"/>
<feGaussianBlur stdDeviation="2"/>
<feComposite in2="hardAlpha" operator="out"/>
<feColorMatrix type="matrix" values="0 0 0 0 0 0 0 0 0 0 0 0 0 0 0 0 0 0 0.25 0"/>
<feBlend mode="normal" in2="BackgroundImageFix" result="effect1_dropShadow_1811_22791"/>
<feBlend mode="normal" in="SourceGraphic" in2="effect1_dropShadow_1811_22791" result="shape"/>
</filter>
</defs>
</svg>
