<svg width="62" height="62" viewBox="0 0 62 62" fill="none" xmlns="http://www.w3.org/2000/svg">
<g id="icono Compra" filter="url(#filter0_d_1052_11100)">
<circle id="Ellipse 6" cx="31" cy="27" r="26" stroke="white" stroke-width="2"/>
<g id="Vector" filter="url(#filter1_dd_1052_11100)">
<path d="M36.5587 36.3759H29.5093C30.1286 38.5644 28.8231 40.3006 27.3373 40.7962C25.6242 41.3676 23.8363 40.6128 23.0756 39.0197C22.2915 37.3787 22.8342 35.3328 24.6093 34.3416C24.5012 34.0457 24.394 33.7436 24.2806 33.4438C23.586 31.6066 22.8891 29.7702 22.1941 27.9334C21.2049 25.3193 20.2161 22.7057 19.2286 20.0911C18.9115 19.2518 18.5956 18.4116 18.2873 17.5692C18.2412 17.4434 18.1805 17.4057 18.0507 17.4066C17.1204 17.4119 16.1901 17.4106 15.2603 17.4088C14.761 17.4079 14.365 17.2024 14.1439 16.752C13.9264 16.31 13.9472 15.8622 14.2627 15.4618C14.4815 15.1841 14.765 15.0051 15.1314 15.0047C16.4604 15.002 17.7894 14.9936 19.1179 15.0091C19.595 15.0149 19.9472 15.2788 20.1222 15.7191C20.4814 16.6209 20.8164 17.5324 21.161 18.4399C21.25 18.6738 21.3302 18.9116 21.4317 19.1398C21.4587 19.2009 21.5442 19.2478 21.6133 19.2744C21.6713 19.2965 21.7444 19.2793 21.8109 19.2793C29.4446 19.2793 37.0779 19.2793 44.7116 19.2793C45.4147 19.2793 45.8741 19.6491 45.9879 20.3356C46.0154 20.5026 45.9941 20.6922 45.944 20.8556C45.2729 23.0574 44.592 25.2564 43.9156 27.4564C43.5328 28.7006 43.1487 29.9438 42.7753 31.1907C42.6326 31.6677 42.4089 32.0636 41.8946 32.2054C41.7484 32.2457 41.5898 32.2585 41.4374 32.2585C38.5486 32.2603 35.6603 32.2576 32.7715 32.2568C30.6784 32.2559 28.5852 32.2568 26.4925 32.2568C26.4637 32.2568 26.4349 32.2607 26.3764 32.2647C26.5904 32.8312 26.7995 33.3853 27.0165 33.9607H27.2996C31.4633 33.9607 35.6271 33.9607 39.7908 33.9607C41.5553 33.9607 42.9994 35.1503 43.2834 36.8897C43.52 38.3393 42.945 39.6464 41.7272 40.4432C40.5023 41.2444 38.9611 41.1678 37.7911 40.2979C36.6703 39.4648 36.1529 37.9766 36.5038 36.5947C36.5215 36.5243 36.5388 36.4534 36.5578 36.3763L36.5587 36.3759ZM22.4005 21.7091C22.4129 21.7521 22.4191 21.7795 22.4289 21.8057C22.8572 22.94 23.2883 24.0734 23.7109 25.2099C23.7592 25.3406 23.8278 25.3698 23.9541 25.3694C25.6583 25.3663 27.3625 25.3676 29.0663 25.3663C29.1332 25.3663 29.1996 25.3526 29.2754 25.3446C29.181 24.1115 29.0889 22.9112 28.9972 21.7091H22.4005ZM36.7731 25.3464C36.8334 25.3579 36.8542 25.3658 36.8754 25.3658C38.558 25.3667 40.2409 25.3658 41.9234 25.3698C42.0461 25.3698 42.0842 25.3171 42.1161 25.2113C42.3553 24.4242 42.6016 23.6394 42.8435 22.8532C42.9596 22.4767 43.0703 22.0984 43.1882 21.7056H37.0522C36.9592 22.9201 36.8666 24.1274 36.7731 25.3468V25.3464ZM35.861 21.7122H30.1946C30.2894 22.9373 30.3829 24.1443 30.4768 25.3583H35.5695C35.6661 24.1496 35.7626 22.9409 35.861 21.7122ZM35.2248 29.8398C35.3099 28.7542 35.3941 27.6792 35.4796 26.5892H30.5747C30.6575 27.6827 30.739 28.7595 30.8206 29.8398H35.2248ZM24.2327 26.5817C24.6474 27.6805 25.0558 28.7644 25.4603 29.8362H29.6214C29.5368 28.7435 29.4535 27.6672 29.3697 26.5817H24.2332H24.2327ZM36.4285 29.8517C36.537 29.8517 36.6234 29.8517 36.7098 29.8517C37.9572 29.8508 39.2043 29.8442 40.4518 29.8557C40.6467 29.8575 40.718 29.7928 40.7689 29.6205C40.9838 28.8946 41.2106 28.1717 41.4317 27.4476C41.5181 27.1645 41.6013 26.8802 41.6873 26.5918H36.6734C36.5919 27.6805 36.5117 28.7511 36.4289 29.8517H36.4285ZM39.8714 38.5794C40.4668 38.5807 40.9625 38.0794 40.9612 37.4765C40.9599 36.8653 40.4544 36.3599 39.8497 36.3648C39.2561 36.3697 38.779 36.8684 38.7772 37.4858C38.7759 38.0935 39.2605 38.5781 39.871 38.5794H39.8714ZM26.1904 38.5794C26.795 38.5834 27.2775 38.1015 27.2841 37.4863C27.2908 36.8759 26.8114 36.3746 26.2121 36.3648C25.6193 36.3551 25.1103 36.856 25.1046 37.4544C25.0984 38.0807 25.5755 38.5754 26.1904 38.5794Z" fill="white"/>
</g>
</g>
<defs>
<filter id="filter0_d_1052_11100" x="0" y="0" width="62" height="62" filterUnits="userSpaceOnUse" color-interpolation-filters="sRGB">
<feFlood flood-opacity="0" result="BackgroundImageFix"/>
<feColorMatrix in="SourceAlpha" type="matrix" values="0 0 0 0 0 0 0 0 0 0 0 0 0 0 0 0 0 0 127 0" result="hardAlpha"/>
<feOffset dy="4"/>
<feGaussianBlur stdDeviation="2"/>
<feComposite in2="hardAlpha" operator="out"/>
<feColorMatrix type="matrix" values="0 0 0 0 0 0 0 0 0 0 0 0 0 0 0 0 0 0 0.25 0"/>
<feBlend mode="normal" in2="BackgroundImageFix" result="effect1_dropShadow_1052_11100"/>
<feBlend mode="normal" in="SourceGraphic" in2="effect1_dropShadow_1052_11100" result="shape"/>
</filter>
<filter id="filter1_dd_1052_11100" x="10" y="15" width="40" height="34" filterUnits="userSpaceOnUse" color-interpolation-filters="sRGB">
<feFlood flood-opacity="0" result="BackgroundImageFix"/>
<feColorMatrix in="SourceAlpha" type="matrix" values="0 0 0 0 0 0 0 0 0 0 0 0 0 0 0 0 0 0 127 0" result="hardAlpha"/>
<feOffset dy="4"/>
<feGaussianBlur stdDeviation="2"/>
<feComposite in2="hardAlpha" operator="out"/>
<feColorMatrix type="matrix" values="0 0 0 0 0 0 0 0 0 0 0 0 0 0 0 0 0 0 0.25 0"/>
<feBlend mode="normal" in2="BackgroundImageFix" result="effect1_dropShadow_1052_11100"/>
<feColorMatrix in="SourceAlpha" type="matrix" values="0 0 0 0 0 0 0 0 0 0 0 0 0 0 0 0 0 0 127 0" result="hardAlpha"/>
<feOffset dy="4"/>
<feGaussianBlur stdDeviation="2"/>
<feComposite in2="hardAlpha" operator="out"/>
<feColorMatrix type="matrix" values="0 0 0 0 0 0 0 0 0 0 0 0 0 0 0 0 0 0 0.25 0"/>
<feBlend mode="normal" in2="effect1_dropShadow_1052_11100" result="effect2_dropShadow_1052_11100"/>
<feBlend mode="normal" in="SourceGraphic" in2="effect2_dropShadow_1052_11100" result="shape"/>
</filter>
</defs>
</svg>
