<svg width="426" height="550" viewBox="0 0 426 550" fill="none" xmlns="http://www.w3.org/2000/svg">
<path d="M190.546 169.003C183.004 182.561 176.046 195.044 169.106 207.546C169.54 207.81 169.955 208.074 170.389 208.319C178.799 196.911 187.586 185.767 195.487 174C199.409 168.155 203.991 166.665 210.628 166.288C218.699 165.817 222.98 168.174 226.11 175.943C231.427 189.104 238.14 201.7 245.456 214.183C242.194 199.343 238.951 184.503 235.255 167.702C241.289 170.04 246.267 171.417 250.736 173.793C277.984 188.218 300.065 209.073 320.769 231.418C358.331 271.96 389.69 316.65 410.243 368.298C420.596 394.282 427.007 421.115 425.385 449.381C423.65 479.627 411.488 504.8 388.521 524.599C379.734 532.18 368.684 534.838 357.785 537.422C328.708 544.304 299.047 546.756 269.31 548.358C226.298 550.678 183.268 550.772 140.35 547.076C118.269 545.191 96.3015 541.702 74.3337 538.572C39.2983 533.575 18.9898 511.06 7.11024 479.834C-3.29855 452.492 -1.1112 424.528 6.18627 396.828C16.1236 359.077 34.4145 325.286 56.552 293.513C84.667 253.122 117.119 216.691 156.529 186.879C166.391 179.431 176.31 171.813 190.546 169.041V169.003ZM205.556 439.556C195.298 436.917 188.17 431.618 183.928 422.925C181.514 418.003 179.742 412.761 177.912 407.595C174.311 397.45 166.995 393 157.302 395.244C148.081 397.374 141.991 405.69 144.404 415.59C146.479 424.094 149.628 432.9 154.493 440.066C165.279 455.943 181.627 463.617 200.295 466.37C204.444 466.993 205.782 468.52 205.65 472.593C205.462 478.891 205.688 485.227 205.971 491.525C206.197 496.748 208.667 499.86 214.362 499.822C220.057 499.803 221.773 496.126 222.037 491.487C222.376 485.585 222.584 479.645 222.263 473.762C221.999 468.878 222.923 466.182 228.599 466.106C232.389 466.05 236.217 464.786 239.932 463.712C279.379 452.473 296.35 405.728 272.459 374.275C263.483 362.452 250.755 356.871 237.084 352.703C222.32 348.197 222.357 348.084 222.357 332.565C222.357 319.799 222.357 307.052 222.357 294.399C223.451 294.211 223.866 294.022 224.224 294.097C224.809 294.192 225.393 294.418 225.959 294.644C235.764 298.755 240.987 306.505 244.023 316.386C247.191 326.7 255.3 331.377 264.539 328.888C273.93 326.361 279.04 317.687 276.061 307.259C270.686 288.478 258.505 275.882 239.63 270.263C234.199 268.641 228.561 267.736 222.282 266.322C222.282 261.117 222.376 255.856 222.263 250.595C222.15 246.07 220.34 242.657 215.437 241.846C210.251 240.979 206.574 243.751 206.046 249.728C205.556 255.31 205.933 260.985 205.933 265.153C194.94 268.717 185.003 270.734 176.197 275.052C157.547 284.217 149.42 300.565 149.1 320.855C148.779 341.333 156.963 357.38 175.669 366.77C183.626 370.768 192.187 373.71 200.691 376.481C204.576 377.745 205.764 379.498 205.688 383.364C205.481 394.169 205.613 404.974 205.613 415.778C205.613 423.472 205.613 431.165 205.613 439.481L205.556 439.556Z" fill="white"/>
<path d="M272.095 73.2335C279.6 63.2019 287.105 53.1891 295.364 42.158C301.153 47.4944 306.885 51.7937 311.392 57.1489C321.819 69.4811 321.329 82.3978 310.713 94.6357C293.214 114.812 275.678 134.932 258.273 155.165C255.859 157.975 253.88 159.125 250.052 157.466C245.451 155.486 240.416 154.505 235.004 152.94C240.02 140.721 244.847 128.955 249.675 117.169C249.354 116.981 249.052 116.792 248.732 116.622C241.736 126.673 234.552 136.61 227.858 146.849C225.425 150.564 223.03 151.695 218.505 151.318C201.628 149.866 184.62 148.49 168.931 158.446C159.691 147.547 150.602 136.855 141.532 126.145C131.256 114.02 121.054 101.839 110.664 89.7895C105.554 83.8686 104.536 77.3631 107.874 70.5182C115.548 54.8296 129.087 46.5139 145.398 40.7815C153.695 57.1489 161.671 72.8941 169.647 88.6582C170.025 88.545 170.383 88.413 170.76 88.2999C168.912 81.9452 167.14 75.5717 165.216 69.236C160.691 54.2262 156.241 39.1787 151.451 24.2632C150.074 20.0205 151.112 17.3806 154.487 14.9104C165.028 7.1792 177.228 4.03016 189.805 2.27651C218.373 -1.72107 246.733 -0.778247 274.509 7.70718C279.713 9.29113 284.597 11.9876 289.556 14.3258C293.044 15.9852 293.799 18.2668 292.083 22.1701C285.558 37.0856 279.43 52.1897 273.189 67.2372C272.434 69.0285 271.793 70.8765 271.114 72.6867C271.435 72.8753 271.774 73.0638 272.095 73.2335Z" fill="white"/>
<path d="M222.562 440.49V383.977C238.647 385.749 250.3 397.27 250.357 411.224C250.414 426.328 238.892 438.736 222.562 440.49Z" fill="white"/>
<path d="M205.179 342.884C188.963 338.679 181.081 329.382 181.986 316.107C182.797 304.247 191.641 295.591 205.179 293.781V342.902V342.884Z" fill="white"/>
</svg>
