<svg width="16" height="16" viewBox="0 0 16 16" fill="none" xmlns="http://www.w3.org/2000/svg">
<path id="Union" fill-rule="evenodd" clip-rule="evenodd" d="M5.73077 14.8031C6.38349 14.9585 7.03875 15.0512 7.68642 15.0462L7.68136 15.0487C9.35365 15.0086 10.8691 14.5373 12.1594 13.5171C14.5426 11.6346 15.5191 9.18304 15.0283 6.18252C14.9423 5.65862 14.7905 5.15477 14.5957 4.66095C14.5046 4.42532 14.3149 4.33508 14.1074 4.42031C13.9126 4.50052 13.8468 4.69855 13.9379 4.92416C14.1783 5.51323 14.3604 6.11233 14.4211 6.75405C14.5223 7.81187 14.4237 8.83962 14.0543 9.83729C12.9968 12.6874 10.3024 14.5022 7.24368 14.3218C4.4329 14.1563 2.39882 12.7425 1.273 10.1957C0.311617 8.01742 0.524132 5.85665 1.81188 3.84628C2.82386 2.26706 4.28364 1.27942 6.1305 0.873333C7.51944 0.570023 8.87802 0.697864 10.1987 1.22678C10.2518 1.24934 10.31 1.26939 10.3656 1.27691C10.5402 1.29947 10.7021 1.18166 10.7451 1.0112C10.7907 0.825706 10.6971 0.665277 10.4871 0.582556C8.28096 -0.279748 6.11026 -0.19452 4.0104 0.903414C1.09084 2.42999 -0.462548 5.66113 0.12187 8.87973C0.63798 11.7148 2.84157 14.1212 5.73077 14.8031ZM7.88964 7.37229C7.75464 7.55635 7.6179 7.74279 7.47834 7.93425V7.93174C7.41778 7.87037 7.35815 7.80974 7.29915 7.74975C7.14127 7.58922 6.98791 7.43328 6.8332 7.28L6.83298 7.27977C6.30682 6.75846 5.77814 6.23463 5.24946 5.71331C5.20469 5.66843 5.16015 5.62333 5.11563 5.57824C4.94876 5.40926 4.78206 5.24045 4.60432 5.08413C4.21724 4.74322 3.63282 4.70562 3.2002 4.97384C2.52217 5.39496 2.43615 6.27983 3.02057 6.8689C3.30065 7.15142 3.58411 7.4306 3.86718 7.7094C4.00857 7.84866 4.14987 7.98782 4.29061 8.12726C4.50775 8.34241 4.72471 8.55809 4.94178 8.77388C5.53908 9.36765 6.1372 9.96224 6.74213 10.5487C7.32401 11.1127 8.19685 11.0125 8.67754 10.3557C10.1115 8.38616 11.548 6.4191 12.9845 4.45204L12.986 4.44994C13.1792 4.18492 13.3727 3.91991 13.5663 3.65477C13.9001 3.19764 14.2342 2.74014 14.5673 2.28164C14.8759 1.8555 14.9012 1.33662 14.6406 0.923013C14.1827 0.19607 13.1277 0.178524 12.6065 0.900453C11.6117 2.28183 10.6068 3.65573 9.60165 5.03006C9.18042 5.60597 8.75914 6.18196 8.33852 6.75861C8.1901 6.96263 8.04097 7.16596 7.88964 7.37229Z" fill="#43C840"/>
</svg>
