<svg width="47" height="47" viewBox="0 0 47 47" fill="none" xmlns="http://www.w3.org/2000/svg">
<g id="Icono planes de trading">
<path id="Vector" d="M23.5 46C35.9264 46 46 35.9264 46 23.5C46 11.0736 35.9264 1 23.5 1C11.0736 1 1 11.0736 1 23.5C1 35.9264 11.0736 46 23.5 46Z" stroke="white" stroke-width="2" stroke-miterlimit="10"/>
<path id="Union" fill-rule="evenodd" clip-rule="evenodd" d="M7.82812 23.4996C7.82812 14.8445 14.8445 7.82812 23.4996 7.82812C32.1547 7.82812 39.171 14.8445 39.171 23.4996C39.171 32.1547 32.1547 39.171 23.4996 39.171C14.8445 39.171 7.82812 32.1547 7.82812 23.4996ZM23.4996 6.82812C14.2922 6.82812 6.82812 14.2922 6.82812 23.4996C6.82812 32.707 14.2922 40.171 23.4996 40.171C32.707 40.171 40.171 32.707 40.171 23.4996C40.171 14.2922 32.707 6.82812 23.4996 6.82812ZM24.5045 21.8246C23.7291 22.002 22.9406 21.9954 22.1521 21.9757H22.1586C21.8301 21.9691 21.8301 21.9691 21.8301 21.6406C21.8366 21.1017 21.8416 20.5645 21.8465 20.0272C21.8514 19.4901 21.8564 18.953 21.8629 18.4142L21.8629 18.401C21.8625 18.3295 21.8623 18.2827 21.9615 18.2827L22.1529 18.2808H22.1529H22.1529C22.826 18.2738 23.5032 18.2667 24.1694 18.3747C24.6096 18.447 25.0302 18.5587 25.4113 18.7953C25.9567 19.137 26.1867 19.6364 26.1539 20.2672C26.1144 20.9112 25.7596 21.3252 25.201 21.5946C24.9776 21.6997 24.7411 21.7654 24.5045 21.8246ZM26.1281 24.4274C25.7273 24.1777 25.2804 24.0528 24.8205 23.9674C23.9531 23.8033 23.0805 23.8117 22.2074 23.8201H22.2074C22.1015 23.8211 21.9956 23.8221 21.8898 23.8229C21.8083 23.8229 21.8093 23.8589 21.8106 23.9082C21.8107 23.9146 21.8109 23.9212 21.8109 23.928L21.7715 27.7787C21.7715 27.8641 21.7978 27.8904 21.8766 27.8904C22.0408 27.8904 22.2033 27.8936 22.3659 27.8969L22.3662 27.8969C22.5288 27.9002 22.6914 27.9035 22.8557 27.9035C23.6048 27.9035 24.3474 27.8706 25.1162 27.6998C25.3987 27.6275 25.7076 27.5355 26.0033 27.3778C26.5815 27.0755 26.9429 26.6221 26.9626 25.9453C26.9824 25.2816 26.7064 24.7757 26.1413 24.4274H26.1281ZM8.89258 23.4982C8.89258 15.4289 15.4308 8.89062 23.5001 8.89062C31.5694 8.89062 38.1076 15.4289 38.1076 23.4982C38.1076 31.5674 31.5694 38.1057 23.5001 38.1057C15.4308 38.1057 8.89258 31.5674 8.89258 23.4982ZM28.3627 29.491C29.1841 29.1361 29.8281 28.5907 30.2092 27.7628H30.2026C30.5509 27.0071 30.6494 26.1989 30.6034 25.3775C30.5377 24.2013 30.0121 23.3207 28.9278 22.8016C28.6321 22.6636 28.3233 22.5585 28.0079 22.4731C28.0227 22.4435 28.0448 22.4324 28.0689 22.4204C28.0769 22.4164 28.0851 22.4123 28.0933 22.4074C29.0395 21.8948 29.5389 21.0997 29.5981 20.0352C29.6441 19.2729 29.5324 18.5436 29.0855 17.8996C28.6847 17.3213 28.1196 16.9665 27.4822 16.7168C26.7725 16.4408 26.0365 16.3028 25.2874 16.2305C25.1889 16.224 25.1494 16.1977 25.1494 16.0794C25.1613 15.5277 25.166 14.9737 25.1707 14.4201C25.1739 14.0506 25.177 13.6812 25.1823 13.313C25.1823 13.2144 25.1626 13.1815 25.0575 13.1815C24.8012 13.1815 24.5433 13.1783 24.2853 13.175C24.0274 13.1717 23.7695 13.1684 23.5132 13.1684C23.4245 13.1651 23.3802 13.1635 23.358 13.1848C23.3358 13.2062 23.3358 13.2506 23.3358 13.3393C23.3336 13.6296 23.3307 13.9206 23.3278 14.2119C23.322 14.7975 23.3161 15.384 23.3161 15.9677C23.3161 16.0728 23.2964 16.1122 23.1781 16.1122C22.7707 16.1057 22.3633 16.1057 21.9559 16.1122C21.8508 16.1188 21.8376 16.086 21.8376 15.994C21.8508 15.1003 21.8573 14.2132 21.8639 13.3195C21.8705 13.1421 21.8705 13.1421 21.6865 13.1421C21.5195 13.1399 21.3519 13.1385 21.184 13.137C20.8495 13.1341 20.5142 13.1312 20.1817 13.1224C20.0503 13.1224 20.0174 13.1553 20.0174 13.2867C20.0174 13.7401 20.0125 14.1951 20.0076 14.6502C20.0026 15.1052 19.9977 15.5603 19.9977 16.0137C19.9977 16.132 19.9583 16.1582 19.8466 16.1582C19.1895 16.1451 18.5258 16.1385 17.8687 16.1385C17.6256 16.1385 17.3808 16.1352 17.136 16.132C16.8912 16.1287 16.6465 16.1254 16.4033 16.1254C16.3963 16.1254 16.3889 16.125 16.3814 16.1247C16.3327 16.1224 16.2785 16.1198 16.2785 16.2108C16.2785 16.8089 16.272 17.4006 16.2655 17.9986L16.2653 18.0179C16.2653 18.077 16.2785 18.0967 16.3442 18.0967H16.6859C16.7676 18.0967 16.8494 18.0958 16.931 18.0949C17.2302 18.0916 17.5285 18.0883 17.8227 18.1296C18.3484 18.1953 18.6572 18.5633 18.6572 19.0758C18.6506 19.9071 18.6424 20.7383 18.6342 21.5695C18.626 22.4008 18.6178 23.232 18.6112 24.0633C18.6046 24.5717 18.5997 25.0818 18.5947 25.5928C18.5898 26.0987 18.5849 26.6055 18.5784 27.1122C18.5718 27.5394 18.3484 27.7891 17.9344 27.8219C17.6289 27.8454 17.32 27.8353 17.0126 27.8252C16.8902 27.8212 16.7681 27.8172 16.6465 27.8154C16.561 27.8154 16.5282 27.8351 16.515 27.9205C16.4033 28.5776 16.2851 29.2347 16.1668 29.8853C16.1471 29.9838 16.1602 30.0167 16.2719 30.0167C17.0342 30.021 17.7965 30.0313 18.5588 30.0415C18.9398 30.0466 19.3209 30.0517 19.702 30.0561C19.8137 30.0561 19.8597 30.0692 19.8597 30.2072C19.8479 30.7632 19.8432 31.3191 19.8384 31.875C19.8353 32.2456 19.8321 32.6162 19.8269 32.9868C19.8203 33.0985 19.8532 33.1248 19.9583 33.1248C20.4774 33.1248 21.0031 33.1248 21.5288 33.1379C21.6339 33.1379 21.6668 33.1182 21.6668 33.0065C21.6694 32.639 21.6741 32.2704 21.6788 31.9017C21.6859 31.3473 21.6931 30.7925 21.6931 30.2401C21.6931 30.1349 21.7193 30.1087 21.8245 30.1087L21.844 30.1093C22.2447 30.1222 22.6391 30.1349 23.0336 30.1349C23.1387 30.1349 23.1716 30.1612 23.1716 30.2729C23.165 30.7329 23.1601 31.1945 23.1551 31.6562C23.1502 32.1178 23.1453 32.5794 23.1387 33.0394C23.1387 33.1379 23.165 33.1576 23.257 33.1576C23.431 33.1599 23.6057 33.1613 23.781 33.1628C24.1285 33.1657 24.478 33.1686 24.8275 33.1774C24.9523 33.1839 24.9852 33.1511 24.9852 33.0262C24.9878 32.6525 24.9925 32.2799 24.9973 31.9074C25.0044 31.3499 25.0115 30.7929 25.0115 30.2335C25.0115 30.1415 25.0377 30.1087 25.1232 30.1087C25.196 30.1038 25.2688 30.0994 25.3415 30.0949C25.5641 30.0813 25.7857 30.0677 26.0037 30.043C26.8119 29.9575 27.607 29.813 28.3627 29.491Z" fill="#FEFEFD"/>
</g>
</svg>
