<svg width="42" height="45" viewBox="0 0 42 45" fill="none" xmlns="http://www.w3.org/2000/svg">
<g clip-path="url(#clip0_639_1747)">
<path d="M23.1183 45.0007C30.5667 44.742 36.7823 41.633 41.3667 35.4519C42.037 34.5464 42.2948 33.5948 41.5308 32.6062C40.898 31.7885 39.998 31.5483 39.1167 31.9456C38.5167 32.2181 38.0152 32.8094 37.5933 33.3499C31.4011 41.3281 20.287 43.1621 12.1261 37.3505C5.98079 32.9711 3.33704 26.8593 4.60735 19.5095C5.91048 11.9794 10.5699 6.94402 18.0699 5.00376C25.4339 3.10047 31.7995 5.21165 36.8761 10.8661C37.2839 11.3234 37.6261 11.8362 38.0152 12.312C38.8683 13.3468 40.0589 13.5871 41.0292 12.9357C42.0792 12.2335 42.3136 11.0093 41.5167 9.84053C39.4542 6.8239 36.7964 4.41245 33.5105 2.76785C25.8183 -1.08031 18.1167 -0.987921 10.7808 3.49776C3.3886 8.01577 -0.230148 14.8298 0.00891495 23.3853C0.346416 35.4565 10.5886 45.0423 23.1183 45.0053V45.0007Z" fill="white"/>
<path d="M18.882 24.6686C20.0257 24.6686 20.8086 24.6686 21.5914 24.6686C27.0195 24.6686 32.4523 24.6779 37.8804 24.6779C38.307 24.6779 38.7382 24.6686 39.1601 24.6132C40.3648 24.4515 41.0539 23.7771 41.1054 22.5667C41.1523 21.4118 40.3695 20.5803 39.1039 20.4139C38.7289 20.3631 38.3445 20.3816 37.9648 20.3816C32.2507 20.3816 26.532 20.3816 20.8179 20.3816H18.882C20.3679 18.8941 21.5492 17.7068 22.7398 16.5288C24.1179 15.166 25.5242 13.8263 26.8789 12.4451C27.882 11.4195 27.9148 10.1953 27.0429 9.30831C26.1945 8.43982 24.8632 8.4352 23.8601 9.41457C19.932 13.2443 16.0226 17.0924 12.1367 20.9637C11.1523 21.9431 11.1289 23.1118 12.1226 24.1004C16.0414 28.004 19.9882 31.8799 23.9586 35.7373C24.8961 36.6474 26.2039 36.5966 27.0289 35.765C27.9148 34.8781 27.9007 33.6585 26.8836 32.6329C24.5539 30.2815 22.182 27.9717 19.8289 25.648C19.6086 25.4309 19.3976 25.1999 18.8867 24.6779L18.882 24.6686Z" fill="white"/>
</g>
<defs>
<clipPath id="clip0_639_1747">
<rect width="42" height="45" fill="white" transform="matrix(-1 0 0 1 42 0)"/>
</clipPath>
</defs>
</svg>
