<svg width="130" height="104" viewBox="0 0 130 104" fill="none" xmlns="http://www.w3.org/2000/svg">
<path d="M36.4396 46.4632C36.4396 42.5542 36.0769 38.7038 36.5409 34.9548C37.0103 31.2057 40.3226 28.4646 44.0937 28.2352C49.9556 27.8779 54.4947 24.9982 58.2497 20.8758C61.7274 17.0574 65.7864 15.1162 70.9283 15.2335C75.5207 15.3402 80.1238 15.2015 84.7109 15.4309C88.5193 15.6228 91.5543 17.5747 94.0398 20.4225C96.8134 23.6063 100.2 25.9314 104.153 27.3766C105.374 27.8246 106.724 28.0379 108.031 28.1126C113.087 28.3952 117.125 32.3843 117.151 37.4506C117.21 47.5138 117.226 57.5771 117.151 67.6457C117.109 73.2932 112.458 78.0502 106.974 78.0715C91.4423 78.1195 75.9048 78.0822 60.3726 78.0769C60.1699 78.0769 59.9672 78.0502 59.6045 78.0289C61.6047 70.2161 60.5753 62.91 55.7375 56.4145C50.9263 49.9563 44.2963 46.7885 36.4502 46.4579L36.4396 46.4632ZM95.7413 47.5138C95.672 37.5572 87.4045 29.0672 76.7422 29.4085C66.5332 29.7338 58.6337 38.3465 59.0658 48.4951C59.5085 58.9316 67.9306 66.4991 78.6517 66.0885C88.0606 65.7311 96.1307 56.9585 95.7413 47.5138ZM105.94 43.4768C108.244 43.5034 110.052 41.7756 110.1 39.5037C110.148 37.1892 108.308 35.2587 106.02 35.2374C103.742 35.2107 101.817 37.1359 101.827 39.4238C101.838 41.6796 103.635 43.4501 105.94 43.4768Z" fill="#1F222B" stroke="#1F222B" stroke-width="30" stroke-miterlimit="10"/>
<path d="M15.905 70.792C16.0011 59.4968 25.1753 50.6762 36.7124 50.7882C47.5081 50.8895 56.453 60.2861 56.3196 71.3733C56.1863 82.2205 46.9694 91.2385 36.0404 91.2011C24.9086 91.1638 15.809 81.9378 15.905 70.792ZM32.2 67.0536C30.9305 67.0536 29.9117 67.0483 28.893 67.0536C26.2261 67.0803 24.5192 68.5682 24.4819 70.8986C24.4445 73.2451 26.0767 74.781 28.7596 74.8824C29.8637 74.925 30.9679 74.8877 32.1946 74.8877C32.1946 76.1676 32.184 77.2342 32.1946 78.2954C32.2266 80.8179 33.7628 82.5671 35.987 82.6364C38.2539 82.7058 39.9501 80.9192 40.0194 78.3648C40.0461 77.2608 40.0194 76.1516 40.0194 74.8664C41.4435 74.8664 42.665 74.9357 43.8758 74.8504C46.2227 74.6904 47.7695 73.0798 47.7375 70.9306C47.7055 68.7388 46.0093 67.1229 43.6464 67.0589C42.489 67.0269 41.3262 67.0589 40.0194 67.0589C40.0194 65.6457 40.0887 64.4245 40.0034 63.2139C39.8381 60.8514 38.2539 59.3368 36.0777 59.3688C33.7575 59.4062 32.264 60.9367 32.2 63.3952C32.168 64.5578 32.1946 65.7204 32.1946 67.0589L32.2 67.0536Z" fill="#1F222B" stroke="#1F222B" stroke-width="30" stroke-miterlimit="10"/>
<path d="M77.3678 60.6005C70.2364 60.5899 64.5238 54.905 64.4865 47.7748C64.4492 40.6927 70.3644 34.8158 77.4958 34.8478C84.5098 34.8798 90.3184 40.762 90.313 47.8281C90.3077 54.8783 84.4938 60.6112 77.3731 60.6005H77.3678Z" fill="#1F222B" stroke="#1F222B" stroke-width="30" stroke-miterlimit="10"/>
<path d="M36.4122 46.3402C36.4122 42.4311 36.0495 38.5807 36.5136 34.8317C36.983 31.0826 40.2953 28.3415 44.0663 28.1122C49.9282 27.7549 54.4673 24.8751 58.2224 20.7527C61.7 16.9344 65.7591 14.9932 70.9009 15.1105C75.4934 15.2171 80.0965 15.0785 84.6836 15.3078C88.492 15.4998 91.527 17.4516 94.0125 20.2994C96.7861 23.4832 100.173 25.8084 104.125 27.2536C105.347 27.7016 106.696 27.9149 108.003 27.9895C113.06 28.2722 117.097 32.2612 117.124 37.3275C117.183 47.3907 117.199 57.454 117.124 67.5226C117.081 73.1702 112.43 77.9272 106.947 77.9485C91.4149 77.9965 75.8774 77.9592 60.3453 77.9538C60.1426 77.9538 59.9399 77.9272 59.5772 77.9058C61.5774 70.0931 60.548 62.7869 55.7101 56.2914C50.899 49.8332 44.269 46.6655 36.4229 46.3348L36.4122 46.3402ZM95.714 47.3908C95.6447 37.4342 87.3772 28.9441 76.7149 29.2854C66.5059 29.6108 58.6064 38.2234 59.0385 48.372C59.4812 58.8086 67.9033 66.376 78.6244 65.9654C88.0333 65.6081 96.1034 56.8354 95.714 47.3908ZM105.912 43.3537C108.217 43.3804 110.025 41.6525 110.073 39.3807C110.121 37.0662 108.281 35.1357 105.992 35.1143C103.715 35.0877 101.789 37.0129 101.8 39.3007C101.811 41.5565 103.608 43.3271 105.912 43.3537Z" fill="#2E8E9E"/>
<path d="M15.8777 70.669C15.9737 59.3738 25.1479 50.5531 36.6851 50.6651C47.4808 50.7664 56.4256 60.1631 56.2923 71.2503C56.159 82.0975 46.942 91.1155 36.013 91.0781C24.8812 91.0408 15.7817 81.8148 15.8777 70.669ZM32.1726 66.9306C30.9032 66.9306 29.8844 66.9252 28.8656 66.9306C26.1987 66.9572 24.4919 68.4451 24.4545 70.7756C24.4172 73.1221 26.0494 74.658 28.7323 74.7593C29.8364 74.802 30.9405 74.7647 32.1673 74.7647C32.1673 76.0446 32.1566 77.1112 32.1673 78.1724C32.1993 80.6949 33.7354 82.4441 35.9597 82.5134C38.2265 82.5828 39.9227 80.7962 39.992 78.2417C40.0187 77.1378 39.992 76.0286 39.992 74.7433C41.4162 74.7433 42.6376 74.8127 43.8484 74.7273C46.1953 74.5673 47.7422 72.9568 47.7101 70.8076C47.6781 68.6158 45.982 66.9999 43.6191 66.9359C42.4616 66.9039 41.2988 66.9359 39.992 66.9359C39.992 65.5227 40.0614 64.3014 39.9761 63.0909C39.8107 60.7284 38.2265 59.2138 36.0503 59.2458C33.7301 59.2832 32.2366 60.8137 32.1726 63.2722C32.1406 64.4348 32.1673 65.5973 32.1673 66.9359L32.1726 66.9306Z" fill="#2E8E9E"/>
<path d="M77.3404 60.4834C70.2091 60.4727 64.4965 54.7878 64.4592 47.6577C64.4218 40.5755 70.3371 34.6986 77.4684 34.7306C84.4824 34.7626 90.291 40.6448 90.2857 47.711C90.2803 54.7611 84.4665 60.494 77.3458 60.4834H77.3404Z" fill="#2E8E9E"/>
</svg>
