<svg width="55" height="53" viewBox="0 0 55 53" fill="none" xmlns="http://www.w3.org/2000/svg">
<g filter="url(#filter0_d_965_15978)">
<path fill-rule="evenodd" clip-rule="evenodd" d="M46.8689 14.2701C47.0531 13.8808 47.2217 13.5073 47.384 13.1478C47.7719 12.2886 48.1238 11.5092 48.566 10.7845C48.727 10.5206 49.088 10.3782 49.4488 10.2359C49.6129 10.1712 49.7769 10.1065 49.9221 10.0304C49.9778 10.1974 50.0621 10.3759 50.1463 10.5545C50.3292 10.9419 50.512 11.3293 50.403 11.5985C49.5948 13.5952 48.6799 15.5559 47.6641 17.4547C47.4716 17.8148 46.5365 18.1303 46.1436 17.9718C44.1459 17.1665 42.1892 16.2445 40.2801 15.2454C40.0362 15.1179 39.9246 14.7382 39.813 14.3583C39.7614 14.1826 39.7097 14.0068 39.645 13.856C39.811 13.8114 39.9842 13.744 40.1574 13.6766C40.5383 13.5285 40.919 13.3803 41.2239 13.4749C41.9948 13.7154 42.7301 14.07 43.5842 14.482L43.5843 14.482C43.9531 14.6599 44.344 14.8484 44.7695 15.043C44.6656 14.7812 44.579 14.553 44.5012 14.3478C44.3559 13.9647 44.2411 13.662 44.1012 13.3712C40.2052 5.26188 31.2719 0.773602 22.3473 2.43465C13.5589 4.07048 6.85624 11.5373 6.16557 20.462C5.3992 30.3569 11.8697 39.2982 21.4079 41.5254C31.1587 43.8023 40.841 38.8242 44.6339 29.5847C44.6512 29.543 44.6685 29.5019 44.6895 29.4616C44.7682 29.3063 44.8338 29.1282 44.8999 28.9485C45.1518 28.2642 45.4123 27.5567 46.4406 27.9993C47.4354 28.4276 47.093 29.2179 46.7935 29.9092C46.7475 30.0155 46.7024 30.1194 46.6634 30.2193C42.7494 40.2584 32.0952 45.9236 21.3819 43.6835C10.8597 41.4829 3.57448 31.9323 4.01931 20.9208C4.4425 10.4395 12.6483 1.54722 23.1475 0.191587C32.9474 -1.07401 42.1265 4.01358 46.2561 12.9966C46.3632 13.2301 46.4756 13.4609 46.6132 13.7432L46.6133 13.7434C46.6897 13.9 46.7737 14.0725 46.8689 14.2701ZM24.1008 34.5339H24.1007C22.6616 34.5361 21.2224 34.5382 19.7835 34.5292C16.8557 34.5112 15.1254 32.763 15.1117 29.8068C15.1002 27.2453 15.0995 24.6846 15.1139 22.1232C15.1262 19.8837 16.0821 18.4827 18.2046 17.7509C18.8787 17.5182 19.0618 17.2078 19.1058 16.5206C19.3646 12.4335 22.239 9.6459 26.1149 9.64806C29.9135 9.65022 32.8182 12.4328 33.0742 16.4327C33.1275 17.2704 33.4332 17.5564 34.1693 17.8092C36.0178 18.4453 37.0394 19.9334 37.0596 21.9193C37.0884 24.6601 37.0992 27.4017 37.0596 30.1417C37.0221 32.7486 35.224 34.4982 32.5998 34.527C31.0705 34.5435 29.5409 34.5395 28.0112 34.5356H28.0112C27.337 34.5338 26.6629 34.5321 25.9887 34.5321C25.3594 34.5321 24.7301 34.533 24.1008 34.5339ZM25.9901 32.4201C26.6307 32.4201 27.2713 32.4214 27.9118 32.4227H27.9119C29.385 32.4258 30.8581 32.4288 32.3309 32.4158C34.1542 32.3992 34.9422 31.6191 34.9609 29.7751C34.9861 27.259 34.9847 24.7423 34.9595 22.2262C34.9414 20.4787 34.1304 19.6612 32.3965 19.6539C28.1688 19.6359 23.9419 19.6352 19.7143 19.6554C18.0626 19.6633 17.2508 20.491 17.2349 22.1621C17.2104 24.7228 17.2111 27.2842 17.2313 29.8457C17.2458 31.6054 18.0316 32.3934 19.7835 32.4122C21.1538 32.427 22.5243 32.4244 23.8948 32.4218H23.8957H23.8957C24.5937 32.4204 25.2916 32.4191 25.9894 32.4201H25.9901ZM30.9668 17.4563C31.1528 15.2413 30.4247 13.5514 28.6101 12.4602C26.8935 11.428 25.0911 11.4546 23.4055 12.5653C21.6846 13.6998 21.0228 15.353 21.2304 17.4563H30.9668ZM27.8343 25.521C28.362 24.2122 27.4868 22.737 26.0918 22.7363C24.7003 22.7355 23.8208 24.2144 24.3456 25.5217C24.5126 25.9377 24.6138 26.3799 24.7151 26.8221C24.8155 27.2605 24.9159 27.6989 25.0803 28.112C25.2145 28.4492 25.4793 28.7344 25.7443 29.0198C25.8636 29.1482 25.9829 29.2767 26.0903 29.41C26.1973 29.2769 26.3161 29.1486 26.4349 29.0203C26.6994 28.7345 26.9639 28.4488 27.0982 28.1113C27.2621 27.6994 27.3624 27.2621 27.4627 26.8249C27.5645 26.3813 27.6662 25.9378 27.8343 25.521Z" fill="white"/>
</g>
<defs>
<filter id="filter0_d_965_15978" x="0" y="0" width="54.4355" height="52.1719" filterUnits="userSpaceOnUse" color-interpolation-filters="sRGB">
<feFlood flood-opacity="0" result="BackgroundImageFix"/>
<feColorMatrix in="SourceAlpha" type="matrix" values="0 0 0 0 0 0 0 0 0 0 0 0 0 0 0 0 0 0 127 0" result="hardAlpha"/>
<feOffset dy="4"/>
<feGaussianBlur stdDeviation="2"/>
<feComposite in2="hardAlpha" operator="out"/>
<feColorMatrix type="matrix" values="0 0 0 0 0 0 0 0 0 0 0 0 0 0 0 0 0 0 0.25 0"/>
<feBlend mode="normal" in2="BackgroundImageFix" result="effect1_dropShadow_965_15978"/>
<feBlend mode="normal" in="SourceGraphic" in2="effect1_dropShadow_965_15978" result="shape"/>
</filter>
</defs>
</svg>
