<svg width="676" height="546" viewBox="0 0 676 546" fill="none" xmlns="http://www.w3.org/2000/svg">
<path d="M414.424 249.96H479.721V422.628C486.106 423.204 491.672 423.713 498.833 424.377C495.973 428.584 493.977 431.971 491.539 435.026C418.37 526.264 323.318 563.393 209.863 536.449C96.3635 509.505 26.3215 434.074 4.65927 319.169C-24.1646 166.271 84.0357 21.4106 238.288 2.14897C348.506 -11.5998 454.999 41.4693 509.919 137.091C514.531 145.106 514.708 149.844 507.569 156.707C479.078 184.16 451.363 212.411 423.359 240.395C421.031 242.72 418.836 245.2 414.401 249.96H414.424ZM297.421 464.494C297.421 451.122 297.687 438.657 297.31 426.237C297.111 420.171 298.929 417.846 305.159 416.008C318.041 412.222 331.344 408.281 342.785 401.573C398.881 368.718 398.393 290.675 342.098 258.373C331.344 252.196 319.438 247.856 307.731 243.583C295.049 238.934 281.834 235.768 269.151 231.141C261.613 228.396 253.986 224.964 247.6 220.204C236.647 212.012 238.642 198.396 251.081 192.529C254.695 190.824 258.73 189.806 262.677 189.142C287.776 184.935 311.811 189.23 335.114 198.728C340.967 201.119 346.776 203.599 353.428 206.389C358.749 189.12 363.45 172.581 369.037 156.353C371.41 149.423 370.456 145.482 363.184 143.556C342.719 138.132 322.276 132.641 299.926 126.663V89.9333H251.569C251.569 102.332 251.391 114.088 251.658 125.844C251.768 131.091 250.172 133.327 244.651 134.7C234.541 137.224 224.319 140.213 214.985 144.751C188.4 157.703 172.569 178.581 170.396 208.802C168.135 240.24 179.088 265.834 206.493 281.775C222.967 291.361 241.436 297.582 259.196 304.822C272.3 310.158 286.024 314.054 298.929 319.811C308.041 323.885 314.205 331.412 312.432 342.46C310.613 353.685 301.966 358.733 292.166 359.109C274.051 359.773 255.471 360.836 237.866 357.559C218.954 354.039 200.928 345.692 182.192 339.36C182.369 339.117 181.749 339.582 181.616 340.179C178.179 353.574 174.742 366.991 171.372 380.407C166.694 398.983 166.383 399.957 184.542 406.001C205.185 412.864 226.492 417.779 249.174 424.001V464.561H297.443L297.421 464.494Z" fill="white"/>
<path d="M484.903 237.179C517.525 204.612 549.481 172.752 580.706 141.578C611.931 172.819 643.998 204.899 675.999 236.913H633.465V410.56H528.924C528.924 406.027 528.924 402.07 528.924 398.112C528.924 348.167 528.702 298.2 529.123 248.255C529.19 239.279 526.728 236.361 517.725 237.002C506.969 237.776 496.102 237.179 484.881 237.179H484.903Z" fill="white"/>
</svg>
