<svg width="124" height="125" viewBox="0 0 124 125" fill="none" xmlns="http://www.w3.org/2000/svg">
<path d="M6.87327 69.2952H48.0895C51.8676 69.2952 54.9589 66.204 54.9589 62.4259V7.47093C54.9589 3.69278 51.8676 0.601562 48.0895 0.601562H6.87327C3.09512 0.601562 0.00390625 3.69278 0.00390625 7.47093V62.4259C0.00390625 66.204 3.09512 69.2952 6.87327 69.2952ZM6.87327 124.25H48.0895C51.8676 124.25 54.9589 121.159 54.9589 117.381V89.9034C54.9589 86.1252 51.8676 83.034 48.0895 83.034H6.87327C3.09512 83.034 0.00390625 86.1252 0.00390625 89.9034V117.381C0.00390625 121.159 3.09512 124.25 6.87327 124.25ZM75.567 124.25H116.783C120.561 124.25 123.653 121.159 123.653 117.381V62.4259C123.653 58.6477 120.561 55.5565 116.783 55.5565H75.567C71.7888 55.5565 68.6976 58.6477 68.6976 62.4259V117.381C68.6976 121.159 71.7888 124.25 75.567 124.25ZM68.6976 7.47093V34.9484C68.6976 38.7266 71.7888 41.8178 75.567 41.8178H116.783C120.561 41.8178 123.653 38.7266 123.653 34.9484V7.47093C123.653 3.69278 120.561 0.601562 116.783 0.601562H75.567C71.7888 0.601562 68.6976 3.69278 68.6976 7.47093Z" fill="white"/>
</svg>
