<svg width="57" height="57" viewBox="0 0 57 57" fill="none" xmlns="http://www.w3.org/2000/svg">
<path fill-rule="evenodd" clip-rule="evenodd" d="M49.7279 6.46067C50.9533 7.69001 52.1849 8.92557 53.5161 10.2598C53.795 9.75656 54.1842 9.18976 54.5721 8.62473C55.4172 7.394 56.2564 6.17161 55.9385 5.6324C54.6139 3.38598 52.5007 1.38284 50.2483 0.0525884C49.7732 -0.228694 48.608 0.668106 47.4487 1.56027C46.9227 1.96507 46.3979 2.36892 45.9395 2.66133C47.26 3.98489 48.4908 5.21961 49.7279 6.46067ZM15.0508 41.1404C15.1156 40.4932 15.1764 39.8576 15.2363 39.2308C15.4098 37.4166 15.5761 35.6768 15.8136 33.9456C15.8858 33.4228 16.3136 32.8793 16.7104 32.4808C25.6684 23.4589 34.6469 14.4525 43.6306 5.44611C43.7363 5.34002 43.8754 5.27013 43.9825 5.21633C44.0269 5.19401 44.0658 5.17446 44.0945 5.15625C46.1917 7.26709 48.2549 9.34805 50.4077 11.5193L51.0629 12.1802C44.079 19.1679 37.0281 26.2229 29.9772 33.2779C29.5355 33.7192 29.0957 34.1626 28.6562 34.6058L28.655 34.607C28.1053 35.1614 27.5559 35.7153 27.0033 36.2645C23.8867 39.3701 19.9026 40.9954 15.0508 41.1404ZM44.489 32.4561L44.489 32.4584C44.5048 38.1587 44.5202 43.7253 44.4399 49.2944C44.3883 53.0781 41.3371 55.9508 37.5127 55.9715C27.3229 56.0233 17.1331 56.0233 6.94332 55.9663C3.01069 55.9456 0.0779746 53.0263 0.0522038 49.0459C-0.0199545 38.8128 -0.0148003 28.5797 0.0522038 18.3466C0.0779746 14.5422 2.87153 11.4676 6.46914 11.4158C12.1562 11.3316 17.8458 11.3484 23.6219 11.3655H23.6221C26.0123 11.3725 28.4174 11.3796 30.8432 11.3796C29.9 13.1032 28.8485 14.0194 26.8848 13.9935C20.9885 13.907 15.0921 13.9365 9.19583 13.9661H9.19568L7.83499 13.9728C4.16007 13.9883 2.57259 15.567 2.56228 19.2783C2.53651 28.9162 2.53136 38.5592 2.56228 48.197C2.57774 51.7427 4.22708 53.399 7.71645 53.4094C17.3908 53.4352 27.06 53.4301 36.7344 53.4094C40.2598 53.399 41.8576 51.7685 41.8731 48.2229C41.8783 47.0041 41.8863 45.7851 41.8943 44.566L41.8943 44.5648V44.5646C41.9257 39.7783 41.9571 34.99 41.8216 30.205C41.7597 28.0776 42.4968 26.7215 44.4656 25.3654L44.476 25.355C44.476 27.7509 44.4825 30.1148 44.489 32.4561Z" fill="white"/>
</svg>
