<svg width="16" height="26" viewBox="0 0 16 26" fill="none" xmlns="http://www.w3.org/2000/svg">
<path fill-rule="evenodd" clip-rule="evenodd" d="M0.529606 24.3046C0.532755 24.2372 0.535673 24.1704 0.538574 24.1039C0.546774 23.9161 0.554834 23.7315 0.567584 23.546C0.642106 22.4936 0.88647 21.4813 1.28681 20.5089C1.71662 19.4687 2.31453 18.5364 3.05629 17.691C3.67759 16.9831 4.29328 16.2705 4.90886 15.558C5.13123 15.3006 5.35359 15.0433 5.57618 14.7862C5.63897 14.7137 5.70176 14.6415 5.76449 14.5693C5.89915 14.4144 6.03356 14.2597 6.16716 14.1043C6.53458 13.6712 6.53284 13.0328 6.1585 12.6049C5.63425 12.0057 5.10957 11.4077 4.58489 10.8098C4.06019 10.2119 3.53549 9.61394 3.01123 9.01469C1.7946 7.62662 1.01992 6.02286 0.690632 4.2034C0.590114 3.64852 0.541587 3.09016 0.538121 2.52658C0.538121 2.51007 0.537036 2.49464 0.535725 2.47599C0.535379 2.47107 0.535017 2.46593 0.534655 2.46048C0.390809 2.44483 0.259095 2.39786 0.156844 2.29002C0.0580582 2.18391 0.00606578 2.06215 0.00259962 1.91952C-0.00086654 1.75775 -0.00086654 1.59424 0.00259962 1.43248C0.00606578 1.12459 0.238298 0.89151 0.546787 0.882812H0.685433H14.784C15.1566 0.882812 15.3837 1.10894 15.3837 1.48466V1.84994C15.3837 2.19435 15.2225 2.38743 14.8863 2.45353C14.8794 2.45469 14.8724 2.45739 14.8655 2.4601C14.862 2.46145 14.8586 2.4628 14.8551 2.46396C14.8506 2.55042 14.8468 2.63688 14.843 2.72316C14.8366 2.86949 14.8302 3.0153 14.8204 3.15974C14.732 4.42953 14.4045 5.63496 13.8516 6.77777C13.4166 7.67532 12.843 8.47721 12.1792 9.21821C11.5808 9.88553 10.9892 10.5579 10.3972 11.2307C10.1405 11.5224 9.88378 11.8142 9.62639 12.1057C9.59736 12.1384 9.56826 12.1711 9.53915 12.2038C9.42573 12.3312 9.31211 12.4588 9.20179 12.5875C8.80145 13.0502 8.79798 13.6677 9.20005 14.1321C9.50473 14.4838 9.81128 14.8337 10.1178 15.1835C10.3222 15.4167 10.5266 15.65 10.7304 15.8837C10.9206 16.1021 11.112 16.3194 11.3034 16.5368C11.7448 17.0382 12.1863 17.5396 12.6142 18.0528C13.5934 19.2287 14.2416 20.575 14.5917 22.0657C14.7563 22.765 14.8395 23.4747 14.8482 24.193V24.3026C14.8566 24.3046 14.8645 24.3066 14.8721 24.3085C14.8909 24.3133 14.9076 24.3175 14.9261 24.32C15.1965 24.3705 15.3767 24.574 15.3854 24.8505C15.3906 25.0158 15.3923 25.181 15.3854 25.3463C15.375 25.6507 15.1497 25.8716 14.8464 25.882C14.8025 25.8832 14.7577 25.8828 14.7132 25.8824C14.6911 25.8822 14.669 25.882 14.6471 25.882H0.617843C0.356148 25.882 0.158577 25.7881 0.0476597 25.5411C0.0337951 25.5098 0.0199304 25.475 0.0181973 25.442C0.0169476 25.3893 0.0149971 25.3364 0.0130436 25.2834C0.00686959 25.1161 0.000666065 24.9479 0.0164643 24.7827C0.0389943 24.5288 0.217502 24.3635 0.470531 24.3165C0.478925 24.315 0.487655 24.3131 0.496573 24.3112C0.507395 24.3089 0.518494 24.3065 0.529606 24.3046ZM14.3698 24.0956H1.00432H1.00259C1.00816 24.0157 1.01315 23.9364 1.0181 23.8576C1.03008 23.667 1.04189 23.4791 1.06151 23.292C1.18803 22.1057 1.52771 20.9855 2.0771 19.9279C2.46704 19.1817 2.9627 18.512 3.51555 17.8806C4.29563 16.9901 5.07053 16.0943 5.84505 15.199C6.072 14.9366 6.29891 14.6743 6.52591 14.4122C7.04757 13.8103 7.04064 12.8989 6.51031 12.2918C6.34688 12.1049 6.18349 11.9179 6.0201 11.7309C5.20286 10.7957 4.38561 9.86041 3.56235 8.9312C2.9627 8.25456 2.42891 7.53443 2.02164 6.72385C1.51731 5.72019 1.19669 4.66262 1.07191 3.54589C1.05108 3.36031 1.03905 3.17375 1.027 2.98694C1.02302 2.92512 1.01903 2.86327 1.01472 2.80141C1.01358 2.77864 1.01393 2.75662 1.01431 2.7329C1.01451 2.72038 1.01472 2.70739 1.01472 2.69357H14.3733C14.3695 2.75804 14.3664 2.82182 14.3634 2.88516C14.358 2.99614 14.3527 3.10577 14.3438 3.2154C14.271 4.0973 14.0804 4.95484 13.7667 5.78281C13.3438 6.89779 12.7251 7.89102 11.9331 8.77987C10.9038 9.93642 9.88147 11.0982 8.85911 12.2599L8.85864 12.2605C8.27632 12.9215 8.28325 13.8068 8.86557 14.4713C9.06535 14.6992 9.26519 14.9269 9.46502 15.1547C10.3451 16.1577 11.2249 17.1604 12.0978 18.1711C13.1948 19.4426 13.8967 20.9107 14.2121 22.5632C14.3022 23.0346 14.356 23.5094 14.3698 23.9878V24.0956ZM1.37891 23.7443H13.9975C13.9975 23.73 13.9981 23.7163 13.9987 23.7029C13.9998 23.6775 14.0009 23.6535 13.9975 23.6295C13.9793 23.509 13.9617 23.3883 13.944 23.2677C13.8959 22.939 13.8478 22.6101 13.7895 22.2832C13.7219 21.897 13.5295 21.5717 13.228 21.3195C12.8398 20.9925 12.4013 20.7455 11.9264 20.5733C11.0148 20.2445 10.2869 19.6757 9.71155 18.9C9.15697 18.1537 8.79995 17.3136 8.54346 16.4247C8.33202 15.6942 8.20031 14.9479 8.13272 14.1896C8.13165 14.1773 8.13058 14.1651 8.12952 14.1528C8.10278 13.8466 8.07593 13.539 8.08593 13.2346C8.09979 12.7789 8.28176 12.3805 8.58332 12.0396L8.58362 12.0393C8.79323 11.8028 9.00282 11.5664 9.21069 11.3299C9.44842 11.061 9.68581 10.7916 9.92323 10.5222C10.4491 9.92538 10.9751 9.32842 11.5053 8.73641C12.0287 8.15196 12.5087 7.53794 12.8866 6.84912C12.8912 6.83984 12.8958 6.83076 12.9004 6.82167C12.9097 6.80351 12.9189 6.78534 12.9281 6.76562H2.44475C2.45172 6.77891 2.45728 6.79079 2.46235 6.8016C2.46989 6.81769 2.47632 6.83142 2.48461 6.8439C2.55076 6.94729 2.61514 7.05216 2.67956 7.15708C2.83624 7.41226 2.99312 7.66779 3.17611 7.90322C3.47785 8.2928 3.80391 8.66494 4.12967 9.03675C4.20244 9.11981 4.2752 9.20286 4.34767 9.28607C5.13276 10.1871 5.91958 11.0847 6.71159 11.9805C7.07901 12.3962 7.27484 12.8711 7.25751 13.4294C7.23325 14.1669 7.14833 14.8975 6.99755 15.6194C6.80864 16.5291 6.52269 17.404 6.07035 18.2181C5.68214 18.9191 5.18475 19.5244 4.53138 19.9941C4.1657 20.2567 3.75669 20.4359 3.34075 20.6046C2.84336 20.8081 2.37889 21.0725 1.99415 21.4569C1.83644 21.6135 1.69779 21.7892 1.65273 22.0118C1.57226 22.4141 1.50284 22.8192 1.43337 23.2245C1.42504 23.2731 1.41672 23.3217 1.40837 23.3703C1.39473 23.4502 1.39078 23.5307 1.38675 23.613C1.38463 23.6563 1.38249 23.7 1.37891 23.7443Z" fill="#43C840"/>
</svg>
