<svg width="439" height="533" viewBox="0 0 439 533" fill="none" xmlns="http://www.w3.org/2000/svg">
<path fill-rule="evenodd" clip-rule="evenodd" d="M186.844 0.0318947C189.216 0.163334 191.671 0.300131 194.191 0.440601C204.688 1.02557 216.326 1.67423 227.965 2.26481C229.894 2.35799 231.832 2.33452 233.773 2.31102C235.553 2.28947 237.334 2.2679 239.112 2.33626C244.828 2.56849 248.454 7.60594 247.025 13.1257C244.846 21.5215 245.346 23.4686 252.849 27.72C270.658 37.8128 275.696 53.8541 274.499 72.95C274.239 77.172 273.97 81.3958 273.702 85.6208C273.103 95.0349 272.504 104.455 271.998 113.875C271.927 115.232 272.48 117.09 273.445 117.983C280.59 124.629 282.18 133.096 280.823 142.081C279.108 153.46 275.571 164.553 268.747 173.771C264.531 179.487 262.209 185.489 259.94 191.955C250.098 220.054 223.017 238.543 192.363 238.543C161.692 238.543 135.897 221.055 126.055 192.473C123.608 185.364 120.464 179.219 116.23 173.11C109.924 163.981 106.405 153.389 104.708 142.42C103.208 132.631 105.083 123.7 113.283 116.894C114.354 116.018 114.587 113.625 114.515 111.963C114.176 104.48 113.778 96.9959 113.381 89.5121L113.381 89.5093L113.381 89.5063C112.983 82.0226 112.586 74.5388 112.246 67.0551C111.46 49.817 118.57 36.8125 133.414 27.9701C134.558 27.2913 135.755 26.0409 136.112 24.8262C139.238 13.8402 146.973 7.57022 157.244 3.85465C166.086 0.639248 175.304 -0.182465 186.844 0.0318947ZM212.623 368.895C213.256 367.846 213.892 366.796 214.529 365.746C215.994 363.329 217.461 360.909 218.893 358.481C232.163 335.995 245.411 313.521 258.663 291.04C262.519 284.499 266.375 277.957 270.232 271.415C275.913 261.769 283.737 258.536 294.491 261.554C308.031 265.359 321.553 269.182 335.04 273.148C349.599 277.435 363.318 287.778 369.32 298.782C365.386 299.91 361.454 301.04 357.523 302.17L357.507 302.174L357.489 302.179C346.064 305.462 334.649 308.742 323.215 311.983C316.998 313.751 311.943 317.109 307.977 322.218C303.177 328.399 298.35 334.564 293.523 340.731C289.351 346.06 285.179 351.389 281.022 356.73C277.592 361.142 275.591 366.162 275.377 371.771C275.256 374.92 275.129 378.07 275.003 381.219L275.002 381.227C274.51 393.456 274.018 405.687 273.876 417.93C273.84 420.967 274.574 424.021 275.341 427.208L275.341 427.209C275.706 428.726 276.078 430.273 276.377 431.863H272.126H16.8946C4.55105 431.863 -0.665037 426.612 0.0673586 414.304C0.419714 408.404 0.763205 402.504 1.10669 396.605L1.1068 396.603L1.10682 396.602C2.45243 373.489 3.79804 350.377 5.67644 327.309C7.73072 301.997 25.594 280.686 49.906 273.326C62.338 269.57 74.8692 266.083 87.386 262.6L87.3903 262.598C88.9185 262.173 90.4465 261.748 91.9741 261.322C101.567 258.661 109.57 261.876 114.732 270.575C128.781 294.288 142.779 318.02 156.78 341.757C161.311 349.439 165.843 357.122 170.376 364.804C171.162 366.144 171.984 367.484 173.645 368.752C173.824 366.728 174.006 364.704 174.189 362.68C174.554 358.63 174.919 354.581 175.253 350.532L175.559 346.79C176.691 332.961 177.823 319.13 178.79 305.284C178.933 303.337 178.308 301.068 177.343 299.335C174.522 294.266 171.61 289.251 168.699 284.238L168.698 284.237C166.614 280.647 164.53 277.059 162.481 273.451C157.943 265.467 161.659 259 170.716 258.982C185.31 258.964 199.922 258.964 214.516 258.982C223.895 259 227.592 265.359 222.948 273.576C220.942 277.128 218.896 280.656 216.851 284.182L216.85 284.185C213.906 289.261 210.964 294.335 208.139 299.478C207.139 301.3 206.621 303.712 206.764 305.802C207.891 321.297 209.141 336.767 210.391 352.243C210.647 355.411 210.903 358.58 211.158 361.75C211.285 363.394 211.456 365.029 211.628 366.669C211.698 367.344 211.769 368.021 211.837 368.699C211.995 368.744 212.161 368.782 212.325 368.822C212.384 368.837 212.444 368.851 212.502 368.867C212.537 368.876 212.571 368.885 212.605 368.895H212.623ZM323.471 354.16C310.75 366.89 297.892 379.757 284.903 392.764H284.885C287.648 392.764 290.385 392.809 293.1 392.854C299.267 392.956 305.325 393.056 311.34 392.621C318.593 392.103 320.576 394.461 320.522 401.714C320.27 431.721 320.304 461.737 320.338 491.749C320.35 502.097 320.361 512.445 320.361 522.792V532.849H404.569V392.55H438.831L433.242 386.942C409.325 362.942 385.406 338.94 362.072 315.523C349.354 328.26 336.484 341.138 323.471 354.16Z" fill="white"/>
</svg>
