<svg width="34" height="24" viewBox="0 0 34 24" fill="none" xmlns="http://www.w3.org/2000/svg">
<path d="M0 1.70571C0 0.762857 0.7582 0 1.6915 0H15.3085C15.7571 1.34821e-08 16.1874 0.179708 16.5046 0.499592C16.8218 0.819475 17 1.25333 17 1.70571C17 2.1581 16.8218 2.59195 16.5046 2.91184C16.1874 3.23172 15.7571 3.41143 15.3085 3.41143H1.6915C1.24289 3.41143 0.812647 3.23172 0.495429 2.91184C0.178211 2.59195 0 2.1581 0 1.70571ZM0 12C0 11.0571 0.7582 10.2943 1.6915 10.2943H32.3085C32.7571 10.2943 33.1874 10.474 33.5046 10.7939C33.8218 11.1138 34 11.5476 34 12C34 12.4524 33.8218 12.8862 33.5046 13.2061C33.1874 13.526 32.7571 13.7057 32.3085 13.7057H1.6915C1.24289 13.7057 0.812647 13.526 0.495429 13.2061C0.178211 12.8862 0 12.4524 0 12ZM1.6915 20.5886C1.24289 20.5886 0.812647 20.7683 0.495429 21.0882C0.178211 21.408 0 21.8419 0 22.2943C0 22.7467 0.178211 23.1805 0.495429 23.5004C0.812647 23.8203 1.24289 24 1.6915 24H22.1085C22.5571 24 22.9874 23.8203 23.3046 23.5004C23.6218 23.1805 23.8 22.7467 23.8 22.2943C23.8 21.8419 23.6218 21.408 23.3046 21.0882C22.9874 20.7683 22.5571 20.5886 22.1085 20.5886H1.6915Z" fill="white"/>
</svg>
