<svg width="25" height="25" viewBox="0 0 25 25" fill="none" xmlns="http://www.w3.org/2000/svg">
<path d="M24.9993 12.5391C24.7039 13.157 24.5377 13.7131 24.2116 14.1456C22.0392 17.0125 22.31 15.9127 21.9285 19.552C21.7685 21.0596 21.1285 21.696 19.6146 21.869C15.99 22.2891 16.9992 21.9678 14.23 24.1613C13.1838 24.9892 12.1623 25.0881 11.2146 24.1736C9.55921 22.5734 7.65766 21.8381 5.39304 21.7825C4.38381 21.7578 3.71919 20.9978 3.51611 19.9721C3.40535 19.416 3.28842 18.8476 3.28842 18.2853C3.29457 16.9878 2.76534 15.956 1.89765 15.0477C1.58995 14.7264 1.32534 14.368 1.07303 14.0035C0.37149 13.0149 0.37149 12.1128 1.07303 11.1304C1.41765 10.6485 1.78688 10.1851 2.18072 9.74638C2.85149 9.01111 3.28842 8.18935 3.28227 7.16368C3.28227 6.76825 3.36227 6.37899 3.39919 5.98355C3.58381 4.08669 4.23612 3.43175 6.12535 3.24638C6.66074 3.19078 7.22074 3.20931 7.73151 3.05485C8.37767 2.86331 9.01766 2.59762 9.58382 2.24544C10.1869 1.87472 10.6915 1.34334 11.2638 0.923193C12.2238 0.225 13.2638 0.138502 14.1131 0.941733C15.7438 2.48641 17.5777 3.30817 19.8423 3.36996C21.1408 3.40703 21.7685 4.25352 21.9531 5.55104C21.9654 5.62519 21.9715 5.69933 21.9715 5.77348C21.9469 7.71359 22.5931 9.3633 23.9654 10.7659C24.4146 11.2231 24.6362 11.9151 24.9808 12.5391H24.9993ZM17.7992 6.55817C15.3561 9.04818 12.8823 11.5691 10.3407 14.158C9.35613 13.1508 8.40844 12.1808 7.5592 11.3096C6.81459 12.0078 6.08843 12.6874 5.4915 13.2435C7.20843 14.9674 8.9192 16.6851 10.6484 18.4213C13.7561 15.2701 16.9315 12.0449 20.1562 8.77632C19.4238 8.08431 18.6731 7.37994 17.7992 6.55817Z" fill="#2E8E9E"/>
</svg>
