<svg width="155" height="154" viewBox="0 0 155 154" fill="none" xmlns="http://www.w3.org/2000/svg">
<path d="M77.4701 153.322C35.1579 153.302 0.826999 118.985 0.83887 76.7262C0.850741 34.2698 35.1539 -0.0553025 77.5215 6.68927e-05C120.111 0.0554363 154.256 34.4438 154.161 77.1811C154.066 119.1 119.576 153.342 77.4661 153.322H77.4701ZM77.4424 63.6907C67.1581 63.6907 56.8699 63.6551 46.5857 63.7065C41.2912 63.7303 37.6152 67.2383 37.5914 72.4232C37.5281 87.3809 37.5558 102.339 37.6271 117.3C37.631 118.135 38.1454 119.242 38.7944 119.752C50.0045 128.611 62.7105 133.527 77.0743 133.575C91.6005 133.622 104.298 128.247 115.932 119.914C117.024 119.131 117.412 118.317 117.408 117C117.364 102.437 117.218 87.8713 117.455 73.3092C117.562 66.914 112.679 63.5562 107.701 63.6393C97.6151 63.8014 87.5287 63.6867 77.4384 63.6907H77.4424ZM108.216 61.994C108.216 56.4334 108.176 50.9795 108.228 45.5295C108.283 39.2649 106.016 33.9455 101.746 29.4605C90.3896 17.5205 68.824 16.3736 55.9756 26.9927C49.87 32.0352 46.5659 38.3592 46.8231 46.4352C46.9656 50.9122 46.8508 55.4011 46.8508 59.8821C46.8508 60.5782 46.8508 61.2703 46.8508 61.9545H56.4584C56.4584 56.2791 56.4426 50.7501 56.4624 45.221C56.4782 40.7717 58.152 37.0066 61.3334 33.9257C68.9071 26.5892 81.5062 25.4858 90.5994 31.4103C95.8226 34.8156 98.6875 39.5655 98.5806 45.9527C98.5134 49.9077 98.5687 53.8626 98.5687 57.8176C98.5687 59.182 98.5687 60.5426 98.5687 61.994H108.22H108.216Z" fill="white"/>
<path d="M87.7571 114.554H67.2639C68.2017 110.378 69.0999 106.344 70.01 102.31C70.5759 99.8062 71.2169 97.3186 71.6838 94.7953C71.8025 94.1586 71.6205 93.1065 71.1773 92.7783C67.062 89.733 66.3814 84.8367 68.1542 81.3722C70.2395 77.2907 75.1739 75.0363 79.9065 76.1239C83.8753 77.0336 86.7441 79.2998 87.6542 83.3971C88.5723 87.538 86.942 90.7652 83.4242 92.9958C82.3044 93.7077 82.4152 94.4394 82.7041 95.4835C84.3779 101.507 86.0002 107.546 87.6305 113.581C87.6978 113.831 87.6978 114.096 87.7532 114.554H87.7571Z" fill="white"/>
</svg>
