<svg width="67" height="67" viewBox="0 0 67 67" fill="none" xmlns="http://www.w3.org/2000/svg">
<path d="M33.5631 66.5091C51.9291 66.5091 66.8177 51.6205 66.8177 33.2545C66.8177 14.8886 51.9291 0 33.5631 0C15.1972 0 0.308594 14.8886 0.308594 33.2545C0.308594 51.6205 15.1972 66.5091 33.5631 66.5091Z" fill="#111318"/>
<path d="M53.2902 33.0232C53.2533 37.3643 51.9519 41.1454 49.3386 44.4848C47.2152 47.2025 44.5176 49.2009 41.272 50.4956C39.7493 51.1018 38.1739 51.5025 36.5406 51.7029C34.5174 51.9495 32.51 51.9032 30.5078 51.5128C25.5604 50.5469 21.6088 48.045 18.6161 44.1046C16.9775 41.9469 15.9027 39.5272 15.3442 36.9019C14.9437 35.0062 14.87 33.0951 15.0702 31.1686C15.3968 28.0656 16.4453 25.2143 18.2262 22.625C18.8743 21.6797 19.575 20.7601 20.4496 20.0101C21.261 19.3114 22.2516 18.9775 23.3422 19.2703C24.4329 19.5631 25.1494 20.2875 25.4181 21.3612C25.6921 22.4452 25.2653 23.3391 24.475 24.0789C23.8217 24.6954 23.2263 25.3633 22.7205 26.0979C21.6562 27.6494 20.9449 29.3448 20.6867 31.1943C20.0597 35.6227 21.3453 39.4501 24.6015 42.6096C26.298 44.2536 28.3529 45.3222 30.6764 45.8719C32.7787 46.3651 34.8915 46.3908 36.999 45.9027C40.4922 45.0961 43.2215 43.221 45.192 40.3029C46.2932 38.6743 46.957 36.8814 47.2099 34.9446C47.5788 32.1447 47.1362 29.4732 45.7663 26.9713C45.192 25.9181 44.4017 25.0293 43.6219 24.12C42.0518 22.2962 42.6788 20.1693 44.6019 19.3628C45.4607 19.0031 46.936 19.0853 47.8475 20.0101C49.9866 22.1986 51.5356 24.7057 52.4419 27.5878C52.8687 28.9389 53.1374 30.3209 53.2164 31.7388C53.2427 32.2166 53.2691 32.6944 53.2849 33.0283L53.2902 33.0232Z" fill="#2E8E9E"/>
<path d="M29.6172 21.9845C29.6172 20.822 29.6172 19.6646 29.6172 18.5021C29.6172 16.5042 30.9053 15.0197 33.0214 14.7026C34.3312 14.5064 35.484 14.914 36.4148 15.8098C37.1671 16.5395 37.5027 17.4252 37.5081 18.4266C37.5081 20.8371 37.5081 23.2476 37.5081 25.6531C37.5081 27.4748 35.9927 29.06 34.0551 29.2815C31.7333 29.5482 29.6334 27.8321 29.6226 25.6581C29.6226 24.4353 29.6226 23.2074 29.6226 21.9845H29.6172Z" fill="#2E8E9E"/>
</svg>
