<svg width="138" height="125" viewBox="0 0 138 125" fill="none" xmlns="http://www.w3.org/2000/svg">
<path fill-rule="evenodd" clip-rule="evenodd" d="M112.088 3.50277L112.088 3.50313C111.999 1.98098 111.383 1.13014 110.198 0.739392C108.961 0.332382 107.766 0.809012 107.025 2.07824C104.909 5.69045 102.815 9.3214 100.743 12.9604C99.8136 14.5911 100.151 16.1067 101.546 16.91C102.944 17.716 104.406 17.2527 105.356 15.63C107.45 12.0526 109.518 8.46186 111.571 4.86304C111.771 4.51381 111.892 4.12058 111.986 3.81539L111.986 3.81528C112.023 3.6948 112.056 3.58804 112.088 3.50313L112.088 3.50545V3.50277ZM0.629499 79.6646C0.541187 80.0495 0.452894 80.4343 0.358871 80.8173H0.353516V85.6371C0.382614 85.7568 0.414294 85.8763 0.44599 85.9958L0.445998 85.9958C0.516386 86.2613 0.586855 86.527 0.629318 86.7966C2.3966 98.1045 13.7366 106.293 24.9214 104.153C26.8289 103.788 28.683 103.141 30.5905 102.474C31.481 102.163 32.3832 101.848 33.3079 101.556C33.333 101.588 33.374 101.638 33.4262 101.701C33.5684 101.875 33.7939 102.15 34.0094 102.432C35.5137 104.394 37.0158 106.358 38.5178 108.322L38.5221 108.327L38.5229 108.328C42.0056 112.882 45.488 117.435 48.9965 121.968C51.5162 125.224 55.5247 125.535 58.6094 122.798C59.8786 121.674 61.1291 120.53 62.3769 119.381C65.4938 116.511 65.7963 113.263 63.2365 109.889C61.1078 107.083 58.9706 104.284 56.8334 101.484L56.8322 101.483L56.831 101.481C55.3692 99.5665 53.9073 97.6517 52.448 95.7347C51.6003 94.6225 50.7571 93.5057 49.8713 92.3323L49.8697 92.3304L49.8639 92.3226C49.4063 91.7164 48.9372 91.0951 48.4502 90.4516C49.7793 89.9928 51.0842 89.5277 52.3753 89.0676L52.3754 89.0676L52.3762 89.0673L52.3763 89.0672L52.3764 89.0672C55.1612 88.0748 57.8822 87.105 60.6445 86.2691C72.437 82.697 84.4384 80.7637 96.796 82.199C97.6903 82.3034 98.6677 82.7345 99.3639 83.3075C102.261 85.6987 105.515 86.751 109.199 86.0173C116.996 84.4616 120.7 76.0804 116.734 69.0381C115.406 66.6783 114.042 64.338 112.678 61.9977L112.677 61.9954C111.953 60.754 111.229 59.5127 110.511 58.2684C109.337 56.2374 108.169 54.2037 107.005 52.1776L106.992 52.1554L106.979 52.1329C106.497 51.2945 106.016 50.4573 105.536 49.6221C111.646 43.7366 112.972 38.0251 109.593 32.2814C108.141 29.8152 106.069 28.0399 103.407 26.9876C99.8218 25.5684 96.2765 25.8148 92.7714 27.4723C92.6905 27.3382 92.6128 27.21 92.5376 27.086L92.5359 27.0832C92.3354 26.7528 92.153 26.4519 91.9761 26.1468C90.8347 24.1724 89.696 22.1967 88.5575 20.2211L88.5567 20.2197C86.1779 16.0921 83.7995 11.9651 81.3966 7.85281C78.593 3.05171 73.0689 0.960427 67.9171 2.67415C62.8884 4.34503 59.6135 9.25592 60.3901 14.6809C60.7114 16.9382 60.2267 18.751 59.2628 20.6147C59.0323 21.061 58.8052 21.5092 58.5782 21.9576C57.9796 23.1394 57.3809 24.3213 56.719 25.4667C49.8105 37.4413 40.3341 47.1078 29.5671 55.6095C28.8897 56.145 28.3113 56.5359 27.3072 56.228C26.6967 56.0379 25.797 56.3378 25.1784 56.6859C20.3666 59.4064 15.5735 62.1618 10.8099 64.968C6.02755 67.7876 2.86251 71.9139 1.25054 77.2185C1.00627 78.0224 0.817842 78.8437 0.629499 79.6646ZM49.8052 44.0338C55.3908 37.7359 60.216 30.9185 64.0398 23.0916H64.0424C68.3422 30.5397 72.6152 37.942 76.8824 45.3345L76.9883 45.5178L77.2046 45.8927C83.1007 56.1068 88.9868 66.3038 94.9189 76.5785C86.2218 75.9358 77.9129 76.7391 69.6763 78.4234C61.4531 80.105 53.5138 82.7024 45.6654 85.9665C42.8939 81.1692 40.1339 76.389 37.3665 71.5957L37.3506 71.5682C35.3347 68.0766 33.3148 64.5782 31.2835 61.0612C37.9858 55.8987 44.2275 50.3237 49.8052 44.0338ZM107.557 80.8422C107.428 80.8585 107.311 80.8732 107.212 80.8896H107.21C104.537 80.7905 102.818 79.5909 101.613 77.4889C98.3582 71.8141 95.0862 66.1502 91.8137 60.4853L91.8115 60.4815L91.8093 60.4777C90.7812 58.6981 89.7531 56.9184 88.7254 55.1382C86.2753 50.8932 83.8249 46.6484 81.3746 42.4037L81.3703 42.3962C76.4709 33.9092 71.5716 25.4222 66.6746 16.9329C64.3531 12.9083 66.0695 8.53026 70.3297 7.56897C72.8762 6.99327 75.4467 8.23572 76.9275 10.7956C81.1722 18.1346 85.4108 25.4778 89.6485 32.8196L89.6597 32.8391L91.4352 35.915C93.3276 39.1937 95.2207 42.472 97.1138 45.7503L97.1329 45.7834L97.1358 45.7884L97.1387 45.7934C102.101 54.3856 107.063 62.9782 112.011 71.5792C114.155 75.3039 112.616 79.465 108.701 80.6298C108.307 80.7477 107.892 80.8 107.557 80.8422L107.557 80.8422H107.557ZM25.6751 62.6135C25.7509 62.5867 25.8367 62.5564 25.9362 62.5179V62.5152C28.1602 66.3667 30.3818 70.2149 32.6018 74.0603L32.6136 74.0808C35.6419 79.3264 38.6673 84.5668 41.6917 89.8036C41.6343 89.8706 41.5892 89.9301 41.5502 89.9815C41.48 90.074 41.4295 90.1406 41.3624 90.1785C40.1318 90.8896 38.906 91.6099 37.6803 92.3303L37.6797 92.3306L37.6792 92.3309C34.8298 94.0055 31.9802 95.6801 29.0691 97.2396C19.8096 102.199 8.4937 97.0146 6.11056 86.818C4.55482 80.1586 7.46279 73.2769 13.5251 69.5897C16.2304 67.9452 18.9825 66.3787 21.7343 64.8123L21.7344 64.8122L21.7345 64.8121L21.7366 64.811C22.9361 64.1282 24.1355 63.4454 25.331 62.7562C25.4284 62.7006 25.5348 62.663 25.6751 62.6135L25.6751 62.6135ZM37.7409 98.4972C39.6174 100.942 41.4826 103.373 43.3407 105.795L43.3419 105.797L43.3431 105.798C46.6726 110.138 49.9796 114.448 53.2888 118.758C53.886 119.534 54.5018 119.304 55.1097 118.755C55.4599 118.439 55.8104 118.123 56.1609 117.807C56.9705 117.078 57.7799 116.348 58.5853 115.614C59.8358 114.476 59.8572 114.302 58.8424 112.963C56.012 109.23 53.1764 105.503 50.338 101.778C48.6227 99.5274 46.9029 97.2834 45.1722 95.0252L45.1704 95.0228L44.7309 94.4494L44.2252 94.7391L43.1882 95.3329C41.9455 96.0444 40.7382 96.7357 39.5308 97.4297C39.1854 97.629 38.8434 97.835 38.4515 98.0709L38.4509 98.0712L38.4506 98.0714C38.2325 98.2027 37.999 98.3433 37.7409 98.4972ZM105.089 35.1974C106.947 38.5659 105.887 42.9279 102.7 44.7193L102.698 44.7166C100.302 40.5694 97.9061 36.4196 95.5103 32.2698L95.5051 32.2609L95.5 32.2519C98.815 30.391 103.196 31.7673 105.089 35.1974ZM134.027 49.8683C135.634 49.8924 136.798 49.3863 137.454 47.8841L137.452 47.8814V46.2748C136.739 45.3537 136 44.5022 134.678 44.5049C133.364 44.5082 132.05 44.5026 130.736 44.4971C127.769 44.4846 124.802 44.472 121.838 44.5611C121.008 44.5879 119.918 45.2118 119.434 45.9C118.212 47.6324 119.581 49.804 121.854 49.8335C123.801 49.8579 125.749 49.8527 127.697 49.8475C129.807 49.8419 131.917 49.8363 134.027 49.8683ZM128.458 23.8964C128.613 23.6509 128.767 23.4052 128.936 23.1828C128.647 20.9924 126.655 19.6349 124.899 20.5935C121.144 22.6392 117.452 24.7974 113.789 26.9985C112.498 27.775 112.246 29.3013 112.961 30.5224C113.69 31.7675 115.24 32.2521 116.568 31.5024C120.175 29.4647 123.774 27.4136 127.308 25.2527C127.788 24.9595 128.123 24.4283 128.458 23.8964Z" fill="white"/>
</svg>
