<svg width="25" height="25" viewBox="0 0 25 25" fill="none" xmlns="http://www.w3.org/2000/svg">
<path d="M12.0982 4.06272L14.3303 1.83063C14.9107 1.25025 15.5997 0.789865 16.358 0.475765C17.1163 0.161665 17.9291 8.64835e-09 18.7498 0C19.5706 -8.64835e-09 20.3834 0.161665 21.1417 0.475765C21.9 0.789865 22.589 1.25025 23.1694 1.83063C23.7498 2.41101 24.2101 3.10002 24.5242 3.85833C24.8383 4.61663 25 5.42938 25 6.25016C25 7.07094 24.8383 7.88369 24.5242 8.64199C24.2101 9.4003 23.7498 10.0893 23.1694 10.6697L18.7052 15.1339C18.1248 15.7143 17.4358 16.1747 16.6775 16.4888C15.9192 16.8029 15.1065 16.9646 14.2857 16.9646C13.4649 16.9646 12.6521 16.8029 11.8938 16.4888C11.1355 16.1747 10.4465 15.7143 9.86614 15.1339C9.6297 14.8798 9.50095 14.544 9.50694 14.197C9.51294 13.8501 9.65321 13.5189 9.89828 13.2732C10.144 13.0281 10.4751 12.8879 10.8221 12.8819C11.1691 12.8759 11.5049 13.0046 11.7589 13.2411C12.0904 13.5735 12.4842 13.8373 12.9178 14.0173C13.3514 14.1973 13.8162 14.29 14.2857 14.29C14.7551 14.29 15.22 14.1973 15.6536 14.0173C16.0871 13.8373 16.4809 13.5735 16.8124 13.2411L21.2766 8.77688C21.9141 8.10021 22.2629 7.20179 22.2491 6.2722C22.2352 5.34261 21.8598 4.45498 21.2024 3.79759C20.545 3.1402 19.6574 2.76477 18.7278 2.75092C17.7982 2.73708 16.8998 3.08591 16.2231 3.72344L13.991 5.95552C13.737 6.19196 13.4012 6.32071 13.0542 6.31472C12.7072 6.30873 12.3761 6.16845 12.1304 5.92338C11.8853 5.67767 11.745 5.34652 11.739 4.99953C11.733 4.65255 11.8618 4.31675 12.0982 4.06272ZM3.72344 21.2766C4.05488 21.609 4.44868 21.8728 4.88227 22.0528C5.31585 22.2328 5.7807 22.3255 6.25016 22.3255C6.71962 22.3255 7.18447 22.2328 7.61805 22.0528C8.05164 21.8728 8.44544 21.609 8.77688 21.2766L11.009 19.0445C11.263 18.808 11.5988 18.6793 11.9458 18.6853C12.2928 18.6913 12.6239 18.8315 12.8696 19.0766C13.1147 19.3223 13.255 19.6535 13.261 20.0005C13.267 20.3475 13.1382 20.6833 12.9018 20.9373L10.6697 23.1694C10.0893 23.7498 9.4003 24.2101 8.64199 24.5242C7.88369 24.8383 7.07094 25 6.25016 25C4.59251 25 3.00276 24.3415 1.83063 23.1694C0.658497 21.9972 0 20.4075 0 18.7498C0 17.0922 0.658497 15.5024 1.83063 14.3303L6.2948 9.86614C6.87516 9.28572 7.56417 8.8253 8.32247 8.51118C9.08078 8.19706 9.89354 8.03538 10.7143 8.03538C11.5351 8.03538 12.3479 8.19706 13.1062 8.51118C13.8645 8.8253 14.5535 9.28572 15.1339 9.86614C15.3703 10.1202 15.4991 10.456 15.4931 10.803C15.4871 11.1499 15.3468 11.4811 15.1017 11.7268C14.856 11.9719 14.5249 12.1122 14.1779 12.1181C13.8309 12.1241 13.4951 11.9954 13.2411 11.7589C12.9096 11.4265 12.5158 11.1627 12.0822 10.9827C11.6486 10.8027 11.1838 10.71 10.7143 10.71C10.2449 10.71 9.78002 10.8027 9.34644 10.9827C8.91285 11.1627 8.51905 11.4265 8.18761 11.7589L3.72344 16.2231C3.39096 16.5546 3.12717 16.9484 2.94717 17.3819C2.76718 17.8155 2.67453 18.2804 2.67453 18.7498C2.67453 19.2193 2.76718 19.6841 2.94717 20.1177C3.12717 20.5513 3.39096 20.9451 3.72344 21.2766Z" fill="white"/>
</svg>
