<svg width="64" height="65" viewBox="0 0 64 65" fill="none" xmlns="http://www.w3.org/2000/svg">
<g filter="url(#filter0_d_965_10375)">
<path d="M32 55.9844C46.9117 55.9844 59 43.8961 59 28.9844C59 14.0727 46.9117 1.98438 32 1.98438C17.0883 1.98438 5 14.0727 5 28.9844C5 43.8961 17.0883 55.9844 32 55.9844Z" stroke="white" stroke-width="2" stroke-miterlimit="10"/>
<path d="M31.5409 13.1279L31.5409 10.0558C31.5409 10.0201 31.5683 9.98438 31.6065 9.98438L33.4535 9.98438C33.4863 9.98438 33.5191 10.0141 33.5191 10.0558L33.5191 13.0327C33.5191 13.0684 33.5464 13.0982 33.5846 13.1041C35.3824 13.122 37.0546 13.5685 38.6065 14.4437C38.6283 14.4556 38.6392 14.4794 38.6392 14.5092L38.6392 18.4148C38.6392 18.4743 38.5791 18.5041 38.5409 18.4684C38.0218 18.0397 37.2731 17.6408 36.3005 17.2717C35.2895 16.8907 34.3879 16.6644 33.5901 16.5989C33.5519 16.5989 33.5191 16.6287 33.5191 16.6704L33.5191 21.9156C33.5191 21.9156 33.5355 21.9692 33.5628 21.9811C35.6502 22.8324 37.0819 23.7553 37.8469 24.7436C38.2567 25.2735 38.5573 25.8629 38.7485 26.5118C39.4972 29.0481 38.5299 31.8821 36.4371 33.2514C35.6283 33.7813 34.6775 34.1087 33.5792 34.2338C33.5464 34.2338 33.5245 34.2695 33.5245 34.2993L33.5245 36.9129C33.5245 36.9487 33.4972 36.9844 33.459 36.9844L31.612 36.9844C31.5792 36.9844 31.5464 36.9546 31.5464 36.9129L31.5464 34.3647C31.5464 34.329 31.5191 34.2993 31.4863 34.2933C29.6338 34.1921 28.2459 33.8646 27.3169 33.3109C27.2951 33.299 27.2841 33.2752 27.2841 33.2455L27.2841 29.4232C27.2841 29.3696 27.3388 29.3398 27.377 29.3636C28.5956 30.1495 29.9617 30.6377 31.4754 30.8283C31.5136 30.8283 31.5464 30.7985 31.5464 30.7568L31.5464 25.2913C31.5464 25.2913 31.53 25.2377 31.5027 25.2258C29.5464 24.4519 28.1421 23.5707 27.2896 22.5764C26.4317 21.5762 26 20.3676 26 18.9566C26 17.3253 26.4809 16.0095 27.4371 15.0093C28.3825 14.021 29.7322 13.4137 31.4863 13.1934C31.5191 13.1934 31.5409 13.1577 31.5409 13.1279ZM33.5191 26.2201L33.5191 30.6973C33.5191 30.7389 33.5573 30.7747 33.601 30.7687C34.8032 30.5068 35.4043 29.7983 35.4043 28.6433C35.4043 27.6549 34.8087 26.8274 33.6174 26.1606C33.5737 26.1367 33.5191 26.1725 33.5191 26.2201ZM31.5409 21.0047L31.5409 16.724C31.5409 16.6823 31.5027 16.6466 31.4644 16.6525C30.224 16.8847 29.6065 17.5813 29.6065 18.7482C29.6065 19.6889 30.2185 20.4629 31.448 21.0642C31.4918 21.088 31.5409 21.0523 31.5409 20.9987L31.5409 21.0047Z" fill="#F4F4F4"/>
<path d="M34.8393 40.6449L24.3498 40.6449C23.6063 40.6449 23 41.2959 23 42.0944L23 42.5427C23 43.3412 23.6063 43.9922 24.3498 43.9922L34.8393 43.9922L34.8393 47.9844L38.4196 45.2328L42 42.4874L38.4196 39.7359L34.8393 36.9844L34.8393 40.6449Z" fill="#F4F4F4"/>
</g>
<defs>
<filter id="filter0_d_965_10375" x="0" y="0.984375" width="64" height="64" filterUnits="userSpaceOnUse" color-interpolation-filters="sRGB">
<feFlood flood-opacity="0" result="BackgroundImageFix"/>
<feColorMatrix in="SourceAlpha" type="matrix" values="0 0 0 0 0 0 0 0 0 0 0 0 0 0 0 0 0 0 127 0" result="hardAlpha"/>
<feOffset dy="4"/>
<feGaussianBlur stdDeviation="2"/>
<feComposite in2="hardAlpha" operator="out"/>
<feColorMatrix type="matrix" values="0 0 0 0 0 0 0 0 0 0 0 0 0 0 0 0 0 0 0.25 0"/>
<feBlend mode="normal" in2="BackgroundImageFix" result="effect1_dropShadow_965_10375"/>
<feBlend mode="normal" in="SourceGraphic" in2="effect1_dropShadow_965_10375" result="shape"/>
</filter>
</defs>
</svg>
