<svg width="75" height="75" viewBox="0 0 75 75" fill="none" xmlns="http://www.w3.org/2000/svg">
<path d="M51.9743 64.9207C52.7101 64.0694 53.0689 63.1816 53.1905 62.0687C53.5857 58.3897 55.9938 56.0668 59.6667 55.7445C60.5971 55.6654 61.3573 55.3675 62.0931 54.7837C64.8782 52.5641 67.572 52.2844 70.2902 53.9263C72.8443 48.8851 74.2976 43.1872 74.2976 37.1488C74.2976 16.6315 57.6661 0 37.1488 0C16.6315 0 0 16.6315 0 37.1488C0 57.6661 16.6315 74.2976 37.1488 74.2976C41.9528 74.2976 46.5318 73.3794 50.7459 71.7193C50.6425 71.4456 50.5452 71.172 50.4723 70.8923C49.8885 68.6727 50.4966 66.6356 51.9743 64.9207Z" fill="#2E8E9E"/>
</svg>
