<svg width="51" height="51" viewBox="0 0 51 51" fill="none" xmlns="http://www.w3.org/2000/svg">
<g clip-path="url(#clip0_59_325)">
<path d="M25.453 50.9955C19.4503 50.9955 13.4432 51.0045 7.44058 50.9955C3.62398 50.9866 0.721212 48.5316 0.0806324 44.7953C0 44.3293 0.00447958 43.85 0.00447958 43.3796C0 31.4629 0 19.5506 0 7.63837C0 3.0912 3.08643 0.0134592 7.64664 0.0134592C17.5644 0.00897925 27.4867 0.0268991 37.4045 1.93078e-05C39.7249 -0.00446066 41.6511 0.770574 43.2638 2.42816C45.0198 4.22911 46.8026 6.00318 48.5989 7.76381C50.2295 9.36316 51.0045 11.2716 51 13.5609C50.9776 23.5512 51 33.5416 50.9866 43.5319C50.9866 47.3936 48.5094 50.3101 44.742 50.9239C44.2538 51.0045 43.7476 50.9911 43.2503 50.9955C37.3194 50.9955 31.3839 50.9955 25.453 50.9955ZM36.4324 3.66016C36.4324 3.98271 36.4324 4.24255 36.4324 4.50239C36.4324 7.20829 36.4548 9.9142 36.4279 12.6156C36.3966 15.8412 34.0627 18.1797 30.8374 18.2021C26.0667 18.229 21.2959 18.2425 16.5296 18.1797C15.6382 18.1663 14.6706 17.9378 13.8733 17.5346C11.9336 16.558 10.9615 14.878 10.9526 12.6963C10.9391 9.89628 10.9526 7.09629 10.9436 4.29631C10.9436 3.98271 11.0466 3.59296 10.5001 3.60192C9.31304 3.61984 8.12596 3.59296 6.94335 3.64672C6.03399 3.68704 5.25903 4.09919 4.62292 4.75775C3.83452 5.58206 3.59262 6.59006 3.59262 7.69661C3.5971 19.5596 3.59262 31.4225 3.60158 43.2855C3.60158 43.6887 3.62846 44.0964 3.70461 44.4861C4.01818 46.1437 5.48748 47.3354 7.28379 47.3354C7.28379 47.0576 7.28379 46.7799 7.28379 46.5021C7.28379 41.4487 7.28379 36.3953 7.28379 31.3419C7.28379 27.8027 9.57734 25.5135 13.1252 25.5135C21.381 25.5135 29.6414 25.5135 37.8972 25.5135C41.4316 25.5135 43.7162 27.8117 43.7162 31.3598C43.7162 36.4132 43.7162 41.4666 43.7162 46.52V47.3488C45.9739 47.2772 47.3939 45.7316 47.3984 43.4065C47.4029 33.443 47.3984 23.4751 47.4029 13.5116C47.4029 12.2841 46.9997 11.2582 46.1173 10.3891C44.2851 8.59709 42.4574 6.80062 40.6835 4.95039C39.5099 3.72288 38.1123 3.472 36.4324 3.66016ZM10.9078 47.3578H40.0877C40.0877 47.0621 40.0877 46.8068 40.0877 46.5514C40.0877 41.5204 40.0877 36.4939 40.0877 31.4629C40.0877 29.7515 39.4785 29.1422 37.7763 29.1422C29.5921 29.1422 21.4079 29.1422 13.2192 29.1422C11.5125 29.1422 10.9078 29.7515 10.9078 31.4629C10.9078 36.4939 10.9078 41.5204 10.9078 46.5514C10.9078 46.8068 10.9078 47.0576 10.9078 47.3578ZM14.5676 3.64224C14.5542 3.91103 14.5407 4.09919 14.5407 4.28735C14.5407 6.99326 14.5362 9.69916 14.5407 12.4051C14.5407 13.8835 15.235 14.5689 16.7312 14.5689C21.3586 14.5689 25.986 14.5689 30.6134 14.5689C32.1275 14.5689 32.7905 13.9148 32.7905 12.4095C32.795 9.70364 32.7905 6.99774 32.7905 4.29183C32.7905 4.08575 32.7636 3.87967 32.7457 3.64224H14.5676Z" fill="white"/>
</g>
<defs>
<clipPath id="clip0_59_325">
<rect width="51" height="51" fill="white"/>
</clipPath>
</defs>
</svg>
