<svg width="112" height="113" viewBox="0 0 112 113" fill="none" xmlns="http://www.w3.org/2000/svg">
<path fill-rule="evenodd" clip-rule="evenodd" d="M3.08984 56.4795C3.08984 27.4635 26.612 3.94141 55.628 3.94141C84.644 3.94141 108.166 27.4635 108.166 56.4795C108.166 85.4956 84.644 109.018 55.628 109.018C26.612 109.018 3.08984 85.4956 3.08984 56.4795ZM55.628 0.941406C24.9551 0.941406 0.0898438 25.8067 0.0898438 56.4795C0.0898438 87.1524 24.9551 112.018 55.628 112.018C86.3008 112.018 111.166 87.1524 111.166 56.4795C111.166 25.8067 86.3008 0.941406 55.628 0.941406ZM59.6828 49.9944C57.0342 50.5248 54.3408 50.5051 51.6473 50.4462H51.6698C51.0835 50.436 50.8035 50.4311 50.6698 50.2887C50.5475 50.1586 50.5475 49.9135 50.5475 49.4444C50.5699 47.8337 50.5868 46.2279 50.6036 44.6221V44.622V44.622L50.6036 44.6186V44.6186C50.6204 43.0139 50.6373 41.4092 50.6597 39.7996L50.6596 39.7602C50.6584 39.5465 50.6576 39.4067 50.9964 39.4067C51.2141 39.405 51.4321 39.403 51.6501 39.401C53.9494 39.3799 56.2624 39.3588 58.5381 39.6817C60.0419 39.8978 61.4785 40.2317 62.7803 40.9389C64.6433 41.9603 65.4289 43.4532 65.3167 45.339C65.182 47.264 63.9699 48.5015 62.062 49.3069C61.2989 49.6212 60.4909 49.8176 59.6828 49.9944ZM65.2741 59.0128C63.9191 58.1662 62.4087 57.743 60.8539 57.4534C57.922 56.8971 54.9724 56.9255 52.021 56.954H52.0209C51.6631 56.9574 51.3052 56.9609 50.9473 56.9633C50.672 56.9633 50.6752 57.0854 50.6796 57.2526C50.6802 57.2742 50.6807 57.2967 50.6807 57.3197L50.5475 70.3741C50.5475 70.6637 50.6363 70.7528 50.9029 70.7528C51.4582 70.7528 52.0079 70.7639 52.5577 70.7751C53.1074 70.7862 53.6572 70.7973 54.2125 70.7973C56.7446 70.7973 59.2546 70.686 61.8534 70.1068C62.8085 69.8617 63.8525 69.5498 64.852 69.0152C66.8067 67.9904 68.0284 66.4533 68.095 64.1588C68.1616 61.9088 67.2287 60.1934 65.3185 59.0128H65.2741ZM8.05595 56.4795C8.05595 29.6902 29.5556 7.98378 56.0898 7.98378C82.6241 7.98378 104.124 29.6902 104.124 56.4795C104.124 83.2689 82.6241 104.975 56.0898 104.975C29.5556 104.975 8.05595 83.2689 8.05595 56.4795ZM72.0795 76.3752C74.7805 75.1972 76.898 73.3865 78.1513 70.6378H78.1297C79.2749 68.129 79.599 65.4457 79.4478 62.7188C79.2317 58.8138 77.5031 55.8905 73.9378 54.1671C72.9654 53.709 71.9499 53.3599 70.9127 53.0763C70.9613 52.9782 71.0343 52.9413 71.1133 52.9015C71.1396 52.8882 71.1666 52.8745 71.1936 52.8582C74.3051 51.1566 75.9473 48.5169 76.1418 44.9828C76.293 42.4522 75.9257 40.0307 74.4564 37.8928C73.1383 35.973 71.2801 34.795 69.1841 33.966C66.8505 33.0497 64.4304 32.5916 61.9671 32.3516C61.643 32.3298 61.5134 32.2426 61.5134 31.8499C61.5522 30.0185 61.5678 28.1792 61.5834 26.3415C61.5937 25.1145 61.6041 23.8883 61.6214 22.6656C61.6214 22.3383 61.5566 22.2293 61.2109 22.2293C60.3682 22.2293 59.5201 22.2184 58.672 22.2075C57.8239 22.1966 56.9758 22.1856 56.1331 22.1856C55.8422 22.1748 55.6964 22.1693 55.6232 22.2396C55.5497 22.3102 55.5497 22.4575 55.5497 22.7528C55.5425 23.7168 55.5329 24.6831 55.5233 25.6502C55.5041 27.5942 55.4848 29.5415 55.4848 31.479C55.4848 31.8281 55.42 31.959 55.0311 31.959C53.6914 31.9372 52.3517 31.9372 51.012 31.959C50.6663 31.9808 50.6231 31.8717 50.6231 31.5663C50.6663 28.5994 50.6879 25.6543 50.7095 22.6874C50.7202 22.3954 50.7256 22.2482 50.6547 22.1739C50.5825 22.0984 50.4312 22.0984 50.1261 22.0984C49.5771 22.0911 49.0258 22.0862 48.4736 22.0814C47.374 22.0717 46.2712 22.062 45.178 22.0329C44.7458 22.0329 44.6378 22.142 44.6378 22.5783C44.6378 24.0836 44.6216 25.5943 44.6054 27.105C44.5892 28.6157 44.5729 30.1265 44.5729 31.6317C44.5729 32.0244 44.4433 32.1117 44.076 32.1117C41.9152 32.068 39.7328 32.0462 37.5721 32.0462C36.7726 32.0462 35.9677 32.0353 35.1628 32.0244C34.3579 32.0135 33.553 32.0026 32.7535 32.0026C32.7304 32.0026 32.7061 32.0014 32.6813 32.0002C32.5213 31.9925 32.343 31.9839 32.343 32.2862C32.343 34.272 32.3218 36.2365 32.3005 38.2219L32.2998 38.2854C32.2998 38.4818 32.343 38.5472 32.5591 38.5472H33.6827C33.9514 38.5472 34.2202 38.5442 34.4887 38.5412C35.4724 38.5302 36.4533 38.5192 37.4208 38.6563C39.1494 38.8745 40.165 40.0961 40.165 41.7977C40.1434 44.5576 40.1164 47.3175 40.0893 50.0774C40.0623 52.8368 40.0353 55.5963 40.0137 58.3557C39.992 60.0434 39.9758 61.7367 39.9595 63.4327C39.9433 65.1127 39.9272 66.7953 39.9057 68.478C39.8841 69.896 39.1494 70.725 37.7881 70.8341C36.7835 70.9121 35.7679 70.8785 34.757 70.8451C34.3546 70.8318 33.9529 70.8185 33.553 70.8123C33.2721 70.8123 33.1641 70.8777 33.1209 71.1613C32.7535 73.3429 32.3646 75.5244 31.9757 77.6842C31.9108 78.0114 31.9541 78.1205 32.3214 78.1205C34.8279 78.135 37.3344 78.169 39.8409 78.2029C41.0941 78.2199 42.3474 78.2368 43.6006 78.2514C43.9679 78.2514 44.1192 78.295 44.1192 78.7531C44.0803 80.5987 44.0647 82.4443 44.0492 84.2898C44.0388 85.5202 44.0284 86.7506 44.0111 87.9811C43.9895 88.3519 44.0976 88.4392 44.4433 88.4392C46.1503 88.4392 47.8789 88.4392 49.6075 88.4828C49.9533 88.4828 50.0613 88.4174 50.0613 88.0465C50.0699 86.8265 50.0855 85.6029 50.101 84.3787C50.1244 82.5383 50.1477 80.6963 50.1477 78.8622C50.1477 78.5131 50.2342 78.4259 50.5799 78.4259L50.6443 78.428C51.9618 78.4709 53.2588 78.5131 54.5557 78.5131C54.9014 78.5131 55.0095 78.6004 55.0095 78.9713C54.9879 80.4985 54.9716 82.0312 54.9554 83.5638C54.9392 85.0962 54.923 86.6286 54.9014 88.1556C54.9014 88.4828 54.9879 88.5483 55.2904 88.5483C55.8625 88.5556 56.437 88.5604 57.0131 88.5653C58.1561 88.575 59.3053 88.5847 60.4546 88.6137C60.8651 88.6355 60.9732 88.5264 60.9732 88.112C60.9818 86.8714 60.9974 85.6343 61.013 84.3979C61.0363 82.5469 61.0596 80.6976 61.0596 78.8404C61.0596 78.535 61.146 78.4259 61.4269 78.4259C61.6665 78.4098 61.906 78.395 62.1452 78.3802C62.877 78.335 63.6058 78.2899 64.3224 78.2077C66.9801 77.9241 69.5947 77.4442 72.0795 76.3752Z" fill="white"/>
</svg>
