<svg width="116" height="125" viewBox="0 0 116 125" fill="none" xmlns="http://www.w3.org/2000/svg">
<path fill-rule="evenodd" clip-rule="evenodd" d="M24.531 45.5391L21.7715 48.1146L21.775 48.1181C22.5958 48.1181 23.3706 48.1269 24.1126 48.1353C25.8622 48.1551 27.4296 48.1728 28.9884 48.0687C29.8847 48.0087 30.9399 47.6205 31.5893 47.0206C42.8292 36.6558 54.0304 26.2487 65.1998 15.8063C66.0856 14.977 66.6749 14.9099 67.7513 15.4993C72.8154 18.2625 78.1055 18.7954 83.5366 16.6391C84.5036 16.258 85.0753 16.3462 85.8023 17.1367C90.2559 21.9856 94.7519 26.8028 99.2902 31.574C100.098 32.4245 100.268 33.0562 99.7349 34.1573C97.8751 38.0039 97.6387 42.0411 98.5491 46.2019C98.8632 47.6382 99.4455 48.1428 100.995 48.1852L101.284 48.1925C103.234 48.2414 105.439 48.2965 106.945 49.258C109.528 50.9061 111.031 50.112 112.602 48.1464C112.647 48.0877 112.705 48.0391 112.763 47.9905L112.763 47.9904L112.763 47.9903C112.796 47.963 112.829 47.9356 112.859 47.9064C115.976 44.8891 116.155 40.6754 113.212 37.5169C102.548 26.0722 91.8652 14.6452 81.1581 3.2394C80.4099 2.44184 79.4959 1.6831 78.5078 1.25608C75.3457 -0.109652 72.6143 0.726729 70.1334 3.04883C61.6136 11.0155 53.0728 18.9611 44.5319 26.9067C40.9736 30.2171 37.4152 33.5275 33.8584 36.8393C30.8073 39.6809 27.7606 42.5247 24.5332 45.5371L24.531 45.5391ZM24.0067 40.5498L24.0079 40.5487L24.0093 40.5473C24.5002 40.0896 25.0067 39.6174 25.5362 39.1276C24.0348 39.1276 22.5873 39.1022 21.1779 39.0775C18.1584 39.0246 15.3141 38.9747 12.4894 39.1841C5.76305 39.6852 0.970624 45.0775 0.963566 51.8321C0.935335 73.1322 0.949448 94.4287 0.963563 115.729L0.963566 115.732C0.963566 116.604 1.02356 117.507 1.25295 118.344C2.30107 122.162 5.41721 124.244 10.0085 124.244H101.227L101.361 124.245L101.492 124.245C101.756 124.247 102.021 124.248 102.286 124.237C107.032 124.026 110.286 120.719 110.35 115.951C110.374 114.151 110.368 112.351 110.362 110.552V110.55V110.55V110.55C110.355 108.525 110.347 106.501 110.385 104.478C110.406 103.229 109.997 102.873 108.772 102.887C104.071 102.95 99.3636 102.968 94.6594 102.897C86.8073 102.784 80.508 96.2062 80.5292 88.2376C80.5539 80.075 86.7861 73.5568 94.7194 73.451C97.2508 73.4167 99.7839 73.4249 102.316 73.4331H102.317H102.318H102.318C103.432 73.4368 104.546 73.4404 105.659 73.4404H110.36V61.6075C110.36 55.1776 107.297 52.1215 100.849 52.1215C87.268 52.1197 73.6858 52.1197 60.1035 52.1197C46.514 52.1197 32.9244 52.1197 19.3357 52.118C17.2783 52.118 15.2209 52.1144 13.1634 52.0368C10.9613 51.9521 9.47913 50.4487 9.43325 48.3772C9.38737 46.1927 10.8519 44.5729 13.0999 44.4706C14.162 44.4211 15.2278 44.4258 16.2936 44.4305C17.0516 44.4339 17.8096 44.4373 18.5664 44.4211L18.6777 44.4191C19.17 44.4105 19.7586 44.4003 20.0733 44.1282C21.3715 43.007 22.6275 41.8358 24.0067 40.5498ZM100.002 98.8886H100.002C98.3342 98.8946 96.6662 98.9006 94.9999 98.8762C89.1347 98.795 84.6351 94.1402 84.6387 88.1903C84.6387 82.2262 89.1029 77.5644 94.9858 77.4903C99.8594 77.4303 104.737 77.4444 109.614 77.4797C113.351 77.5079 115.497 79.6853 115.528 83.4155C115.557 86.5881 115.585 89.7642 115.535 92.9368C115.475 96.7976 113.344 98.8515 109.455 98.8833C107.85 98.895 106.244 98.8911 104.638 98.8872H104.638C103.835 98.8852 103.033 98.8833 102.231 98.8833H102.224C101.483 98.8833 100.743 98.8859 100.002 98.8886ZM100.608 88.215C100.625 85.2824 98.3137 82.8791 95.4269 82.8262C92.5049 82.7732 89.9534 85.2577 89.9605 88.1515C89.9675 91.0911 92.4378 93.5544 95.3634 93.5403C98.2325 93.5262 100.59 91.1335 100.608 88.2115V88.215ZM81.8175 46.1337C81.841 46.7646 81.8656 47.4245 81.9279 48.1158H81.9385C82.3722 48.1158 82.8373 48.1105 83.3251 48.1049C84.5639 48.0906 85.9483 48.0747 87.3309 48.1405C88.4637 48.1935 88.8131 47.7806 88.9895 46.6901C90.3482 38.3016 85.3158 29.3131 77.072 25.9076C70.4198 23.1585 63.9687 23.6632 58.3752 28.4203C52.7605 33.1916 51.4089 39.4697 53.0005 46.4995C53.0122 46.5518 53.0235 46.604 53.0349 46.656C53.2038 47.4327 53.3614 48.1573 54.5885 48.1441C58.1729 48.1073 61.7572 48.106 65.3415 48.1046C68.6353 48.1034 71.929 48.1022 75.2228 48.0735C75.7274 48.07 76.5673 47.5794 76.6556 47.1842C76.8391 46.3513 76.9449 45.1514 76.4862 44.6256C76.0309 44.1033 74.7499 43.8951 73.9911 44.1104C72.9716 44.401 71.981 44.7985 70.9914 45.1957C69.8539 45.6522 68.7177 46.1082 67.5401 46.4007C62.4124 47.6747 58.1423 43.0905 59.6386 38.0228C59.8387 37.3502 60.1475 36.7088 60.4559 36.0684C60.5989 35.7713 60.7418 35.4745 60.8737 35.1749C60.642 34.873 60.423 34.5864 60.1899 34.2813C60.036 34.08 59.876 33.8705 59.7021 33.6433C60.2671 33.1105 60.8138 32.596 61.3605 32.0815C61.7119 31.7509 62.0632 31.4202 62.4194 31.0847C62.9594 31.547 63.3899 31.914 63.7852 32.2493C64.196 32.0184 64.5964 31.7868 64.9911 31.5586C65.9598 30.9985 66.8944 30.4581 67.8647 29.9942C68.2776 29.7966 69.0893 29.8037 69.3716 30.0789C70.2557 30.9346 71.0701 31.8637 71.8753 32.7824C72.1726 33.1216 72.4687 33.4594 72.7666 33.7915C71.0091 36.0998 71.002 36.0964 68.9391 35.0985L68.8635 35.0619C68.4717 34.8749 67.7836 34.8431 67.4589 35.0655C67.3857 35.1159 67.3118 35.1665 67.2375 35.2174C66.346 35.8281 65.4015 36.4751 64.8509 37.3417C64.4028 38.0475 64.2334 39.4203 64.6392 40.0273C65.0133 40.5919 66.4072 40.8848 67.1942 40.6802C68.3977 40.3679 69.5555 39.8908 70.7142 39.4133C71.3496 39.1514 71.9853 38.8895 72.6289 38.6545C76.3732 37.2888 80.114 38.8627 81.3668 42.5894C81.7254 43.6605 81.7692 44.8355 81.8175 46.1337Z" fill="white"/>
</svg>
