<svg width="372" height="47" viewBox="0 0 372 47" fill="none" xmlns="http://www.w3.org/2000/svg">
<path d="M-92.4999 37.7159L-118.157 18.0236C-148.168 -5.01056 -189.889 -5.08459 -219.981 17.8429C-240.788 33.6954 -253 58.353 -253 84.5103V209H833V100.496C833 68.742 807.258 43 775.504 43C760.03 43 745.21 49.2368 734.392 60.3006L727.888 66.9536C699.077 96.4205 652.54 99.0274 620.618 72.9625L590.298 48.2051C586.055 44.7408 582.101 40.9375 578.474 36.8329C542.88 -3.44857 481.997 -8.85518 439.862 24.5238L416.538 43C369.908 81.6936 302.812 83.3143 254.368 46.9173L249.154 43C200.664 5.22479 132.876 4.62343 83.7237 41.5324L81.7692 43L72.5575 52.13C30.0776 94.2333 -38.7762 92.9677 -79.6801 49.3317C-83.6304 45.1176 -87.9179 41.2328 -92.4999 37.7159Z" fill="#2E8E9E"/>
</svg>
