<svg width="372" height="87" viewBox="0 0 372 87" fill="none" xmlns="http://www.w3.org/2000/svg">
<path d="M-230.5 37.7159L-256.157 18.0236C-286.168 -5.01056 -327.889 -5.08459 -357.981 17.8429C-378.788 33.6954 -391 58.353 -391 84.5103V209H695V100.496C695 68.742 669.258 43 637.504 43C622.03 43 607.21 49.2368 596.392 60.3006L589.888 66.9536C561.077 96.4205 514.54 99.0274 482.618 72.9625L452.298 48.2051C448.055 44.7408 444.101 40.9375 440.474 36.8329C404.88 -3.44857 343.997 -8.85518 301.862 24.5238L278.538 43C231.908 81.6936 164.812 83.3143 116.368 46.9173L111.154 43C62.6635 5.22479 -5.1235 4.62343 -54.2763 41.5324L-56.2308 43L-65.4425 52.13C-107.922 94.2333 -176.776 92.9677 -217.68 49.3317C-221.63 45.1176 -225.918 41.2328 -230.5 37.7159Z" fill="#2E8E9E"/>
<path d="M-230.5 37.7159L-256.157 18.0236C-286.168 -5.01056 -327.889 -5.08459 -357.981 17.8429C-378.788 33.6954 -391 58.353 -391 84.5103V209H695V100.496C695 68.742 669.258 43 637.504 43C622.03 43 607.21 49.2368 596.392 60.3006L589.888 66.9536C561.077 96.4205 514.54 99.0274 482.618 72.9625L452.298 48.2051C448.055 44.7408 444.101 40.9375 440.474 36.8329C404.88 -3.44857 343.997 -8.85518 301.862 24.5238L278.538 43C231.908 81.6936 164.812 83.3143 116.368 46.9173L111.154 43C62.6635 5.22479 -5.1235 4.62343 -54.2763 41.5324L-56.2308 43L-65.4425 52.13C-107.922 94.2333 -176.776 92.9677 -217.68 49.3317C-221.63 45.1176 -225.918 41.2328 -230.5 37.7159Z" fill="black" fill-opacity="0.2"/>
</svg>
