<svg width="62" height="63" viewBox="0 0 62 63" fill="none" xmlns="http://www.w3.org/2000/svg">
<g filter="url(#filter0_d_965_10365)">
<circle cx="31" cy="27.9844" r="26" stroke="white" stroke-width="2"/>
<path d="M52.9997 33.9027C52.4784 34.6402 51.9571 34.6518 51.4089 33.933C50.5616 32.8224 49.7181 31.7092 48.8725 30.5973C48.786 30.4837 48.6936 30.3752 48.5693 30.2208C48.3995 31.01 48.2676 31.7554 48.0765 32.4863C47.0272 36.5034 44.8101 39.758 41.4991 42.2884C38.7884 44.3604 35.7063 45.5143 32.3189 45.8928C31.7526 45.9561 31.1792 45.9698 30.6083 45.9814C30.0883 45.9923 29.7254 45.6707 29.7077 45.2231C29.6901 44.7793 30.019 44.4411 30.5567 44.4215C32.4844 44.3516 34.368 44.0671 36.1843 43.3953C39.2559 42.2593 41.7826 40.3961 43.7515 37.8087C45.5317 35.4692 46.6025 32.8344 46.9482 29.9188C46.9549 29.8631 46.9574 29.8069 46.9667 29.6859C46.8218 29.7778 46.7155 29.8361 46.6193 29.9076C45.32 30.8739 44.0258 31.8477 42.7189 32.8041C42.5278 32.9438 42.2577 33.1061 42.0565 33.0715C41.8074 33.0287 41.5301 32.8361 41.3777 32.6273C41.1849 32.364 41.2647 32.0395 41.4978 31.7916C41.6066 31.6759 41.736 31.5773 41.8637 31.4821C43.641 30.1555 45.4192 28.8306 47.1977 27.5062C47.8262 27.0382 48.1983 27.091 48.6739 27.7162C49.9954 29.4534 51.3161 31.1909 52.6343 32.9301C52.7649 33.1023 52.8783 33.2879 52.9997 33.4667V33.9018V33.9027Z" fill="white"/>
<path d="M14.0386 26.3031C15.4022 25.2865 16.6863 24.3281 17.9722 23.3717C18.1591 23.2328 18.3439 23.0847 18.5485 22.9762C18.9102 22.784 19.2966 22.8722 19.5348 23.1717C19.7743 23.4728 19.7495 23.9059 19.4621 24.2025C19.3517 24.3164 19.2193 24.4113 19.0908 24.507C17.3357 25.8156 15.5799 27.123 13.8244 28.4305C13.1414 28.9388 12.8036 28.8926 12.2874 28.2154C10.9822 26.5016 9.67872 24.7865 8.37482 23.0718C8.33072 23.014 8.28703 22.9558 8.2446 22.8967C7.89426 22.4075 7.92157 21.9558 8.31811 21.6696C8.68987 21.4017 9.15447 21.4994 9.50019 21.9416C9.97529 22.5494 10.4361 23.1683 10.9032 23.7823C11.3934 24.4267 11.8841 25.071 12.4214 25.7769C12.5596 25.0918 12.6646 24.4857 12.8049 23.888C13.7425 19.8883 15.8533 16.6004 19.0488 14.0126C21.7158 11.8525 24.7811 10.5554 28.2105 10.1428C28.907 10.0592 29.6102 10.0234 30.3113 9.98638C30.8691 9.95685 31.2443 10.2559 31.277 10.7189C31.3094 11.1773 30.9729 11.5251 30.41 11.5451C28.4957 11.6133 26.6273 11.9024 24.8248 12.57C21.7381 13.7127 19.2038 15.59 17.2253 18.1903C15.5286 20.4204 14.4789 22.9275 14.0785 25.6958C14.0617 25.8106 14.05 25.9263 14.0395 26.0415C14.0344 26.0972 14.0386 26.1538 14.0386 26.3031Z" fill="white"/>
<path d="M31.5391 37.0152V39.67C31.5391 39.7032 31.5118 39.7303 31.4782 39.7303H29.7194C29.6857 39.7303 29.6584 39.7032 29.6584 39.67V37.0971C29.6584 37.0643 29.6316 37.0381 29.5988 37.0376C27.8908 37.0214 26.2991 36.6358 24.823 35.8821C24.8024 35.8717 24.7894 35.8504 24.7894 35.8271V32.4531C24.7894 32.4032 24.8449 32.3753 24.8852 32.4053C25.3809 32.7768 26.0921 33.122 27.0179 33.4411C27.9777 33.7718 28.8364 33.9656 29.5933 34.0235C29.629 34.0264 29.6589 33.9977 29.6589 33.9619V29.4261C29.6589 29.4011 29.6425 29.3786 29.619 29.3699C27.6312 28.6349 26.2727 27.8379 25.5434 26.9801C25.1553 26.5238 24.8696 26.0146 24.6865 25.4522C23.9736 23.2625 24.8965 20.8124 26.8872 19.626C27.6556 19.168 28.5612 18.8852 29.6047 18.7766C29.6353 18.7733 29.6589 18.7483 29.6589 18.7175V16.4588C29.6589 16.4255 29.6862 16.3984 29.7198 16.3984H31.4786C31.5122 16.3984 31.5395 16.4255 31.5395 16.4588V18.6634C31.5395 18.6955 31.5656 18.7217 31.5979 18.7233C33.3588 18.8111 34.6816 19.0931 35.5655 19.5703C35.5856 19.5811 35.5974 19.6019 35.5974 19.6244V22.9272C35.5974 22.9738 35.5474 23.0017 35.5067 22.978C34.3452 22.2983 33.0463 21.876 31.6088 21.713C31.5723 21.7088 31.5395 21.7375 31.5395 21.7741V26.4984C31.5395 26.5238 31.5559 26.5462 31.5798 26.555C33.4395 27.223 34.7741 27.9859 35.5839 28.8433C36.4001 29.7064 36.808 30.7501 36.808 31.9743C36.808 33.3862 36.3531 34.5239 35.4428 35.3866C34.5422 36.2406 33.2589 36.7639 31.5937 36.9561C31.5635 36.9594 31.5399 36.9848 31.5399 37.0152H31.5391ZM29.6584 25.7006V21.8315C29.6584 21.7933 29.6211 21.7637 29.5828 21.7712C28.4394 21.9958 27.8681 22.6078 27.8681 23.6065C27.8681 24.4601 28.4344 25.176 29.5673 25.7546C29.608 25.7754 29.6584 25.7459 29.6584 25.7006ZM31.5391 30.2064V33.9049C31.5391 33.9423 31.5752 33.9719 31.6126 33.9652C32.7917 33.766 33.3811 33.1615 33.3811 32.1532C33.3811 31.34 32.7968 30.6727 31.6277 30.1511C31.5874 30.1332 31.5391 30.1623 31.5391 30.2064Z" fill="white"/>
</g>
<defs>
<filter id="filter0_d_965_10365" x="0" y="0.984375" width="62" height="62" filterUnits="userSpaceOnUse" color-interpolation-filters="sRGB">
<feFlood flood-opacity="0" result="BackgroundImageFix"/>
<feColorMatrix in="SourceAlpha" type="matrix" values="0 0 0 0 0 0 0 0 0 0 0 0 0 0 0 0 0 0 127 0" result="hardAlpha"/>
<feOffset dy="4"/>
<feGaussianBlur stdDeviation="2"/>
<feComposite in2="hardAlpha" operator="out"/>
<feColorMatrix type="matrix" values="0 0 0 0 0 0 0 0 0 0 0 0 0 0 0 0 0 0 0.25 0"/>
<feBlend mode="normal" in2="BackgroundImageFix" result="effect1_dropShadow_965_10365"/>
<feBlend mode="normal" in="SourceGraphic" in2="effect1_dropShadow_965_10365" result="shape"/>
</filter>
</defs>
</svg>
