<svg width="62" height="47" viewBox="0 0 62 47" fill="none" xmlns="http://www.w3.org/2000/svg">
<g id="icono de camara">
<path id="Vector" d="M12.0834 19.5612C12.0834 17.1991 11.8592 14.8725 12.146 12.6071C12.4361 10.3417 14.4834 8.68542 16.8141 8.54685C20.4372 8.33095 23.2427 6.59083 25.5636 4.09988C27.713 1.79261 30.2218 0.619639 33.3998 0.690533C36.2383 0.754982 39.0833 0.671197 41.9185 0.809762C44.2723 0.92577 46.1482 2.10518 47.6844 3.82596C49.3987 5.74976 51.4921 7.15476 53.9349 8.02804C54.6899 8.29873 55.524 8.42763 56.3316 8.47274C59.4569 8.64353 61.9525 11.0539 61.969 14.1152C62.0052 20.196 62.0151 26.2767 61.969 32.3607C61.9426 35.7733 59.0679 38.6477 55.6789 38.6606C46.0789 38.6896 36.4757 38.667 26.8757 38.6638C26.7504 38.6638 26.6251 38.6477 26.4009 38.6348C27.6372 33.9139 27.0009 29.4992 24.0108 25.5742C21.0372 21.6719 16.9394 19.7577 12.09 19.5579L12.0834 19.5612ZM48.7361 20.196C48.6932 14.1797 43.5833 9.04956 36.9932 9.25579C30.6834 9.45236 25.8009 14.6566 26.068 20.7889C26.3416 27.0952 31.5471 31.6679 38.1734 31.4197C43.9888 31.2038 48.9767 25.9029 48.7361 20.196ZM55.0393 17.7566C56.4635 17.7727 57.5811 16.7286 57.6108 15.3559C57.6404 13.9573 56.5031 12.7908 55.0888 12.7779C53.6811 12.7618 52.491 13.9251 52.4976 15.3075C52.5042 16.6706 53.6152 17.7405 55.0393 17.7566Z" fill="white"/>
<path id="Vector_2" d="M0.000465671 34.1709C0.0598527 27.3651 5.7346 22.0503 12.8709 22.1178C19.5487 22.1789 25.0816 27.8407 24.9991 34.5212C24.9166 41.057 19.2154 46.4907 12.4552 46.4682C5.56964 46.4457 -0.0589213 40.8867 0.000465671 34.1709ZM10.0798 31.9184C9.29454 31.9184 8.66437 31.9152 8.03421 31.9184C6.38457 31.9345 5.32879 32.831 5.3057 34.2352C5.2826 35.649 6.29219 36.5745 7.95173 36.6355C8.63468 36.6612 9.31763 36.6387 10.0765 36.6387C10.0765 37.4099 10.0699 38.0526 10.0765 38.692C10.0963 40.2119 11.0464 41.2659 12.4222 41.3077C13.8244 41.3494 14.8736 40.273 14.9165 38.7338C14.933 38.0686 14.9165 37.4003 14.9165 36.6259C15.7974 36.6259 16.5529 36.6676 17.3019 36.6162C18.7536 36.5198 19.7104 35.5494 19.6906 34.2545C19.6708 32.9338 18.6216 31.9602 17.16 31.9216C16.4441 31.9023 15.7248 31.9216 14.9165 31.9216C14.9165 31.0701 14.9594 30.3342 14.9066 29.6048C14.8043 28.1813 13.8244 27.2687 12.4783 27.288C11.0431 27.3105 10.1194 28.2327 10.0798 29.7141C10.06 30.4146 10.0765 31.1151 10.0765 31.9216L10.0798 31.9184Z" fill="white"/>
<path id="Vector_3" d="M37.9802 27.9597C33.5623 27.9532 30.0232 24.5129 30.0001 20.1981C29.977 15.9122 33.6416 12.3557 38.0595 12.3751C42.4048 12.3944 46.0033 15.9542 46 20.2303C45.9967 24.4968 42.3949 27.9661 37.9835 27.9597H37.9802Z" fill="white"/>
</g>
</svg>
