<svg width="62" height="62" viewBox="0 0 62 62" fill="none" xmlns="http://www.w3.org/2000/svg">
<g id="icono reinvertir" filter="url(#filter0_d_2600_7556)">
<path id="Ellipse 6" d="M57 27.0921C57 41.0399 45.3844 52.3913 31 52.3913C16.6156 52.3913 5 41.0399 5 27.0921C5 13.1444 16.6156 1.79297 31 1.79297C45.3844 1.79297 57 13.1444 57 27.0921Z" stroke="white" stroke-width="2"/>
<g id="Group 44">
<path id="Vector" d="M52.9997 32.8575C52.4784 33.5759 51.9571 33.5872 51.4089 32.8871C50.5616 31.8052 49.7181 30.721 48.8725 29.6379C48.786 29.5273 48.6936 29.4215 48.5693 29.2712C48.3995 30.0398 48.2676 30.7659 48.0765 31.4778C47.0272 35.3907 44.8101 38.5608 41.4991 41.0255C38.7884 43.0437 35.7063 44.1677 32.3189 44.5364C31.7526 44.598 31.1792 44.6114 30.6083 44.6227C30.0883 44.6333 29.7254 44.3201 29.7077 43.8841C29.6901 43.4518 30.019 43.1223 30.5567 43.1033C32.4844 43.0352 34.368 42.7581 36.1843 42.1037C39.2559 40.9972 41.7826 39.1824 43.7515 36.6621C45.5317 34.3834 46.6025 31.817 46.9482 28.9771C46.9549 28.9228 46.9574 28.8681 46.9667 28.7502C46.8218 28.8397 46.7155 28.8964 46.6193 28.9661C45.32 29.9074 44.0258 30.8559 42.7189 31.7874C42.5278 31.9235 42.2577 32.0816 42.0565 32.0479C41.8074 32.0062 41.5301 31.8186 41.3777 31.6152C41.1849 31.3587 41.2647 31.0427 41.4978 30.8012C41.6066 30.6885 41.736 30.5925 41.8637 30.4997C43.641 29.2076 45.4192 27.9171 47.1977 26.627C47.8262 26.1712 48.1983 26.2226 48.6739 26.8316C49.9954 28.5237 51.3161 30.2161 52.6343 31.9102C52.7649 32.0779 52.8783 32.2586 52.9997 32.4328V32.8567V32.8575Z" fill="white"/>
<path id="Vector_2" d="M14.0386 25.4538C15.4022 24.4635 16.6863 23.53 17.9722 22.5985C18.1591 22.4631 18.3439 22.3189 18.5485 22.2132C18.9102 22.026 19.2966 22.1119 19.5348 22.4036C19.7743 22.6969 19.7495 23.1187 19.4621 23.4076C19.3517 23.5186 19.2193 23.611 19.0908 23.7042C17.3357 24.9789 15.5799 26.2524 13.8244 27.5259C13.1414 28.021 12.8036 27.976 12.2874 27.3164C10.9822 25.6471 9.67872 23.9765 8.37482 22.3063C8.33072 22.25 8.28703 22.1933 8.2446 22.1358C7.89426 21.6593 7.92157 21.2192 8.31811 20.9405C8.68987 20.6795 9.15447 20.7748 9.50019 21.2055C9.97529 21.7974 10.4361 22.4003 10.9032 22.9984C11.3934 23.626 11.8841 24.2536 12.4214 24.9412C12.5596 24.2739 12.6646 23.6836 12.8049 23.1013C13.7425 19.2055 15.8533 16.0029 19.0488 13.4823C21.7158 11.3782 24.7811 10.1148 28.2105 9.7129C28.907 9.63145 29.6102 9.59661 30.3113 9.56055C30.8691 9.53178 31.2443 9.82311 31.277 10.2741C31.3094 10.7206 30.9729 11.0593 30.41 11.0788C28.4957 11.1452 26.6273 11.4268 24.8248 12.0771C21.7381 13.1902 19.2038 15.0187 17.2253 17.5515C15.5286 19.7237 14.4789 22.1657 14.0785 24.8622C14.0617 24.9741 14.05 25.0867 14.0395 25.1989C14.0344 25.2532 14.0386 25.3083 14.0386 25.4538Z" fill="white"/>
<path id="Vector_3" d="M31.5391 35.8863V38.4722C31.5391 38.5046 31.5118 38.5309 31.4782 38.5309H29.7194C29.6857 38.5309 29.6584 38.5046 29.6584 38.4722V35.9661C29.6584 35.9341 29.6316 35.9086 29.5988 35.9082C27.8908 35.8924 26.2991 35.5168 24.823 34.7826C24.8024 34.7725 24.7894 34.7518 24.7894 34.7291V31.4427C24.7894 31.394 24.8449 31.3669 24.8852 31.3961C25.3809 31.7579 26.0921 32.0942 27.0179 32.405C27.9777 32.7271 28.8364 32.9159 29.5933 32.9722C29.629 32.9751 29.6589 32.9471 29.6589 32.9123V28.4942C29.6589 28.4699 29.6425 28.448 29.619 28.4395C27.6312 27.7235 26.2727 26.9472 25.5434 26.1117C25.1553 25.6672 24.8696 25.1713 24.6865 24.6235C23.9736 22.4906 24.8965 20.1041 26.8872 18.9485C27.6556 18.5024 28.5612 18.2269 29.6047 18.1211C29.6353 18.1179 29.6589 18.0936 29.6589 18.0636V15.8634C29.6589 15.831 29.6862 15.8047 29.7198 15.8047H31.4786C31.5122 15.8047 31.5395 15.831 31.5395 15.8634V18.0109C31.5395 18.0421 31.5656 18.0676 31.5979 18.0692C33.3588 18.1547 34.6816 18.4295 35.5655 18.8942C35.5856 18.9047 35.5974 18.925 35.5974 18.9469V22.164C35.5974 22.2094 35.5474 22.2365 35.5067 22.2134C34.3452 21.5514 33.0463 21.1401 31.6088 20.9813C31.5723 20.9772 31.5395 21.0052 31.5395 21.0408V25.6425C31.5395 25.6672 31.5559 25.6891 31.5798 25.6976C33.4395 26.3483 34.7741 27.0914 35.5839 27.9265C36.4001 28.7673 36.808 29.7839 36.808 30.9763C36.808 32.3515 36.3531 33.4597 35.4428 34.3C34.5422 35.1318 33.2589 35.6416 31.5937 35.8288C31.5635 35.832 31.5399 35.8567 31.5399 35.8863H31.5391ZM29.6584 24.8654V21.0968C29.6584 21.0595 29.6211 21.0307 29.5828 21.038C28.4394 21.2568 27.8681 21.8528 27.8681 22.8257C27.8681 23.6571 28.4344 24.3544 29.5673 24.918C29.608 24.9383 29.6584 24.9095 29.6584 24.8654ZM31.5391 29.2543V32.8568C31.5391 32.8932 31.5752 32.922 31.6126 32.9155C32.7917 32.7214 33.3811 32.1327 33.3811 31.1505C33.3811 30.3584 32.7968 29.7085 31.6277 29.2004C31.5874 29.183 31.5391 29.2113 31.5391 29.2543Z" fill="white"/>
</g>
</g>
<defs>
<filter id="filter0_d_2600_7556" x="0" y="0.792969" width="62" height="60.5977" filterUnits="userSpaceOnUse" color-interpolation-filters="sRGB">
<feFlood flood-opacity="0" result="BackgroundImageFix"/>
<feColorMatrix in="SourceAlpha" type="matrix" values="0 0 0 0 0 0 0 0 0 0 0 0 0 0 0 0 0 0 127 0" result="hardAlpha"/>
<feOffset dy="4"/>
<feGaussianBlur stdDeviation="2"/>
<feComposite in2="hardAlpha" operator="out"/>
<feColorMatrix type="matrix" values="0 0 0 0 0 0 0 0 0 0 0 0 0 0 0 0 0 0 0.25 0"/>
<feBlend mode="normal" in2="BackgroundImageFix" result="effect1_dropShadow_2600_7556"/>
<feBlend mode="normal" in="SourceGraphic" in2="effect1_dropShadow_2600_7556" result="shape"/>
</filter>
</defs>
</svg>
