<svg width="26" height="32" viewBox="0 0 26 32" fill="none" xmlns="http://www.w3.org/2000/svg">
<g clip-path="url(#clip0_74_3126)">
<path d="M11.8146 20.9116C11.9297 20.7142 12.05 20.5168 12.1651 20.3193C13.117 18.6758 14.0689 17.027 15.0156 15.3835C15.3294 14.8392 15.7635 14.6525 16.365 14.8232C17.1182 15.0367 17.8661 15.2555 18.6193 15.4796C19.43 15.7197 20.1884 16.3066 20.5231 16.931C19.6706 17.1817 18.8181 17.4325 17.9603 17.678C17.6151 17.7794 17.3326 17.9661 17.113 18.2596C16.6161 18.9106 16.114 19.5616 15.6171 20.2179C15.4288 20.4687 15.3137 20.7515 15.3033 21.0717C15.2719 21.9415 15.23 22.8166 15.2196 23.6863C15.2196 23.9425 15.3085 24.1986 15.3608 24.4761C15.298 24.4761 15.2091 24.4761 15.1254 24.4761C10.3972 24.4761 5.67422 24.4761 0.945998 24.4761C0.260824 24.4761 -0.0320745 24.1772 0.00976819 23.4782C0.103914 21.8347 0.19283 20.1913 0.323588 18.5478C0.438656 17.1124 1.43242 15.9064 2.78185 15.4902C3.55594 15.2501 4.34049 15.0313 5.11981 14.8126C5.6533 14.6632 6.09788 14.8446 6.38555 15.3355C7.42115 17.1124 8.4463 18.8946 9.47668 20.6768C9.51852 20.7515 9.56559 20.8262 9.65974 20.9009C9.69112 20.5541 9.7225 20.2126 9.74865 19.8658C9.81665 19.012 9.88464 18.1582 9.94741 17.2991C9.95264 17.1871 9.92125 17.059 9.86895 16.963C9.6022 16.4721 9.31454 15.9865 9.04256 15.4956C8.7915 15.042 8.99548 14.6738 9.50283 14.6738C10.3135 14.6738 11.1242 14.6738 11.9349 14.6738C12.458 14.6738 12.6619 15.0367 12.4057 15.5009C12.1337 15.9918 11.8512 16.4774 11.5845 16.9683C11.527 17.0697 11.5008 17.2084 11.506 17.3258C11.5793 18.3823 11.6682 19.4389 11.7519 20.4954C11.7623 20.6288 11.778 20.7569 11.7885 20.8903C11.8042 20.8903 11.8146 20.8956 11.8303 20.9009L11.8146 20.9116Z" fill="#EEF7FF"/>
<path d="M10.3815 -0.000556365C11.0614 0.0367956 11.8617 0.0848197 12.6671 0.127508C12.8711 0.13818 13.0803 0.127508 13.2843 0.127508C13.6034 0.13818 13.8021 0.426324 13.7237 0.741148C13.6034 1.21605 13.6295 1.32811 14.0479 1.56823C15.0365 2.13918 15.3189 3.05164 15.2509 4.13484C15.2038 4.90857 15.1515 5.68229 15.1097 6.45601C15.1097 6.53071 15.1359 6.63743 15.1882 6.69079C15.5857 7.06965 15.6746 7.54455 15.5961 8.05681C15.502 8.70246 15.3032 9.33211 14.9266 9.85504C14.6913 10.1805 14.5657 10.5167 14.435 10.8849C13.8858 12.475 12.3847 13.5262 10.6796 13.5262C8.97452 13.5262 7.5414 12.5337 6.99745 10.9169C6.86146 10.5167 6.68886 10.1645 6.45349 9.81769C6.10306 9.30009 5.90954 8.70246 5.81539 8.07815C5.73171 7.52321 5.83631 7.01629 6.29135 6.63209C6.34889 6.58407 6.36458 6.44533 6.35935 6.35462C6.32274 5.5062 6.27043 4.65777 6.23382 3.80935C6.19198 2.83286 6.58425 2.09649 7.41065 1.59491C7.47341 1.55756 7.5414 1.48819 7.56233 1.41882C7.73493 0.794508 8.16381 0.442332 8.73392 0.228892C9.22557 0.0367956 9.73815 -0.0112284 10.3815 -0.000556365Z" fill="#EEF7FF"/>
<path d="M16.6842 24.8553C16.611 24.8072 16.5482 24.7912 16.5169 24.7485C16.3547 24.5191 16.1926 24.2896 16.0566 24.0389C15.9938 23.9268 15.9781 23.7774 15.9834 23.644C15.999 22.8329 16.0095 22.0218 16.0566 21.2108C16.067 21.008 16.1612 20.7839 16.2815 20.6185C16.7418 19.9835 17.2177 19.3645 17.7041 18.7562C17.8244 18.6121 18.0075 18.4841 18.1853 18.4307C18.928 18.1906 19.6812 17.9718 20.4344 17.7744C20.6122 17.7264 20.8371 17.737 21.0097 17.7957C21.7681 18.0572 22.5265 18.3347 23.2692 18.6335C23.447 18.7028 23.6092 18.8736 23.7243 19.039C24.1479 19.6527 24.5402 20.2876 24.9534 20.9066C25.1155 21.1467 25.1626 21.3975 25.1469 21.691C25.1051 22.4327 25.1051 23.1798 25.0632 23.9215C25.0528 24.0975 24.9952 24.3003 24.8906 24.4391C24.5925 24.8553 24.2525 25.2448 23.9387 25.6503C23.7556 25.8851 23.604 26.1466 23.4104 26.3653C23.2954 26.4987 23.1385 26.6321 22.9711 26.6855C22.2284 26.9203 21.4804 27.1444 20.722 27.3418C20.5076 27.3952 20.2461 27.3845 20.0369 27.3098C19.3151 27.0697 18.6038 26.8029 17.9029 26.5201C17.7198 26.4454 17.542 26.2853 17.4165 26.1199C17.1863 25.8264 16.9928 25.5063 16.7993 25.1914C16.7313 25.0847 16.7051 24.946 16.6738 24.8606L16.6842 24.8553ZM17.6361 22.5501C17.6205 24.1883 18.9333 25.5383 20.5651 25.5543C22.1342 25.5703 23.4627 24.2256 23.4941 22.5821C23.5255 21.024 22.197 19.594 20.7011 19.5726C18.9751 19.5513 17.6518 20.8319 17.6361 22.5501ZM17.8767 20.3784C17.8767 20.341 17.8767 20.309 17.8767 20.2716C17.7878 20.2076 17.6937 20.0902 17.6048 20.0955C17.5263 20.0955 17.4008 20.2289 17.3955 20.309C17.3955 20.3837 17.5158 20.5278 17.5891 20.5331C17.678 20.5438 17.7774 20.4317 17.8715 20.3784H17.8767ZM20.2879 26.2373C20.2827 26.4827 20.3925 26.5681 20.5181 26.5361C20.6122 26.5094 20.675 26.3814 20.7534 26.296C20.675 26.2213 20.5965 26.0985 20.5128 26.0932C20.4239 26.0932 20.335 26.1999 20.2827 26.2373H20.2879ZM20.3455 18.7455C20.3455 18.7776 20.3455 18.8149 20.3455 18.8469C20.4291 18.911 20.5024 19.0177 20.5913 19.0337C20.7325 19.0604 20.8319 18.9536 20.8371 18.8096C20.8423 18.6602 20.7482 18.5534 20.607 18.5748C20.5128 18.5908 20.4344 18.6868 20.3507 18.7455H20.3455ZM24.2054 22.8863C24.2368 22.8863 24.2682 22.8863 24.2996 22.8863C24.3571 22.7849 24.4617 22.6835 24.4565 22.5928C24.4513 22.5181 24.3101 22.39 24.2316 22.3954C24.1531 22.3954 24.0224 22.5394 24.0276 22.6141C24.0276 22.7049 24.1427 22.8009 24.2107 22.8916L24.2054 22.8863ZM17.2282 24.7112C17.3746 24.8286 17.4479 24.9406 17.542 24.9566C17.6728 24.978 17.7878 24.8819 17.7774 24.7272C17.7721 24.5885 17.6937 24.4657 17.542 24.4924C17.4531 24.5084 17.3746 24.6045 17.2229 24.7112H17.2282ZM23.0129 19.6153C23.0129 19.578 23.0129 19.5459 23.0182 19.5086C22.9292 19.4446 22.8456 19.3218 22.7566 19.3218C22.6782 19.3218 22.5579 19.4446 22.537 19.5353C22.4951 19.6793 22.6102 19.7861 22.7514 19.77C22.8456 19.7594 22.924 19.6687 23.0129 19.6153ZM23.8184 20.4531C23.8184 20.4157 23.8184 20.3837 23.8184 20.3463C23.7295 20.2823 23.651 20.1863 23.5517 20.1649C23.4157 20.1382 23.3372 20.245 23.332 20.3837C23.332 20.5331 23.4157 20.6398 23.5569 20.6238C23.6458 20.6131 23.7295 20.5118 23.8132 20.4531H23.8184ZM17.0608 21.0187C16.9614 21.1734 16.8673 21.2535 16.8516 21.3495C16.8307 21.4936 16.93 21.5896 17.0817 21.5843C17.2334 21.5843 17.3276 21.4776 17.2962 21.3335C17.2805 21.2374 17.1706 21.1627 17.0608 21.0187ZM18.0912 25.5276C18.0912 25.5649 18.0912 25.6023 18.0912 25.6343C18.1801 25.6877 18.2586 25.7784 18.3527 25.7891C18.4991 25.8104 18.6038 25.6877 18.5776 25.5543C18.5619 25.4689 18.4364 25.3515 18.3527 25.3462C18.269 25.3462 18.1749 25.4582 18.0912 25.5223V25.5276ZM19.4249 25.8531C19.3935 25.8531 19.3569 25.8531 19.3255 25.8531C19.268 25.9385 19.1739 26.0132 19.1529 26.1039C19.1216 26.2533 19.2314 26.3387 19.3726 26.344C19.5243 26.3493 19.6184 26.248 19.5975 26.1092C19.5818 26.0185 19.4877 25.9385 19.4249 25.8531ZM19.404 19.2364H19.5034C19.5661 19.1564 19.6917 19.0657 19.6812 18.9963C19.6655 18.9003 19.5609 18.7722 19.472 18.7509C19.336 18.7135 19.2262 18.8362 19.2471 18.975C19.2575 19.0657 19.3517 19.1511 19.4092 19.2364H19.404ZM22.4167 25.581C22.4167 25.6183 22.4167 25.6557 22.4167 25.693C22.5056 25.7464 22.5997 25.8584 22.673 25.8478C22.7566 25.8317 22.8769 25.7197 22.8926 25.629C22.9188 25.4849 22.8037 25.3782 22.6625 25.4049C22.5736 25.4209 22.4951 25.5169 22.4114 25.581H22.4167ZM22.0558 19.0017C21.9093 18.8896 21.81 18.7615 21.7472 18.7776C21.653 18.7989 21.5327 18.9163 21.5171 19.0123C21.4961 19.1457 21.606 19.2631 21.7524 19.2364C21.8413 19.2204 21.9146 19.1137 22.0558 19.0017ZM18.1696 19.4446C18.1696 19.4819 18.1696 19.5193 18.1696 19.5513C18.2533 19.61 18.3318 19.706 18.4207 19.722C18.5671 19.7434 18.6718 19.6313 18.6456 19.4926C18.6299 19.4072 18.5148 19.2791 18.4364 19.2738C18.3527 19.2685 18.2586 19.3805 18.1696 19.4446ZM24.0224 21.7177C24.0538 21.7177 24.0851 21.7177 24.1165 21.7177C24.1793 21.627 24.2891 21.5363 24.2839 21.4562C24.2787 21.3708 24.1636 21.2481 24.0747 21.2268C23.9387 21.2001 23.8236 21.3122 23.8446 21.4562C23.8602 21.5523 23.9596 21.6323 24.0224 21.7177ZM17.1393 22.5608C17.1393 22.5234 17.1393 22.4914 17.1393 22.4541C17.0556 22.3954 16.9719 22.2993 16.883 22.2886C16.7365 22.2673 16.6633 22.374 16.6633 22.5288C16.6633 22.6728 16.7522 22.7742 16.8777 22.7475C16.9719 22.7315 17.0556 22.6248 17.1393 22.5608ZM23.7713 24.8499C23.7713 24.8126 23.7713 24.7806 23.7713 24.7432C23.6824 24.6898 23.5883 24.5885 23.5098 24.5991C23.4261 24.6098 23.3529 24.7325 23.2744 24.8019C23.3529 24.8819 23.4261 25.0207 23.5098 25.0313C23.5883 25.042 23.6876 24.914 23.7766 24.8499H23.7713ZM21.7053 25.8798C21.674 25.8798 21.6374 25.8798 21.606 25.8798C21.5432 25.9705 21.4334 26.0665 21.4334 26.1572C21.4334 26.2319 21.5694 26.36 21.6478 26.3653C21.721 26.3653 21.857 26.2373 21.8623 26.1626C21.8675 26.0719 21.7629 25.9758 21.7053 25.8798ZM24.3048 23.8307C24.2734 23.6333 24.1898 23.5266 24.059 23.5533C23.9648 23.5693 23.8916 23.6813 23.8132 23.7507C23.8916 23.8361 23.9544 23.9641 24.0485 23.9908C24.1165 24.0068 24.2159 23.8894 24.3048 23.8307ZM16.998 23.9375C17.0347 23.9375 17.066 23.9375 17.1026 23.9375C17.1602 23.8521 17.2752 23.756 17.2648 23.6813C17.2543 23.5906 17.1445 23.4679 17.0556 23.4466C16.9144 23.4145 16.8097 23.5426 16.8254 23.6813C16.8359 23.7721 16.9405 23.8521 16.998 23.9428V23.9375Z" fill="#EEF7FF"/>
<path d="M19.88 27.9665C19.3779 29.3219 18.8915 30.6506 18.3894 32.0059C18.1278 31.7124 17.882 31.4349 17.6414 31.1575C17.474 30.9707 17.3119 30.7786 17.1393 30.5972C17.0975 30.5545 17.0085 30.5438 16.9406 30.5492C16.543 30.5865 16.1508 30.6345 15.7533 30.6719C15.5545 30.6932 15.3558 30.6986 15.1309 30.7092C15.6696 29.1778 16.2031 27.6411 16.7523 26.0723C16.9039 26.3017 17.0399 26.4991 17.1707 26.7019C17.3328 26.9527 17.5525 27.1021 17.8297 27.2035C18.5097 27.449 19.1844 27.7051 19.88 27.9665Z" fill="#EEF7FF"/>
<path d="M24.3884 26.0137C24.9271 27.5611 25.4606 29.0765 25.9993 30.6186C25.4187 30.5546 24.8643 30.4959 24.3099 30.4265C24.1373 30.4052 24.0066 30.4265 23.881 30.576C23.5463 30.9815 23.1906 31.371 22.8454 31.7659C22.814 31.8032 22.7722 31.8352 22.7304 31.8833C22.4218 31.0509 22.1236 30.2398 21.8203 29.4234C21.6581 28.9858 21.5065 28.5483 21.3339 28.1161C21.2659 27.9453 21.3077 27.8759 21.4751 27.8279C21.904 27.7105 22.3224 27.5611 22.7513 27.4651C23.2429 27.3583 23.609 27.0969 23.881 26.6753C24.0275 26.4512 24.2053 26.2538 24.3884 26.0137Z" fill="#EEF7FF"/>
<path d="M20.5557 24.9934C19.2743 25.0094 18.1603 23.9262 18.1759 22.5335C18.1916 21.1782 19.2639 20.1216 20.5714 20.127C21.8947 20.1323 22.9617 21.2209 22.9565 22.5709C22.9565 23.9155 21.879 24.9987 20.5557 24.9934ZM19.9176 23.526C19.9072 23.6914 19.9804 23.7394 20.1373 23.6274C20.4564 23.3926 20.7545 23.3659 21.0736 23.6221C21.1259 23.6594 21.2095 23.6594 21.2775 23.6754C21.288 23.606 21.3194 23.526 21.2985 23.4673C21.1677 23.0991 21.2618 22.811 21.5652 22.5815C21.6227 22.5388 21.6489 22.4535 21.6855 22.3841C21.607 22.3521 21.5286 22.2987 21.4501 22.2934C21.1206 22.2827 20.8643 22.176 20.7859 21.8078C20.7859 21.7918 20.7754 21.7758 20.765 21.7651C20.7074 21.7064 20.6499 21.6424 20.5924 21.5837C20.5401 21.6584 20.4721 21.7224 20.4354 21.8025C20.3361 22.0373 20.2576 22.2881 19.9281 22.2614C19.8444 22.256 19.7503 22.2774 19.6666 22.2987C19.6195 22.3094 19.5463 22.3414 19.5463 22.3681C19.5411 22.4161 19.562 22.4962 19.6038 22.5228C19.9699 22.7683 20.0641 23.0938 19.9229 23.5047C19.9229 23.51 19.9229 23.5207 19.9229 23.526H19.9176Z" fill="#EEF7FF"/>
</g>
<defs>
<clipPath id="clip0_74_3126">
<rect width="26" height="32" fill="white"/>
</clipPath>
</defs>
</svg>
