<svg width="21" height="18" viewBox="0 0 21 18" fill="none" xmlns="http://www.w3.org/2000/svg">
<path d="M12.2413 0.696635C11.3976 1.11348 10.6172 1.59348 9.89589 2.16611C8.61349 3.19348 7.57576 4.41032 6.98096 5.964C6.06978 8.34295 6.6477 10.7893 8.5249 12.5872C9.64278 13.6566 10.9885 14.3303 12.4565 14.7682C13.182 14.983 13.9245 15.1303 14.6796 15.2061C14.7429 15.2145 14.8061 15.2272 14.8736 15.2398C12.4354 17.6903 7.74871 18.7219 3.90994 16.1324C-0.0596004 13.4545 -1.18592 8.15769 1.36201 4.13242C3.97322 0.00610874 8.90034 -0.79389 12.2371 0.692425L12.2413 0.696635Z" fill="white"/>
<path d="M16.0093 7.32623C16.0093 7.38518 16.0093 7.44413 16.0093 7.50307C16.0177 7.63781 15.9924 7.75149 15.8616 7.82307C15.7351 7.89044 15.6254 7.86097 15.5115 7.78518C15.2415 7.59991 14.9673 7.42307 14.7015 7.22939C14.5412 7.11149 14.3894 7.09044 14.2038 7.17044C13.9211 7.29676 13.6258 7.3936 13.339 7.50728C13.1998 7.56202 13.0648 7.60413 12.9382 7.48623C12.8117 7.37255 12.837 7.2336 12.8792 7.09044C12.972 6.78307 13.0521 6.4715 13.1492 6.16834C13.204 5.99571 13.1745 5.86097 13.0606 5.72623C12.8454 5.47781 12.6472 5.22097 12.4363 4.96834C12.3434 4.85465 12.2844 4.73676 12.3561 4.5936C12.4236 4.45886 12.5459 4.4336 12.6894 4.42939C13.0353 4.42518 13.3812 4.40834 13.7271 4.39992C13.8747 4.39992 13.9718 4.32834 14.0477 4.20623C14.2333 3.9157 14.4147 3.62097 14.6172 3.33886C14.6805 3.25044 14.807 3.17044 14.9167 3.15781C15.0601 3.14097 15.1403 3.26307 15.1867 3.39781C15.3006 3.71781 15.4229 4.0336 15.5284 4.3536C15.579 4.5136 15.676 4.60202 15.8363 4.63992C16.1653 4.71992 16.4944 4.81255 16.8192 4.89676C16.9542 4.93044 17.0639 4.98939 17.0934 5.14518C17.1187 5.29255 17.047 5.38939 16.9331 5.47781C16.6631 5.67991 16.3974 5.89886 16.1232 6.09676C15.9924 6.1936 15.946 6.30728 15.9586 6.46307C15.9797 6.74939 15.9882 7.03149 16.005 7.31781C16.005 7.31781 16.0093 7.31781 16.0135 7.31781L16.0093 7.32623Z" fill="white"/>
<path d="M20.0884 9.93428C19.8944 9.89638 19.7045 9.85007 19.5105 9.8248C19.4346 9.81638 19.3333 9.84165 19.2743 9.88796C19.1351 9.99744 19.0169 10.1364 18.8862 10.2543C18.7385 10.3932 18.6078 10.3511 18.574 10.149C18.5445 9.9848 18.5318 9.82059 18.5192 9.65217C18.5107 9.53428 18.4685 9.45007 18.3589 9.39954C18.207 9.32796 18.0594 9.25217 17.9201 9.16375C17.8569 9.12586 17.7894 9.05007 17.7852 8.9827C17.7852 8.93217 17.8653 8.86059 17.9244 8.82691C18.072 8.74691 18.2323 8.69638 18.3715 8.60796C18.4517 8.55744 18.5234 8.4648 18.5529 8.37638C18.6035 8.21217 18.6162 8.03954 18.6499 7.87112C18.6921 7.68165 18.8187 7.64375 18.9579 7.7827C19.0718 7.89638 19.1815 8.01428 19.2827 8.14059C19.3713 8.25007 19.4725 8.28796 19.6117 8.2627C19.7594 8.23323 19.907 8.21217 20.0547 8.20375C20.1306 8.19954 20.2487 8.20796 20.274 8.25428C20.3078 8.31323 20.2909 8.4227 20.2614 8.49428C20.2065 8.6248 20.1348 8.75112 20.0505 8.86901C19.9534 9.00375 19.9619 9.12586 20.042 9.2648C20.1222 9.40375 20.1939 9.55112 20.2572 9.69849C20.3162 9.83744 20.2403 9.9427 20.0969 9.9427L20.0884 9.93428Z" fill="white"/>
<path d="M14.1455 9.67691C14.1202 9.88323 14.1075 10.039 14.078 10.1906C14.0485 10.3253 14.0907 10.418 14.1919 10.5022C14.3142 10.6032 14.4408 10.7085 14.5505 10.8264C14.5969 10.8769 14.6433 10.9653 14.6306 11.0201C14.618 11.0748 14.5252 11.1464 14.4661 11.1464C13.9557 11.1464 13.6519 11.3906 13.5296 11.8832C13.517 11.9422 13.4284 12.018 13.3735 12.018C13.3187 12.018 13.2385 11.9548 13.2006 11.8959C13.1036 11.7485 13.0361 11.5801 12.9348 11.4327C12.8926 11.3695 12.804 11.3148 12.7239 11.3022C12.5509 11.2685 12.3695 11.2643 12.1924 11.239C12.0025 11.2095 11.9561 11.0832 12.0827 10.9401C12.1881 10.818 12.2978 10.7001 12.4159 10.5906C12.5256 10.4895 12.5467 10.3801 12.5087 10.2369C12.4666 10.0811 12.437 9.92534 12.4202 9.76534C12.4117 9.70218 12.4328 9.60955 12.475 9.57586C12.5172 9.54639 12.6142 9.55481 12.6733 9.58007C12.8294 9.64323 12.977 9.71481 13.1246 9.7906C13.2385 9.85376 13.3356 9.84113 13.441 9.77797C13.5718 9.69376 13.7026 9.61376 13.8418 9.54639C13.9093 9.51271 14.0105 9.48744 14.0653 9.51692C14.1202 9.54639 14.1328 9.64744 14.1497 9.67691H14.1455Z" fill="white"/>
</svg>
