<svg width="26" height="28" viewBox="0 0 26 28" fill="none" xmlns="http://www.w3.org/2000/svg">
<g clip-path="url(#clip0_74_3080)">
<path d="M13.7867 16.3592C13.9168 14.7467 14.7153 13.8612 16.3595 13.8378C16.9509 13.8319 17.5365 13.8378 18.1279 13.8378C18.1516 13.7557 18.1693 13.6795 18.193 13.5974C17.3176 13.269 16.4659 12.753 15.5669 12.6591C13.5324 12.4363 11.48 12.4187 9.42772 12.319C4.73754 12.0845 1.12972 15.8432 0.295778 19.2912C0.195233 19.7075 0.0946866 20.118 -0.00585938 20.5343V22.8799C0.0769432 22.8857 0.159746 22.8975 0.242548 22.8975C5.5774 22.8975 10.9122 22.8975 16.2471 22.8975C16.3654 22.8975 16.4778 22.8799 16.7084 22.8564C16.2589 22.2876 15.9159 21.7481 15.4723 21.3084C14.0765 19.9303 13.627 18.2885 13.7808 16.3651L13.7867 16.3592Z" fill="#EEF7FF"/>
<path d="M12.8994 11.3647C15.5136 10.5321 17.2406 7.66463 16.7675 4.93206C16.2884 2.12913 14.106 0.0767729 11.5213 0.00054256C8.26247 -0.0932794 5.70742 2.46923 5.66602 5.82923C5.73107 6.29834 5.76065 6.76745 5.86711 7.22484C6.58276 10.4089 9.85937 12.3323 12.8994 11.3589V11.3647Z" fill="#EEF7FF"/>
<path d="M26.0005 16.3187C26.0005 15.9375 25.9532 15.8906 25.5687 15.8906C24.031 15.8906 22.4932 15.8906 20.9554 15.8906C19.3881 15.8906 17.8267 15.8906 16.2593 15.8906C15.9459 15.8906 15.8808 15.9551 15.8808 16.26C15.8808 16.9051 15.869 17.556 15.8867 18.201C15.8867 18.3535 15.9518 18.5294 16.0464 18.6466C17.1643 20.0774 18.2939 21.4965 19.4118 22.9273C19.5064 23.0445 19.5655 23.2205 19.5655 23.3729C19.5774 24.7978 19.5655 26.2169 19.5774 27.6418C19.5774 27.7591 19.6661 27.8764 19.7134 27.9995C19.8317 27.9526 19.9795 27.935 20.0683 27.8471C20.8135 27.1258 21.5528 26.3928 22.2803 25.6481C22.3808 25.5426 22.4518 25.3608 22.4577 25.2142C22.4754 24.6395 22.4754 24.0707 22.4577 23.4961C22.4518 23.2322 22.5287 23.0211 22.6884 22.8159C23.7471 21.4261 24.8057 20.0305 25.8526 18.6291C25.9413 18.5118 25.9886 18.3476 25.9946 18.201C26.0123 17.5736 26.0005 16.9461 26.0005 16.3187Z" fill="#EEF7FF"/>
</g>
<defs>
<clipPath id="clip0_74_3080">
<rect width="26" height="28" fill="white"/>
</clipPath>
</defs>
</svg>
