<svg width="27" height="24" viewBox="0 0 27 24" fill="none" xmlns="http://www.w3.org/2000/svg">
<path fill-rule="evenodd" clip-rule="evenodd" d="M1.87768 0.286273C1.86835 0.190516 1.85904 0.0949821 1.85143 0H0V23.9937H27V22H1.92214V20.9497V0.968554C1.92214 0.742781 1.89985 0.513891 1.87768 0.286273ZM16.8999 14.264C16.0899 12.9307 15.3185 11.6665 14.4763 10.2892V10.2829C13.6877 11.4682 12.9284 12.6071 12.1704 13.7441C11.6493 14.5256 11.1289 15.3063 10.5999 16.1005C10.0213 15.1598 9.46797 14.2549 8.90648 13.3365C8.61958 12.8673 8.33054 12.3946 8.03489 11.9118C7.43375 12.7677 6.84282 13.6094 6.25715 14.4436C5.23319 15.9021 4.22532 17.3377 3.20703 18.786C3.77275 19.1634 4.27417 19.4967 4.80775 19.8489C4.92941 19.6766 5.05048 19.5051 5.17109 19.3342C6.08927 18.0335 6.98162 16.7694 7.91917 15.4464C8.30574 16.0795 8.68133 16.6958 9.05497 17.309C9.5388 18.1029 10.0194 18.8916 10.5163 19.7043C11.8406 17.7168 13.1006 15.83 14.3992 13.8866C14.8529 14.635 15.2913 15.3534 15.7297 16.0718C16.0429 16.5851 16.3561 17.0983 16.6749 17.6225C17.6621 16.3944 18.6343 15.1857 19.6002 13.9847C20.9048 12.3625 22.1981 10.7545 23.502 9.13193C23.6893 9.29582 23.8743 9.4579 24.0584 9.6191C24.7149 10.194 25.3585 10.7577 26.0413 11.3521V4.77344L25.9132 4.78616C23.7404 5.00181 21.625 5.21176 19.3427 5.43382C20.214 6.21379 20.9895 6.90494 21.7584 7.59032L22.0556 7.8552C20.5658 9.70389 19.1273 11.4932 17.6647 13.3127C17.4106 13.6287 17.1558 13.9457 16.8999 14.264Z" fill="white"/>
</svg>
