<svg width="26" height="26" viewBox="0 0 26 26" fill="none" xmlns="http://www.w3.org/2000/svg">
<path d="M19.3555 12.9874C19.3508 16.4426 16.5098 19.2789 13.0593 19.2695C9.60886 19.2648 6.77254 16.4098 6.78661 12.964C6.80067 9.49946 9.64636 6.65846 13.0828 6.67252C16.5332 6.68659 19.3602 9.53228 19.3555 12.9874Z" fill="#EDE9E8"/>
<path d="M8.36299 7.23437C7.77229 5.30287 7.22847 3.50732 6.68464 1.71645C6.73621 1.69301 6.78309 1.66488 6.83466 1.64144C8.05826 3.09007 9.27718 4.5387 10.543 6.0389C9.79287 6.45146 9.12716 6.81713 8.36768 7.23437L8.36299 7.23437Z" fill="#EDE9E8"/>
<path d="M2.44778 6.21586C3.7792 6.71749 5.53725 7.38321 7.42188 8.0958C6.97182 8.81308 6.56395 9.46473 6.05294 10.2852C4.71683 8.77558 3.4651 7.36446 2.44778 6.21586Z" fill="#EDE9E8"/>
<path d="M18.9961 1.51566C18.4851 3.34403 17.9741 5.1724 17.4349 7.11328C16.6802 6.73354 16.0098 6.396 15.2175 5.99751C16.4692 4.44574 17.6694 2.95023 18.8742 1.45472C18.9164 1.47816 18.9586 1.49691 18.9961 1.52035L18.9961 1.51566Z" fill="#EDE9E8"/>
<path d="M19.6838 9.92969C19.29 9.33898 18.8728 8.71078 18.3899 7.98412C20.2276 7.23402 21.9998 6.51205 23.7719 5.79008L23.8281 5.8979C22.4639 7.22464 21.0996 8.55138 19.6838 9.925L19.6838 9.92969Z" fill="#EDE9E8"/>
<path d="M6.28655 16.3284C6.62878 16.8394 7.0554 17.4629 7.54297 18.1849C5.73335 18.9256 3.97999 19.6382 2.10474 20.4023C3.55806 18.9818 4.90824 17.6739 6.29124 16.3237L6.28655 16.3284Z" fill="#EDE9E8"/>
<path d="M14.2539 20.3883C13.8648 22.287 13.4897 24.1294 13.11 25.9719L12.9459 26C12.5662 24.1482 12.1818 22.2964 11.7926 20.393L14.2539 20.393L14.2539 20.3883Z" fill="#EDE9E8"/>
<path d="M15.3925 20.1354C16.1285 19.7322 16.7942 19.3665 17.5631 18.9446C18.1397 20.8198 18.6929 22.6247 19.2461 24.4344C19.1945 24.4625 19.1476 24.4953 19.0961 24.5234C17.8819 23.0842 16.6723 21.6496 15.3925 20.1354Z" fill="#EDE9E8"/>
<path d="M6.94169 24.6047C7.448 22.7951 7.95901 20.9901 8.50283 19.0539C9.25762 19.4384 9.94677 19.7853 10.7109 20.1744C9.45921 21.7355 8.26843 23.2217 7.07764 24.7031C7.03076 24.6703 6.98857 24.6328 6.94169 24.6L6.94169 24.6047Z" fill="#EDE9E8"/>
<path d="M19.9027 15.8307C21.2388 17.3731 22.4717 18.7936 23.4609 19.9375C22.1436 19.4406 20.3855 18.7795 18.5197 18.0763C18.9557 17.3731 19.3495 16.7355 19.9027 15.8307Z" fill="#EDE9E8"/>
<path d="M0.0258166 12.9108C1.87294 12.5357 3.72006 12.156 5.63281 11.7669L5.63281 14.2188C3.72943 13.8296 1.88231 13.4546 0.0398823 13.0795C0.0398823 13.0233 0.0305048 12.967 0.0258166 12.9108Z" fill="#EDE9E8"/>
<path d="M20.4258 14.2266L20.4258 11.7747C22.3245 12.1591 24.1529 12.5295 25.9859 12.8998C25.9859 12.9561 25.9953 13.0123 26 13.0686C24.181 13.4436 22.3667 13.8234 20.4258 14.2266Z" fill="#EDE9E8"/>
<path d="M11.7895 5.59375C12.1927 3.65756 12.5677 1.82919 12.9475 0.000819093C12.9991 0.00550736 13.0553 0.0148839 13.1069 0.0195722C13.4819 1.85732 13.857 3.69506 14.2461 5.59375L11.7848 5.59375L11.7895 5.59375Z" fill="#EDE9E8"/>
</svg>
