<svg width="32" height="25" viewBox="0 0 32 25" fill="none" xmlns="http://www.w3.org/2000/svg">
<g clip-path="url(#clip0_74_3087)">
<path d="M10.8464 25.0002C10.5307 22.5517 12.4609 20.3838 14.9085 20.3838C15.6692 20.3838 16.435 20.3532 17.1905 20.445C19.1983 20.6797 20.7817 22.5874 20.6575 24.8115C20.6575 24.8727 20.6213 24.9339 20.6006 25.0002H10.8464Z" fill="#EEF7FF"/>
<path d="M9.80009 9.94117H0.0355352C-0.0783069 9.03319 0.097631 8.18133 0.558174 7.40597C1.35507 6.05931 2.54524 5.32987 4.14938 5.35027C4.97732 5.36047 5.82079 5.30436 6.62286 5.44719C8.60992 5.80426 9.97085 7.71713 9.84666 9.77794C9.84666 9.82895 9.82079 9.87486 9.80009 9.94117Z" fill="#EEF7FF"/>
<path d="M31.9538 9.94274H22.1789C22.0599 8.39714 22.5722 7.13719 23.7882 6.168C24.4971 5.60689 25.3199 5.32634 26.2358 5.34674C27.0896 5.36715 27.9538 5.31103 28.7869 5.44366C30.774 5.77012 32.285 7.93805 31.9538 9.93764V9.94274Z" fill="#EEF7FF"/>
<path d="M29.5069 2.5511C29.4914 3.92837 28.3892 5.04549 27.0593 5.03529C25.7398 5.02509 24.6479 3.87736 24.6583 2.50519C24.6686 1.10752 25.7915 -0.0300025 27.1266 0.000603485C28.4513 0.0312095 29.5224 1.17893 29.5069 2.5511Z" fill="#EEF7FF"/>
<path d="M7.3429 2.51989C7.3429 3.89716 6.2614 5.03469 4.93669 5.03979C3.59646 5.03979 2.51496 3.93287 2.50978 2.5454C2.50461 1.13242 3.58611 0 4.93669 0C6.2614 0 7.3429 1.13242 7.34808 2.51479L7.3429 2.51989Z" fill="#EEF7FF"/>
<path d="M15.7207 20.0678C14.3753 20.0678 13.3196 18.9609 13.3145 17.5632C13.3145 16.1655 14.3753 15.0637 15.7207 15.0586C17.0816 15.0586 18.1527 16.1706 18.1476 17.5836C18.1476 18.966 17.0609 20.0678 15.7155 20.0678H15.7207Z" fill="#EEF7FF"/>
<path d="M21.2006 6.86133V8.00905H10.5098V6.86133H21.1954H21.2006Z" fill="#EEF7FF"/>
<path d="M22.231 10.9512C22.5208 11.1603 22.7692 11.3439 23.0382 11.5378C21.8946 13.2772 20.7717 14.9912 19.6178 16.7459C19.3435 16.5521 19.09 16.3633 18.8105 16.1644C19.9541 14.4199 21.077 12.711 22.231 10.9563V10.9512Z" fill="#EEF7FF"/>
<path d="M12.9622 16.1601C12.6983 16.359 12.4602 16.5375 12.1808 16.7518C11.0683 15.0123 9.96606 13.2882 8.85352 11.5436C9.11225 11.3498 9.35546 11.1662 9.63489 10.957C10.7474 12.6914 11.8393 14.4053 12.9622 16.1601Z" fill="#EEF7FF"/>
</g>
<defs>
<clipPath id="clip0_74_3087">
<rect width="32" height="25" fill="white"/>
</clipPath>
</defs>
</svg>
