<svg width="26" height="26" viewBox="0 0 26 26" fill="none" xmlns="http://www.w3.org/2000/svg">
<path d="M1.6295 25.0026C1.43836 24.7577 1.10984 24.5307 1.07997 24.2619C0.416957 19.2863 3.95304 14.239 8.84503 13.1459C9.04812 13.0981 9.25718 13.0742 9.59764 13.0085C7.50705 11.3361 6.54538 9.2574 6.83209 6.69494C7.0292 4.94481 7.82363 3.46348 9.20939 2.3465C11.7958 0.27383 15.3737 0.638191 17.5658 3.13496C19.6803 5.54212 20.1044 10.1056 16.3294 13.0384C16.9506 13.1877 17.5538 13.2713 18.1213 13.4744C21.962 14.8542 24.0645 17.6795 24.841 21.6038C24.8769 21.783 24.9366 21.9563 24.9904 22.1295V24.9966H1.6295V25.0026ZM2.25071 23.6885H23.8256C23.736 22.8283 23.7181 22.022 23.5568 21.2395C22.7923 17.578 19.8296 14.6989 16.2756 14.3047C14.5016 14.1076 12.7037 14.1374 10.9117 14.1315C5.98391 14.1255 1.81467 18.7069 2.25071 23.6825V23.6885ZM17.9959 7.47741C17.9839 4.55059 15.7022 2.17926 12.9068 2.19718C10.2069 2.20912 7.93712 4.67005 7.96101 7.56104C7.9849 10.4461 10.2846 12.8234 13.0262 12.8114C15.7559 12.7935 18.0138 10.3744 17.9959 7.47741Z" fill="white" stroke="white" stroke-width="0.5" stroke-linejoin="round"/>
</svg>
