<svg width="16" height="31" viewBox="0 0 16 31" fill="none" xmlns="http://www.w3.org/2000/svg">
<g clip-path="url(#clip0_74_3106)">
<path d="M8.95335 28.4154V30.942C8.95335 30.9714 8.92927 31.0007 8.89556 31.0007H7.26762C7.23873 31.0007 7.20983 30.9763 7.20983 30.942V28.4937C7.20983 28.4643 7.18575 28.4398 7.15203 28.4349C5.56744 28.4203 4.09363 28.053 2.72578 27.3332C2.70652 27.3234 2.69688 27.3038 2.69688 27.2794V24.0672C2.69688 24.0183 2.74986 23.9938 2.78358 24.0232C3.24113 24.3757 3.90098 24.7038 4.75829 25.0074C5.64932 25.3207 6.44402 25.5068 7.14721 25.5607C7.18093 25.5607 7.20983 25.5362 7.20983 25.5019V21.1881C7.20983 21.1881 7.19538 21.144 7.1713 21.1342C5.33144 20.434 4.06955 19.675 3.39526 18.8622C3.03403 18.4264 2.76913 17.9417 2.60056 17.4079C1.94071 15.322 2.79321 12.9913 4.63788 11.8651C5.35071 11.4293 6.18876 11.16 7.15685 11.0571C7.18574 11.0571 7.20501 11.0277 7.20501 11.0033V8.85368C7.20501 8.8243 7.22909 8.79492 7.26281 8.79492H8.89074C8.91964 8.79492 8.94854 8.8194 8.94854 8.85368V10.9494C8.94854 10.9788 8.97262 11.0033 9.00152 11.0082C10.6343 11.0914 11.8576 11.3607 12.6764 11.8161C12.6957 11.8259 12.7053 11.8455 12.7053 11.8699V15.0135C12.7053 15.0576 12.6571 15.0821 12.6234 15.0625C11.5494 14.4162 10.3453 14.0146 9.01115 13.8579C8.97744 13.8579 8.94854 13.8824 8.94854 13.9167V18.4117C8.94854 18.4117 8.96299 18.4558 8.98707 18.4656C10.7113 19.1021 11.9491 19.8268 12.7005 20.6446C13.4567 21.4672 13.8372 22.4612 13.8372 23.6216C13.8372 24.9633 13.4133 26.0454 12.5705 26.8681C11.7372 27.6809 10.5476 28.1803 9.00152 28.3615C8.97262 28.3615 8.95335 28.3909 8.95335 28.4154ZM7.20983 17.6479V13.9657C7.20983 13.9314 7.17611 13.902 7.13758 13.9069C6.07798 14.1224 5.54818 14.705 5.54818 15.655C5.54818 16.4678 6.07316 17.1484 7.12313 17.6968C7.16166 17.7164 7.20983 17.687 7.20983 17.6479ZM8.95335 21.9372V25.4579C8.95335 25.4921 8.98707 25.5215 9.02078 25.5166C10.1141 25.3256 10.6584 24.7527 10.6584 23.793C10.6584 23.0194 10.1189 22.3828 9.03523 21.8883C8.9967 21.8687 8.95335 21.8981 8.95335 21.9421V21.9372Z" fill="#F4F4F4"/>
<path d="M6.0301 5.85137H14.8633C15.4895 5.85137 16 5.33233 16 4.69578V4.33834C16 3.70178 15.4895 3.18275 14.8633 3.18275H6.0301V0L3.01505 2.19365L0 4.3824L3.01505 6.57605L6.0301 8.7697V5.85137Z" fill="#F4F4F4"/>
</g>
<defs>
<clipPath id="clip0_74_3106">
<rect width="16" height="31" fill="white"/>
</clipPath>
</defs>
</svg>
