<svg width="33" height="33" viewBox="0 0 33 33" fill="none" xmlns="http://www.w3.org/2000/svg">
<g clip-path="url(#clip0_74_3119)">
<path d="M16.4996 32.671C25.4308 32.671 32.671 25.4308 32.671 16.4996C32.671 7.56833 25.4308 0.328125 16.4996 0.328125C7.56833 0.328125 0.328125 7.56833 0.328125 16.4996C0.328125 25.4308 7.56833 32.671 16.4996 32.671Z" stroke="#FEFEFD" stroke-miterlimit="10"/>
<path d="M15.1521 14.9757C15.9406 14.9954 16.7291 15.002 17.5045 14.8246C17.7411 14.7654 17.9776 14.6997 18.201 14.5946C18.7596 14.3252 19.1144 13.9112 19.1539 13.2672C19.1867 12.6364 18.9567 12.137 18.4113 11.7953C18.0302 11.5587 17.6096 11.447 17.1694 11.3747C16.44 11.2565 15.6975 11.2762 14.9615 11.2827C14.8564 11.2827 14.8629 11.3353 14.8629 11.4142C14.8498 12.4918 14.8432 13.5629 14.8301 14.6406C14.8301 14.9691 14.8301 14.9691 15.1586 14.9757H15.1521Z" fill="#FEFEFD"/>
<path d="M19.1281 17.4274C18.7273 17.1777 18.2804 17.0528 17.8205 16.9674C16.8479 16.7834 15.8689 16.8163 14.8898 16.8229C14.7978 16.8229 14.8109 16.8689 14.8109 16.928C14.7978 18.2094 14.7846 19.4973 14.7715 20.7787C14.7715 20.8641 14.7978 20.8904 14.8766 20.8904C15.2052 20.8904 15.5272 20.9035 15.8557 20.9035C16.6048 20.9035 17.3474 20.8706 18.1162 20.6998C18.3987 20.6275 18.7076 20.5355 19.0033 20.3778C19.5815 20.0755 19.9429 19.6221 19.9626 18.9453C19.9824 18.2816 19.7064 17.7757 19.1413 17.4274H19.1281Z" fill="#FEFEFD"/>
<path d="M16.5001 1.89258C8.43081 1.89258 1.89258 8.43081 1.89258 16.5001C1.89258 24.5694 8.43081 31.1076 16.5001 31.1076C24.5694 31.1076 31.1076 24.5694 31.1076 16.5001C31.1076 8.43081 24.5694 1.89258 16.5001 1.89258ZM23.2092 20.7647C22.8281 21.5927 22.1841 22.1381 21.3627 22.4929C20.607 22.8149 19.8119 22.9595 19.0037 23.0449C18.7146 23.0778 18.4189 23.0909 18.1232 23.1106C18.0377 23.1106 18.0115 23.1435 18.0115 23.2355C18.0115 24.1686 17.9917 25.0951 17.9852 26.0282C17.9852 26.153 17.9523 26.1859 17.8275 26.1793C17.3018 26.1662 16.7761 26.1662 16.257 26.1596C16.165 26.1596 16.1387 26.1399 16.1387 26.0413C16.1518 25.1214 16.1584 24.1948 16.1716 23.2749C16.1716 23.1632 16.1387 23.1369 16.0336 23.1369C15.6327 23.1369 15.2319 23.1238 14.8245 23.1106C14.7193 23.1106 14.6931 23.1369 14.6931 23.242C14.6931 24.162 14.6733 25.0885 14.6668 26.0085C14.6668 26.1202 14.6339 26.1399 14.5288 26.1399C14.0031 26.1267 13.4774 26.1267 12.9583 26.1267C12.8532 26.1267 12.8203 26.1005 12.8269 25.9888C12.84 25.0622 12.84 24.1357 12.8597 23.2092C12.8597 23.0712 12.8137 23.0581 12.702 23.0581C11.5586 23.0449 10.4153 23.0252 9.27191 23.0186C9.1602 23.0186 9.14706 22.9858 9.16677 22.8872C9.28505 22.2367 9.40333 21.5796 9.51504 20.9224C9.52818 20.837 9.56104 20.8173 9.64646 20.8173C10.0736 20.8239 10.5073 20.8567 10.9344 20.8239C11.3484 20.791 11.5718 20.5413 11.5784 20.1142C11.5915 19.0957 11.5981 18.0772 11.6112 17.0652C11.6244 15.4027 11.6441 13.7402 11.6572 12.0778C11.6572 11.5652 11.3484 11.1972 10.8227 11.1315C10.4481 11.079 10.067 11.0987 9.68589 11.0987C9.57418 11.0987 9.46247 11.0987 9.34419 11.0987C9.27848 11.0987 9.26534 11.079 9.26534 11.0198C9.27191 10.4153 9.27848 9.81731 9.27848 9.21277C9.27848 9.10763 9.35076 9.12735 9.40333 9.12735C9.88959 9.12735 10.3824 9.14049 10.8687 9.14049C11.5258 9.14049 12.1895 9.14706 12.8466 9.1602C12.9583 9.1602 12.9977 9.13392 12.9977 9.01564C12.9977 8.10883 13.0174 7.19545 13.0174 6.28864C13.0174 6.15721 13.0503 6.12436 13.1817 6.12436C13.6811 6.1375 14.1871 6.1375 14.6865 6.14407C14.8705 6.14407 14.8705 6.14407 14.8639 6.32149C14.8573 7.21516 14.8508 8.10226 14.8376 8.99592C14.8376 9.08792 14.8508 9.12077 14.9559 9.1142C15.3633 9.10763 15.7707 9.10763 16.1781 9.1142C16.2964 9.1142 16.3161 9.07478 16.3161 8.96964C16.3161 8.09568 16.3293 7.21516 16.3358 6.3412C16.3358 6.16378 16.3358 6.16378 16.5132 6.17036C17.0258 6.17036 17.5449 6.1835 18.0575 6.1835C18.1626 6.1835 18.1823 6.21635 18.1823 6.31492C18.1692 7.23487 18.1692 8.1614 18.1494 9.08135C18.1494 9.19963 18.1889 9.22591 18.2874 9.23248C19.0365 9.30476 19.7725 9.44276 20.4822 9.71874C21.1196 9.96844 21.6847 10.3233 22.0855 10.9015C22.5324 11.5455 22.6441 12.2749 22.5981 13.0371C22.5389 14.1017 22.0395 14.8968 21.0933 15.4093C21.0604 15.429 21.0276 15.4356 21.0079 15.475C21.3233 15.5604 21.6321 15.6656 21.9278 15.8036C23.0121 16.3227 23.5377 17.2032 23.6034 18.3794C23.6494 19.2008 23.5509 20.0091 23.2026 20.7647H23.2092Z" fill="#FEFEFD"/>
</g>
<defs>
<clipPath id="clip0_74_3119">
<rect width="33" height="33" fill="white"/>
</clipPath>
</defs>
</svg>
