<svg width="29" height="26" viewBox="0 0 29 26" fill="none" xmlns="http://www.w3.org/2000/svg">
<g clip-path="url(#clip0_74_3136)">
<path d="M28.3654 8.2528V22.7818C28.3654 24.0653 27.5529 25.3794 26.3025 25.3794H3.37039C2.12001 25.3794 0.863281 24.0653 0.863281 22.7818V8.23438" stroke="#EEF7FF" stroke-linecap="round" stroke-linejoin="round"/>
<path d="M23.2504 18.4153C23.955 18.4153 24.5262 17.8654 24.5262 17.1871C24.5262 16.5088 23.955 15.959 23.2504 15.959C22.5458 15.959 21.9746 16.5088 21.9746 17.1871C21.9746 17.8654 22.5458 18.4153 23.2504 18.4153Z" stroke="#EEF7FF" stroke-linecap="round" stroke-linejoin="round"/>
<path d="M28.3146 8.89758H2.84991C1.63126 8.89758 0.634766 7.93348 0.634766 6.75445C0.634766 5.57543 1.63126 4.61133 2.84991 4.61133H7.30559" stroke="#EEF7FF" stroke-linecap="round" stroke-linejoin="round"/>
<path d="M25.4766 14.375H23.2488C21.6573 14.375 20.3672 15.6218 20.3672 17.1598C20.3672 18.6979 21.6573 19.9447 23.2488 19.9447H25.4766C27.0681 19.9447 28.3582 18.6979 28.3582 17.1598C28.3582 15.6218 27.0681 14.375 25.4766 14.375Z" stroke="#EEF7FF" stroke-linecap="round" stroke-linejoin="round"/>
<path d="M22.6406 4.62305H25.1731C26.1062 4.62305 26.8615 5.16957 26.8615 5.83892V7.20831" stroke="#EEF7FF" stroke-linecap="round" stroke-linejoin="round"/>
<path d="M4.70312 7.34961H24.5252" stroke="#EEF7FF" stroke-linecap="round" stroke-linejoin="round"/>
<path d="M20.8698 6.99968L17.7407 0.613281L5.43359 5.93732L5.97945 6.99968" stroke="#EEF7FF" stroke-linecap="round" stroke-linejoin="round"/>
<path d="M18.419 6.91463L16.6355 3.2793L7.95898 7.06815" stroke="#EEF7FF" stroke-linecap="round" stroke-linejoin="round"/>
<path d="M18.7676 2.75656L21.1224 1.67578L23.6993 6.99982" stroke="#EEF7FF" stroke-linecap="round" stroke-linejoin="round"/>
</g>
<defs>
<clipPath id="clip0_74_3136">
<rect width="29" height="26" fill="white"/>
</clipPath>
</defs>
</svg>
