<svg width="16" height="31" viewBox="0 0 16 31" fill="none" xmlns="http://www.w3.org/2000/svg">
<g clip-path="url(#clip0_74_3112)">
<path d="M7.04665 2.58464L7.04665 0.0580248C7.04665 0.0286459 7.07073 -0.000734902 7.10444 -0.000734899L8.73238 -0.000734757C8.76128 -0.000734754 8.79017 0.023748 8.79017 0.0580249L8.79017 2.5063C8.79017 2.53567 8.81426 2.56016 8.84797 2.56505C10.4326 2.57974 11.9064 2.94698 13.2742 3.66677C13.2935 3.67657 13.3031 3.69615 13.3031 3.72064L13.3031 6.93277C13.3031 6.98173 13.2501 7.00622 13.2164 6.97684C12.7589 6.62428 12.099 6.29622 11.2417 5.99263C10.3507 5.67925 9.55598 5.49318 8.85279 5.43932C8.81907 5.43932 8.79017 5.4638 8.79017 5.49808L8.79017 9.81193C8.79017 9.81193 8.80462 9.856 8.8287 9.86579C10.6686 10.566 11.9305 11.325 12.6047 12.1378C12.966 12.5736 13.2309 13.0583 13.3994 13.5921C14.0593 15.678 13.2068 18.0087 11.3621 19.1349C10.6493 19.5707 9.81124 19.84 8.84315 19.9429C8.81426 19.9429 8.79499 19.9723 8.79499 19.9967L8.79499 22.1463C8.79499 22.1757 8.77091 22.2051 8.73719 22.2051L7.10926 22.2051C7.08036 22.2051 7.05146 22.1806 7.05146 22.1463L7.05146 20.0506C7.05146 20.0212 7.02738 19.9967 6.99848 19.9918C5.36573 19.9086 4.14237 19.6393 3.32359 19.1839C3.30432 19.1741 3.29469 19.1545 3.29469 19.13L3.29469 15.9865C3.29469 15.9424 3.34285 15.9179 3.37657 15.9375C4.45062 16.5838 5.65471 16.9854 6.98885 17.1421C7.02256 17.1421 7.05146 17.1176 7.05146 17.0833L7.05146 12.5883C7.05146 12.5883 7.03701 12.5442 7.01293 12.5344C5.28867 11.8979 4.05086 11.1732 3.29951 10.3554C2.54334 9.53283 2.16284 8.53883 2.16284 7.37835C2.16284 6.0367 2.58668 4.95456 3.42955 4.13195C4.26278 3.31912 5.45243 2.81967 6.99848 2.6385C7.02738 2.6385 7.04665 2.60912 7.04665 2.58464ZM8.79017 13.3521L8.79017 17.0343C8.79017 17.0686 8.82389 17.098 8.86242 17.0931C9.92202 16.8776 10.4518 16.295 10.4518 15.345C10.4518 14.5322 9.92684 13.8516 8.87687 13.3032C8.83834 13.2836 8.79017 13.313 8.79017 13.3521ZM7.04665 9.06276L7.04665 5.54215C7.04665 5.50787 7.01293 5.47849 6.97922 5.48339C5.8859 5.67436 5.34165 6.24725 5.34165 7.20697C5.34165 7.98063 5.88108 8.61718 6.96477 9.11173C7.0033 9.13131 7.04665 9.10193 7.04665 9.05786L7.04665 9.06276Z" fill="#F4F4F4"/>
<path d="M9.9699 25.1486L1.13667 25.1486C0.510537 25.1486 4.66167e-07 25.6677 4.10518e-07 26.3042L3.79269e-07 26.6617C3.2362e-07 27.2982 0.510536 27.8172 1.13667 27.8172L9.9699 27.8172L9.9699 31L12.9849 28.8063L16 26.6176L12.9849 24.4239L9.9699 22.2303L9.9699 25.1486Z" fill="#F4F4F4"/>
</g>
<defs>
<clipPath id="clip0_74_3112">
<rect width="16" height="31" fill="white" transform="translate(16 31) rotate(-180)"/>
</clipPath>
</defs>
</svg>
