<svg width="34" height="37" viewBox="0 0 34 37" fill="none" xmlns="http://www.w3.org/2000/svg">
<g id="Capa_1" clip-path="url(#clip0_342_2573)">
<path id="Vector" d="M15.1383 36.311C9.28309 36.1062 4.39696 33.645 0.793161 28.7519C0.266225 28.0352 0.0635575 27.2818 0.664191 26.4992C1.16165 25.8519 1.86914 25.6618 2.5619 25.9763C3.03356 26.192 3.42784 26.6601 3.75948 27.088C8.62718 33.4037 17.364 34.8555 23.7794 30.255C28.6102 26.7881 30.6885 21.9499 29.6899 16.1316C28.6655 10.1707 25.0027 6.18453 19.1069 4.64858C13.318 3.1419 8.31397 4.81315 4.32326 9.28933C4.00268 9.65137 3.73368 10.0573 3.42784 10.434C2.75719 11.2531 1.82124 11.4433 1.05847 10.9277C0.233061 10.3718 0.048818 9.4027 0.675245 8.47747C2.29659 6.08945 4.3859 4.18049 6.969 2.87859C13.0159 -0.167699 19.0701 -0.094559 24.8369 3.4564C30.6479 7.03296 33.4927 12.427 33.3047 19.1998C33.0394 28.7556 24.988 36.3439 15.1383 36.3146V36.311Z" fill="white"/>
<path id="Vector_2" d="M18.4715 20.2173C17.5724 20.2173 16.957 20.2173 16.3417 20.2173C12.0746 20.2173 7.80383 20.2246 3.53676 20.2246C3.20143 20.2246 2.86242 20.2173 2.53079 20.1734C1.58378 20.0454 1.0421 19.5115 1.00157 18.5533C0.964719 17.6391 1.58009 16.9808 2.57501 16.8491C2.86979 16.8089 3.17195 16.8235 3.47043 16.8235C7.96228 16.8235 12.4578 16.8235 16.9497 16.8235H18.4715C17.3034 15.646 16.3748 14.7061 15.4389 13.7736C14.3555 12.6948 13.2501 11.6342 12.1851 10.5408C11.3966 9.72895 11.3708 8.75984 12.0562 8.05769C12.7231 7.37017 13.7696 7.36652 14.5582 8.1418C17.6461 11.1735 20.7193 14.2198 23.774 17.2843C24.5479 18.0596 24.5663 18.9848 23.7851 19.7674C20.7045 22.8576 17.6019 25.9259 14.4808 28.9795C13.7438 29.6999 12.7158 29.6597 12.0672 29.0014C11.3708 28.2993 11.3818 27.3338 12.1814 26.5219C14.0128 24.6605 15.8774 22.832 17.7272 20.9925C17.9004 20.8207 18.0662 20.6378 18.4678 20.2246L18.4715 20.2173Z" fill="white"/>
</g>
<defs>
<clipPath id="clip0_342_2573">
<rect width="33.0164" height="35.6229" fill="white" transform="translate(0.296875 0.6875)"/>
</clipPath>
</defs>
</svg>
