<svg width="64" height="64" viewBox="0 0 64 64" fill="none" xmlns="http://www.w3.org/2000/svg">
<g id="icono" filter="url(#filter0_d_868_9957)">
<path id="Ellipse 5" d="M60 28C60 43.464 47.464 56 32 56C16.536 56 4 43.464 4 28C4 12.536 16.536 0 32 0C47.464 0 60 12.536 60 28Z" fill="#111318"/>
<path id="Vector" d="M21.1773 25.1349C21.1773 23.7119 21.1437 22.3181 21.1843 20.9261C21.3294 15.9785 24.7113 11.6256 29.3597 10.3632C36.113 8.52973 42.9228 13.8751 42.983 21.0611C42.9936 22.3947 42.983 23.7301 42.983 25.1203C43.2854 25.1987 43.5613 25.2662 43.8355 25.341C45.1338 25.6968 45.9722 26.7184 45.9775 28.1067C45.9987 32.7862 46.0058 37.4638 45.974 42.1432C45.9616 43.8818 44.7128 44.9874 42.8609 44.9892C36.4685 44.9983 30.0761 44.9929 23.6854 44.9929C22.7427 44.9929 21.7999 45.0093 20.8571 44.9837C19.175 44.9399 18.0164 43.7669 18.0094 42.0502C17.9917 37.4328 17.9917 32.8135 18.0094 28.1961C18.0164 26.4594 18.9751 25.5235 21.1737 25.1331L21.1773 25.1349ZM38.1913 25.1732C38.1913 23.6024 38.2656 22.1101 38.1754 20.6306C38.0179 18.0765 36.2509 15.9037 33.8188 15.112C31.5389 14.3713 29.0519 15.163 27.4282 17.0768C25.3958 19.474 25.8787 22.3327 25.8681 25.1714H38.1913V25.1732ZM31.9864 39.2681C32.0164 39.2681 32.0447 39.2681 32.0748 39.2681C34.3424 39.2699 34.3866 39.5362 33.8277 37.0004C33.6526 36.2086 33.5181 35.5154 34.0824 34.7255C34.7758 33.7549 34.4238 32.4596 33.4934 31.6423C32.6532 30.9053 31.4557 30.8706 30.5696 31.5566C29.6109 32.2991 29.1439 33.5779 29.8107 34.5047C30.4917 35.4534 30.2441 36.2907 30.0672 37.2175C29.9929 37.6024 29.9204 37.9892 29.839 38.3723C29.7011 39.0108 29.9717 39.2808 30.5784 39.2699C31.0489 39.2626 31.5176 39.2699 31.9881 39.2699L31.9864 39.2681Z" fill="#2E8E9E"/>
</g>
<defs>
<filter id="filter0_d_868_9957" x="0" y="0" width="64" height="64" filterUnits="userSpaceOnUse" color-interpolation-filters="sRGB">
<feFlood flood-opacity="0" result="BackgroundImageFix"/>
<feColorMatrix in="SourceAlpha" type="matrix" values="0 0 0 0 0 0 0 0 0 0 0 0 0 0 0 0 0 0 127 0" result="hardAlpha"/>
<feOffset dy="4"/>
<feGaussianBlur stdDeviation="2"/>
<feComposite in2="hardAlpha" operator="out"/>
<feColorMatrix type="matrix" values="0 0 0 0 0 0 0 0 0 0 0 0 0 0 0 0 0 0 0.25 0"/>
<feBlend mode="normal" in2="BackgroundImageFix" result="effect1_dropShadow_868_9957"/>
<feBlend mode="normal" in="SourceGraphic" in2="effect1_dropShadow_868_9957" result="shape"/>
</filter>
</defs>
</svg>
