<svg width="372" height="372" viewBox="0 0 372 372" fill="none" xmlns="http://www.w3.org/2000/svg">
<mask id="mask0_121_210" style="mask-type:alpha" maskUnits="userSpaceOnUse" x="0" y="0" width="372" height="372">
<circle cx="186" cy="186" r="186" fill="#D9D9D9"/>
</mask>
<g mask="url(#mask0_121_210)">
<path d="M-155.912 -54.2505L-206.282 -92.9099C-265.197 -138.128 -347.101 -138.273 -406.177 -93.2645C-447.025 -62.1435 -471 -13.736 -471 37.616V282H1661V68.9987C1661 6.65915 1610.46 -43.877 1548.12 -43.877C1517.75 -43.877 1488.65 -31.6336 1467.42 -9.91393L1454.65 3.1468C1398.09 60.9941 1306.73 66.1118 1244.06 14.9434L1184.54 -33.6587C1176.21 -40.4597 1168.44 -47.926 1161.32 -55.984C1091.44 -135.062 971.923 -145.675 889.204 -80.1488L843.416 -43.877C751.872 32.0833 620.153 35.2649 525.048 -36.1869L514.812 -43.877C419.617 -118.035 286.541 -119.215 190.045 -46.7582L186.208 -43.877L168.124 -25.9533C84.7279 56.7008 -50.4421 54.2162 -130.744 -31.4469C-138.499 -39.7199 -146.916 -47.3464 -155.912 -54.2505Z" fill="#2E8E9E"/>
<path d="M-155.912 -54.2505L-206.282 -92.9099C-265.197 -138.128 -347.101 -138.273 -406.177 -93.2645C-447.025 -62.1435 -471 -13.736 -471 37.616V282H1661V68.9987C1661 6.65915 1610.46 -43.877 1548.12 -43.877C1517.75 -43.877 1488.65 -31.6336 1467.42 -9.91393L1454.65 3.1468C1398.09 60.9941 1306.73 66.1118 1244.06 14.9434L1184.54 -33.6587C1176.21 -40.4597 1168.44 -47.926 1161.32 -55.984C1091.44 -135.062 971.923 -145.675 889.204 -80.1488L843.416 -43.877C751.872 32.0833 620.153 35.2649 525.048 -36.1869L514.812 -43.877C419.617 -118.035 286.541 -119.215 190.045 -46.7582L186.208 -43.877L168.124 -25.9533C84.7279 56.7008 -50.4421 54.2162 -130.744 -31.4469C-138.499 -39.7199 -146.916 -47.3464 -155.912 -54.2505Z" fill="black" fill-opacity="0.2"/>
<path d="M-418.175 -84.7869L-433.338 -111.885C-479.055 -193.587 -596.566 -193.771 -642.54 -112.214C-652.675 -94.2336 -658 -73.9427 -658 -53.3027V469H898V-14.4743C898 -53.3069 866.52 -84.7869 827.688 -84.7869C799.373 -84.7869 773.821 -67.8033 762.859 -41.6971L755.534 -24.253C723.212 52.7191 615.901 57.3718 577.038 -16.5139L541.127 -84.7869C502.403 -186.828 361.743 -196.272 309.725 -100.324L301.302 -84.7869C252.155 10.1677 117.363 12.9781 64.3012 -79.8454L61.4764 -84.7869C9.88818 -178.361 -125.298 -177.54 -178.349 -84.7869L-179.701 -81.6672C-225.326 23.6243 -375.319 21.6621 -418.175 -84.7869Z" fill="#2E8E9E"/>
</g>
</svg>
