<svg width="208" height="168" viewBox="0 0 208 168" fill="none" xmlns="http://www.w3.org/2000/svg">
<path d="M127.516 76.9114H147.608V130.041C149.573 130.218 151.285 130.374 153.489 130.579C152.609 131.873 151.995 132.915 151.244 133.856C128.731 161.929 99.4834 173.353 64.5738 165.063C29.6506 156.772 8.099 133.563 1.43363 98.2067C-7.43533 51.1609 25.8574 6.58794 73.32 0.661227C107.234 -3.56922 140.001 12.7599 156.9 42.1823C158.319 44.6483 158.373 46.1062 156.177 48.218C147.41 56.6653 138.882 65.3578 130.266 73.9685C129.549 74.6838 128.874 75.4468 127.509 76.9114H127.516ZM91.515 142.923C91.515 138.808 91.5969 134.973 91.4809 131.151C91.4195 129.285 91.9789 128.569 93.896 128.004C97.8597 126.839 101.953 125.626 105.473 123.562C122.734 113.453 122.584 89.4393 105.262 79.5001C101.953 77.5995 98.2895 76.2643 94.6874 74.9495C90.785 73.5189 86.719 72.5448 82.8166 71.121C80.497 70.2763 78.1502 69.2203 76.1854 67.7557C72.8151 65.2351 73.4292 61.0456 77.2565 59.2403C78.3685 58.7158 79.6101 58.4024 80.8245 58.198C88.5473 56.9037 95.9427 58.2253 103.113 61.1478C104.914 61.8835 106.701 62.6465 108.748 63.5048C110.385 58.1912 111.832 53.1024 113.551 48.109C114.281 45.9767 113.988 44.7641 111.75 44.1715C105.453 42.5024 99.1628 40.813 92.2859 38.9737V27.672H77.4065C77.4065 31.4869 77.352 35.1043 77.4338 38.7216C77.4679 40.3361 76.9767 41.0242 75.278 41.4465C72.167 42.2232 69.022 43.1428 66.1498 44.5393C57.9699 48.5245 53.0988 54.9485 52.4302 64.2474C51.7343 73.9208 55.1045 81.7959 63.5368 86.7007C68.6058 89.6505 74.2888 91.5647 79.7534 93.7924C83.7854 95.4341 88.0084 96.6331 91.9789 98.4043C94.7829 99.6578 96.6795 101.974 96.1337 105.373C95.5743 108.827 92.9136 110.38 89.8981 110.496C84.3243 110.701 78.6073 111.028 73.1904 110.019C67.371 108.936 61.8245 106.368 56.0596 104.42C56.1142 104.345 55.9232 104.488 55.8823 104.672C54.8248 108.793 53.7673 112.921 52.7304 117.05C51.2909 122.765 51.1953 123.065 56.7828 124.925C63.1343 127.036 69.6905 128.549 76.6697 130.463V142.943H91.5218L91.515 142.923Z" fill="white" fill-opacity="0.2"/>
<path d="M149.202 72.9784C159.24 62.9576 169.073 53.1546 178.68 43.5625C188.288 53.175 198.155 63.0461 208.002 72.8967H194.914V126.327H162.747C162.747 124.932 162.747 123.715 162.747 122.497C162.747 107.129 162.679 91.7544 162.809 76.3866C162.829 73.6246 162.072 72.7266 159.301 72.9239C155.992 73.162 152.648 72.9784 149.195 72.9784H149.202Z" fill="white" fill-opacity="0.2"/>
</svg>
